<?xml version="1.0" encoding="UTF-8"?>
<svg xmlns="http://www.w3.org/2000/svg" xmlns:xlink="http://www.w3.org/1999/xlink" width="170px" height="200px" viewBox="0 0 170 170" version="1.1">
<defs>
<filter id="alpha" filterUnits="objectBoundingBox" x="0%" y="0%" width="100%" height="100%">
  <feColorMatrix type="matrix" in="SourceGraphic" values="0 0 0 0 1 0 0 0 0 1 0 0 0 0 1 0 0 0 1 0"/>
</filter>
<mask id="mask0">
  <g filter="url(#alpha)">
<rect x="0" y="0" width="170" height="170" style="fill:rgb(0%,0%,0%);fill-opacity:0.180392;stroke:none;"/>
  </g>
</mask>
<clipPath id="clip1">
  <rect x="0" y="0" width="170" height="170"/>
</clipPath>
<g id="surface5" clip-path="url(#clip1)">
<path style=" stroke:none;fill-rule:nonzero;fill:rgb(40.784314%,88.235294%,99.215686%);fill-opacity:1;" d="M 56.832031 148.609375 C 72.777344 156.824219 90.445312 161.132812 108.386719 161.171875 C 115.070312 161.171875 121.851562 160.570312 128.125 158.261719 C 144.304688 152.289062 154.980469 134.109375 152.328125 117.066406 C 151.386719 111.019531 148.972656 105.160156 149.125 99.042969 C 149.289062 92.605469 152.261719 86.636719 154.15625 80.488281 C 156.273438 73.578125 157.042969 66.332031 156.421875 59.128906 C 155.484375 48.363281 151.015625 37.433594 142.308594 31.011719 C 138.816406 28.425781 134.789062 26.667969 130.800781 24.929688 L 112.472656 16.910156 C 101.664062 12.195312 88.738281 7.582031 78.683594 13.742188 C 69.574219 19.324219 66.8125 31.621094 58.460938 38.269531 C 48.089844 46.542969 30.679688 45.003906 23.90625 56.402344 C 18.257812 65.914062 23.964844 78.535156 20.324219 88.980469 C 19.113281 92.460938 16.925781 95.492188 14.949219 98.601562 C 8.570312 108.695312 1.835938 130.664062 17.824219 136.09375 C 22.566406 137.699219 28.214844 136.484375 33.140625 137.585938 C 41.699219 139.507812 49.144531 144.640625 56.828125 148.605469 Z M 56.832031 148.609375 "/>
</g>
<linearGradient id="linear0" gradientUnits="userSpaceOnUse" x1="789.08" y1="1667.75" x2="760.34" y2="1659.77" gradientTransform="matrix(0.34,0,0,-0.34,-176.2254,605.897)">
<stop offset="0" style="stop-color:rgb(0%,0%,0%);stop-opacity:0;"/>
<stop offset="0.99" style="stop-color:rgb(0%,0%,0%);stop-opacity:1;"/>
</linearGradient>
<linearGradient id="linear1" gradientUnits="userSpaceOnUse" x1="797.51" y1="1693.77" x2="796.57" y2="1713.42" gradientTransform="matrix(0.34,0,0,-0.34,-176.2254,605.897)">
<stop offset="0" style="stop-color:rgb(0%,0%,0%);stop-opacity:0;"/>
<stop offset="0.99" style="stop-color:rgb(0%,0%,0%);stop-opacity:1;"/>
</linearGradient>
<linearGradient id="linear2" gradientUnits="userSpaceOnUse" x1="579.93" y1="1477.84" x2="742.75" y2="1477.84" gradientTransform="matrix(0.34,0,0,-0.34,-176.2254,605.897)">
<stop offset="0" style="stop-color:rgb(0%,0%,0%);stop-opacity:0;"/>
<stop offset="0.99" style="stop-color:rgb(0%,0%,0%);stop-opacity:1;"/>
</linearGradient>
<linearGradient id="linear3" gradientUnits="userSpaceOnUse" x1="718.81" y1="1458.37" x2="973.94" y2="1455.14" gradientTransform="matrix(0.34,0,0,-0.34,-176.2254,605.897)">
<stop offset="0.02" style="stop-color:rgb(100%,100%,100%);stop-opacity:0;"/>
<stop offset="0.32" style="stop-color:rgb(100%,100%,100%);stop-opacity:0.388235;"/>
<stop offset="0.68" style="stop-color:rgb(100%,100%,100%);stop-opacity:0.678431;"/>
<stop offset="1" style="stop-color:rgb(100%,100%,100%);stop-opacity:1;"/>
</linearGradient>
<linearGradient id="linear4" gradientUnits="userSpaceOnUse" x1="777.39" y1="1391.06" x2="725" y2="1277.39" gradientTransform="matrix(0.34,0,0,-0.34,-176.2254,605.897)">
<stop offset="0" style="stop-color:rgb(0%,0%,0%);stop-opacity:0;"/>
<stop offset="0.99" style="stop-color:rgb(0%,0%,0%);stop-opacity:1;"/>
</linearGradient>
<linearGradient id="linear5" gradientUnits="userSpaceOnUse" x1="863.06" y1="1307.39" x2="701.59" y2="1434.95" gradientTransform="matrix(0.34,0,0,-0.34,-176.2254,605.897)">
<stop offset="0" style="stop-color:rgb(0%,0%,0%);stop-opacity:0;"/>
<stop offset="0.99" style="stop-color:rgb(0%,0%,0%);stop-opacity:1;"/>
</linearGradient>
<linearGradient id="linear6" gradientUnits="userSpaceOnUse" x1="856.64" y1="1312.94" x2="711.34" y2="1427.71" gradientTransform="matrix(0.34,0,0,-0.34,-176.2254,605.897)">
<stop offset="0" style="stop-color:rgb(0%,0%,0%);stop-opacity:0;"/>
<stop offset="0.99" style="stop-color:rgb(0%,0%,0%);stop-opacity:1;"/>
</linearGradient>
<linearGradient id="linear7" gradientUnits="userSpaceOnUse" x1="870.84" y1="1423.7" x2="828.86" y2="1296.94" gradientTransform="matrix(0.34,0,0,-0.34,-176.2254,605.897)">
<stop offset="0" style="stop-color:rgb(0%,0%,0%);stop-opacity:0;"/>
<stop offset="0.99" style="stop-color:rgb(0%,0%,0%);stop-opacity:1;"/>
</linearGradient>
<linearGradient id="linear8" gradientUnits="userSpaceOnUse" x1="666.23" y1="1518.28" x2="739.29" y2="1518.28" gradientTransform="matrix(0.34,0,0,-0.34,-176.2254,605.897)">
<stop offset="0" style="stop-color:rgb(0%,0%,0%);stop-opacity:0;"/>
<stop offset="0.99" style="stop-color:rgb(0%,0%,0%);stop-opacity:1;"/>
</linearGradient>
<linearGradient id="linear9" gradientUnits="userSpaceOnUse" x1="773.42" y1="1566.04" x2="758.34" y2="1408.32" gradientTransform="matrix(0.34,0,0,-0.34,-160.14,606.7402)">
<stop offset="0.02" style="stop-color:rgb(100%,100%,100%);stop-opacity:0;"/>
<stop offset="0.32" style="stop-color:rgb(100%,100%,100%);stop-opacity:0.388235;"/>
<stop offset="0.68" style="stop-color:rgb(100%,100%,100%);stop-opacity:0.678431;"/>
<stop offset="1" style="stop-color:rgb(100%,100%,100%);stop-opacity:1;"/>
</linearGradient>
<linearGradient id="linear10" gradientUnits="userSpaceOnUse" x1="774.89" y1="1565.89" x2="759.81" y2="1408.19" gradientTransform="matrix(0.34,0,0,-0.34,-160.14,606.7402)">
<stop offset="0.02" style="stop-color:rgb(100%,100%,100%);stop-opacity:0;"/>
<stop offset="0.32" style="stop-color:rgb(100%,100%,100%);stop-opacity:0.388235;"/>
<stop offset="0.68" style="stop-color:rgb(100%,100%,100%);stop-opacity:0.678431;"/>
<stop offset="1" style="stop-color:rgb(100%,100%,100%);stop-opacity:1;"/>
</linearGradient>
<linearGradient id="linear11" gradientUnits="userSpaceOnUse" x1="776.36" y1="1565.76" x2="761.28" y2="1408.04" gradientTransform="matrix(0.34,0,0,-0.34,-160.14,606.7402)">
<stop offset="0.02" style="stop-color:rgb(100%,100%,100%);stop-opacity:0;"/>
<stop offset="0.32" style="stop-color:rgb(100%,100%,100%);stop-opacity:0.388235;"/>
<stop offset="0.68" style="stop-color:rgb(100%,100%,100%);stop-opacity:0.678431;"/>
<stop offset="1" style="stop-color:rgb(100%,100%,100%);stop-opacity:1;"/>
</linearGradient>
<linearGradient id="linear12" gradientUnits="userSpaceOnUse" x1="777.83" y1="1565.61" x2="762.75" y2="1407.91" gradientTransform="matrix(0.34,0,0,-0.34,-160.14,606.7402)">
<stop offset="0.02" style="stop-color:rgb(100%,100%,100%);stop-opacity:0;"/>
<stop offset="0.32" style="stop-color:rgb(100%,100%,100%);stop-opacity:0.388235;"/>
<stop offset="0.68" style="stop-color:rgb(100%,100%,100%);stop-opacity:0.678431;"/>
<stop offset="1" style="stop-color:rgb(100%,100%,100%);stop-opacity:1;"/>
</linearGradient>
<linearGradient id="linear13" gradientUnits="userSpaceOnUse" x1="779.29" y1="1565.47" x2="764.22" y2="1407.76" gradientTransform="matrix(0.34,0,0,-0.34,-160.14,606.7402)">
<stop offset="0.02" style="stop-color:rgb(100%,100%,100%);stop-opacity:0;"/>
<stop offset="0.32" style="stop-color:rgb(100%,100%,100%);stop-opacity:0.388235;"/>
<stop offset="0.68" style="stop-color:rgb(100%,100%,100%);stop-opacity:0.678431;"/>
<stop offset="1" style="stop-color:rgb(100%,100%,100%);stop-opacity:1;"/>
</linearGradient>
<linearGradient id="linear14" gradientUnits="userSpaceOnUse" x1="780.76" y1="1565.33" x2="765.69" y2="1407.62" gradientTransform="matrix(0.34,0,0,-0.34,-160.14,606.7402)">
<stop offset="0.02" style="stop-color:rgb(100%,100%,100%);stop-opacity:0;"/>
<stop offset="0.32" style="stop-color:rgb(100%,100%,100%);stop-opacity:0.388235;"/>
<stop offset="0.68" style="stop-color:rgb(100%,100%,100%);stop-opacity:0.678431;"/>
<stop offset="1" style="stop-color:rgb(100%,100%,100%);stop-opacity:1;"/>
</linearGradient>
<linearGradient id="linear15" gradientUnits="userSpaceOnUse" x1="782.22" y1="1565.19" x2="767.16" y2="1407.48" gradientTransform="matrix(0.34,0,0,-0.34,-160.14,606.7402)">
<stop offset="0.02" style="stop-color:rgb(100%,100%,100%);stop-opacity:0;"/>
<stop offset="0.32" style="stop-color:rgb(100%,100%,100%);stop-opacity:0.388235;"/>
<stop offset="0.68" style="stop-color:rgb(100%,100%,100%);stop-opacity:0.678431;"/>
<stop offset="1" style="stop-color:rgb(100%,100%,100%);stop-opacity:1;"/>
</linearGradient>
<linearGradient id="linear16" gradientUnits="userSpaceOnUse" x1="738.51" y1="1447.95" x2="736.73" y2="1418.7" gradientTransform="matrix(0.34,0,0,-0.34,-160.14,606.7402)">
<stop offset="0.02" style="stop-color:rgb(100%,100%,100%);stop-opacity:0;"/>
<stop offset="0.32" style="stop-color:rgb(100%,100%,100%);stop-opacity:0.388235;"/>
<stop offset="0.68" style="stop-color:rgb(100%,100%,100%);stop-opacity:0.678431;"/>
<stop offset="1" style="stop-color:rgb(100%,100%,100%);stop-opacity:1;"/>
</linearGradient>
<linearGradient id="linear17" gradientUnits="userSpaceOnUse" x1="753.81" y1="1447.01" x2="752.01" y2="1417.76" gradientTransform="matrix(0.34,0,0,-0.34,-160.14,606.7402)">
<stop offset="0.02" style="stop-color:rgb(100%,100%,100%);stop-opacity:0;"/>
<stop offset="0.32" style="stop-color:rgb(100%,100%,100%);stop-opacity:0.388235;"/>
<stop offset="0.68" style="stop-color:rgb(100%,100%,100%);stop-opacity:0.678431;"/>
<stop offset="1" style="stop-color:rgb(100%,100%,100%);stop-opacity:1;"/>
</linearGradient>
<linearGradient id="linear18" gradientUnits="userSpaceOnUse" x1="782.79" y1="1445.22" x2="781.01" y2="1415.99" gradientTransform="matrix(0.34,0,0,-0.34,-160.14,606.7402)">
<stop offset="0.02" style="stop-color:rgb(100%,100%,100%);stop-opacity:0;"/>
<stop offset="0.32" style="stop-color:rgb(100%,100%,100%);stop-opacity:0.388235;"/>
<stop offset="0.68" style="stop-color:rgb(100%,100%,100%);stop-opacity:0.678431;"/>
<stop offset="1" style="stop-color:rgb(100%,100%,100%);stop-opacity:1;"/>
</linearGradient>
<linearGradient id="linear19" gradientUnits="userSpaceOnUse" x1="768.8" y1="1446.09" x2="767" y2="1416.84" gradientTransform="matrix(0.34,0,0,-0.34,-160.14,606.7402)">
<stop offset="0.02" style="stop-color:rgb(100%,100%,100%);stop-opacity:0;"/>
<stop offset="0.32" style="stop-color:rgb(100%,100%,100%);stop-opacity:0.388235;"/>
<stop offset="0.68" style="stop-color:rgb(100%,100%,100%);stop-opacity:0.678431;"/>
<stop offset="1" style="stop-color:rgb(100%,100%,100%);stop-opacity:1;"/>
</linearGradient>
<linearGradient id="linear20" gradientUnits="userSpaceOnUse" x1="804.15" y1="1437.37" x2="804.5" y2="1397.18" gradientTransform="matrix(0.34,0,0,-0.34,-160.14,606.7402)">
<stop offset="0.02" style="stop-color:rgb(100%,100%,100%);stop-opacity:0;"/>
<stop offset="0.32" style="stop-color:rgb(100%,100%,100%);stop-opacity:0.388235;"/>
<stop offset="0.68" style="stop-color:rgb(100%,100%,100%);stop-opacity:0.678431;"/>
<stop offset="1" style="stop-color:rgb(100%,100%,100%);stop-opacity:1;"/>
</linearGradient>
<linearGradient id="linear21" gradientUnits="userSpaceOnUse" x1="816.98" y1="1432.74" x2="817.16" y2="1363.66" gradientTransform="matrix(0.34,0,0,-0.34,-160.14,606.7402)">
<stop offset="0.02" style="stop-color:rgb(100%,100%,100%);stop-opacity:0;"/>
<stop offset="0.32" style="stop-color:rgb(100%,100%,100%);stop-opacity:0.388235;"/>
<stop offset="0.68" style="stop-color:rgb(100%,100%,100%);stop-opacity:0.678431;"/>
<stop offset="1" style="stop-color:rgb(100%,100%,100%);stop-opacity:1;"/>
</linearGradient>
<linearGradient id="linear22" gradientUnits="userSpaceOnUse" x1="810" y1="1442.33" x2="811.61" y2="1420.62" gradientTransform="matrix(0.34,0,0,-0.34,-160.14,606.7402)">
<stop offset="0.02" style="stop-color:rgb(100%,100%,100%);stop-opacity:0;"/>
<stop offset="0.32" style="stop-color:rgb(100%,100%,100%);stop-opacity:0.388235;"/>
<stop offset="0.68" style="stop-color:rgb(100%,100%,100%);stop-opacity:0.678431;"/>
<stop offset="1" style="stop-color:rgb(100%,100%,100%);stop-opacity:1;"/>
</linearGradient>
</defs>
<g id="surface1">
<use xlink:href="#surface5" mask="url(#mask0)"/>
<path style=" stroke:none;fill-rule:nonzero;fill:rgb(40.784314%,88.235294%,99.215686%);fill-opacity:1;" d="M 90.703125 28.183594 C 89 28.597656 87.898438 30.328125 87.570312 32.046875 C 87.246094 33.769531 87.53125 35.535156 87.683594 37.285156 C 87.839844 39.15625 87.832031 41.027344 87.847656 42.925781 C 87.847656 43.757812 87.867188 44.648438 88.289062 45.382812 C 88.820312 46.304688 89.878906 46.789062 90.914062 47.046875 C 92.625 47.460938 94.40625 47.386719 96.160156 47.3125 C 96.84375 47.28125 97.582031 47.234375 98.101562 46.785156 C 98.472656 46.414062 98.722656 45.945312 98.820312 45.425781 C 99.121094 44.113281 99.277344 42.765625 99.285156 41.414062 L 99.582031 34.832031 C 99.691406 32.488281 99.605469 29.371094 97.085938 28.222656 C 96.367188 27.894531 95.578125 28.003906 94.8125 28.03125 C 93.492188 28.085938 92.019531 27.847656 90.707031 28.183594 Z M 90.703125 28.183594 "/>
<path style=" stroke:none;fill-rule:nonzero;fill:url(#linear0);" d="M 90.496094 43.808594 C 89.972656 44.222656 90.496094 45.65625 91.328125 45.886719 C 91.835938 46.023438 88.832031 46.082031 88.515625 45.660156 C 88.160156 45.15625 87.941406 44.574219 87.875 43.960938 C 87.800781 42.101562 88.003906 40.21875 87.929688 38.34375 C 87.851562 37.523438 87.914062 36.691406 88.109375 35.894531 C 88.480469 34.675781 89.445312 33.734375 89.964844 32.570312 C 90.535156 33.246094 90.460938 34.230469 90.40625 35.121094 C 90.328125 36.453125 90.375 37.785156 90.550781 39.101562 C 90.585938 39.507812 90.683594 39.902344 90.847656 40.277344 C 91.367188 41.34375 92.925781 41.613281 93.242188 42.773438 C 93.640625 44.261719 91.355469 44.074219 90.496094 43.8125 Z M 90.496094 43.808594 "/>
<path style=" stroke:none;fill-rule:nonzero;fill:rgb(100%,70.588235%,63.921569%);fill-opacity:1;" d="M 93.222656 28.789062 L 93.539062 29.582031 C 93.671875 29.917969 93.859375 30.289062 94.210938 30.367188 C 94.390625 30.386719 94.574219 30.355469 94.746094 30.285156 C 95.148438 30.160156 95.488281 29.890625 95.699219 29.523438 C 95.800781 29.257812 95.84375 28.976562 95.816406 28.6875 C 95.78125 27.683594 95.679688 23.953125 94.203125 24.140625 C 93.019531 24.304688 92.890625 27.949219 93.226562 28.789062 Z M 93.222656 28.789062 "/>
<path style=" stroke:none;fill-rule:nonzero;fill:url(#linear1);" d="M 94.523438 28.804688 C 94.769531 29.070312 95.144531 29.308594 95.472656 29.148438 C 95.796875 28.988281 95.851562 28.632812 95.886719 28.316406 C 95.921875 28 95.941406 27.683594 95.945312 27.367188 C 95.984375 27.046875 95.796875 26.746094 95.492188 26.640625 C 95.132812 26.410156 93.640625 25.445312 93.609375 26.449219 C 93.617188 27.320312 93.941406 28.15625 94.523438 28.800781 Z M 94.523438 28.804688 "/>
<path style=" stroke:none;fill-rule:nonzero;fill:rgb(100%,70.588235%,63.921569%);fill-opacity:1;" d="M 98.820312 21.808594 C 98.625 22.964844 98.34375 24.101562 97.988281 25.222656 C 97.851562 25.710938 97.648438 26.179688 97.386719 26.613281 C 97.117188 27.050781 96.707031 27.378906 96.222656 27.542969 C 95.570312 27.691406 94.882812 27.539062 94.355469 27.128906 C 93.867188 26.78125 93.484375 26.304688 93.242188 25.753906 C 93.066406 25.320312 92.957031 24.859375 92.921875 24.390625 C 92.777344 23.160156 92.996094 21.917969 93.542969 20.808594 C 93.722656 20.441406 93.976562 20.113281 94.289062 19.847656 C 94.910156 19.390625 95.695312 19.21875 96.453125 19.371094 C 97.199219 19.523438 97.914062 19.804688 98.5625 20.203125 C 99.144531 20.535156 98.917969 21.265625 98.820312 21.8125 Z M 98.820312 21.808594 "/>
<path style=" stroke:none;fill-rule:nonzero;fill:rgb(24.313725%,24.313725%,32.941176%);fill-opacity:1;" d="M 98.714844 18.71875 C 98.925781 18.890625 99.117188 19.089844 99.28125 19.3125 L 100.152344 20.394531 C 100.289062 20.527344 100.382812 20.703125 100.417969 20.894531 C 100.425781 21.058594 100.382812 21.222656 100.289062 21.363281 C 99.992188 21.84375 99.484375 22.15625 98.921875 22.195312 C 98.289062 22.179688 97.671875 21.988281 97.132812 21.648438 C 96.96875 21.882812 96.675781 21.996094 96.394531 21.925781 C 96.113281 21.882812 95.855469 21.753906 95.558594 21.714844 C 95.0625 21.664062 94.574219 21.890625 94.289062 22.300781 C 94.210938 22.417969 94.070312 22.566406 93.964844 22.472656 C 93.925781 22.4375 93.902344 22.386719 93.898438 22.328125 C 93.855469 22.097656 93.730469 21.808594 93.484375 21.820312 C 93.328125 21.84375 93.203125 21.972656 93.1875 22.128906 C 93.175781 22.28125 93.199219 22.433594 93.253906 22.574219 L 93.460938 23.234375 C 93.464844 23.261719 93.464844 23.289062 93.460938 23.3125 C 93.460938 23.386719 93.339844 23.382812 93.265625 23.386719 C 93.097656 23.386719 92.996094 23.574219 92.945312 23.730469 C 92.914062 23.898438 92.847656 24.054688 92.746094 24.191406 C 92.726562 24.210938 92.703125 24.222656 92.675781 24.226562 C 92.648438 24.226562 92.621094 24.214844 92.601562 24.195312 C 92.359375 23.9375 92.226562 23.597656 92.246094 23.242188 C 92.203125 22.734375 92.175781 22.222656 92.152344 21.710938 C 92.109375 21.3125 92.152344 20.902344 92.273438 20.519531 C 92.40625 20.21875 92.582031 19.941406 92.792969 19.6875 C 92.980469 19.402344 93.203125 19.148438 93.460938 18.929688 C 93.855469 18.65625 94.316406 18.488281 94.796875 18.441406 C 95.5 18.316406 96.210938 18.257812 96.921875 18.273438 C 97.554688 18.230469 98.179688 18.382812 98.714844 18.714844 Z M 98.714844 18.71875 "/>
<path style=" stroke:none;fill-rule:nonzero;fill:rgb(40.784314%,88.235294%,99.215686%);fill-opacity:1;" d="M 101.644531 32.726562 C 102.183594 34.390625 102.167969 36.191406 102.136719 37.949219 C 102.140625 38.601562 102.09375 39.246094 101.992188 39.890625 C 101.910156 40.429688 101.699219 40.941406 101.382812 41.386719 C 101.058594 41.835938 100.558594 42.125 100.007812 42.183594 C 99.78125 42.199219 99.558594 42.152344 99.363281 42.046875 C 98.859375 41.753906 98.785156 41.070312 98.761719 40.488281 L 98.523438 33.644531 C 98.484375 32.597656 96.578125 29.683594 96.761719 28.65625 C 96.960938 27.535156 99.46875 29.511719 100.066406 30.105469 C 100.792969 30.839844 101.332031 31.742188 101.640625 32.730469 Z M 101.644531 32.726562 "/>
<path style=" stroke:none;fill-rule:nonzero;fill:rgb(24.313725%,24.313725%,32.941176%);fill-opacity:1;" d="M 101.421875 34.929688 C 101.421875 34.773438 101.421875 34.585938 101.285156 34.511719 C 101.199219 34.480469 101.097656 34.488281 101.023438 34.546875 C 100.851562 34.707031 100.757812 34.933594 100.769531 35.167969 C 100.726562 35.664062 100.675781 36.160156 100.625 36.65625 C 100.601562 36.949219 100.433594 37.460938 100.875 37.386719 C 101.519531 37.277344 101.382812 35.410156 101.417969 34.929688 Z M 101.421875 34.929688 "/>
<path style=" stroke:none;fill-rule:nonzero;fill:rgb(100%,70.588235%,63.921569%);fill-opacity:1;" d="M 100.269531 36.609375 C 99.832031 36.660156 99.4375 36.90625 99.207031 37.285156 C 99.191406 37.3125 99.179688 37.339844 99.171875 37.367188 C 99.171875 37.402344 99.179688 37.445312 99.207031 37.476562 C 99.34375 37.644531 99.550781 37.746094 99.769531 37.753906 C 100.242188 37.832031 100.726562 37.863281 101.203125 37.851562 C 101.304688 37.859375 101.402344 37.835938 101.488281 37.785156 C 101.5625 37.714844 101.613281 37.628906 101.632812 37.527344 C 101.722656 37.230469 101.902344 36.648438 101.515625 36.5625 C 101.3125 36.5625 101.109375 36.585938 100.910156 36.613281 C 100.699219 36.597656 100.484375 36.59375 100.273438 36.601562 Z M 100.269531 36.609375 "/>
<path style=" stroke:none;fill-rule:nonzero;fill:rgb(40.784314%,88.235294%,99.215686%);fill-opacity:1;" d="M 84.894531 34.277344 C 84.1875 35.195312 83.441406 36.253906 83.621094 37.394531 C 83.773438 38.0625 84.125 38.671875 84.632812 39.132812 C 86.21875 40.757812 88.417969 41.585938 90.546875 42.367188 C 90.632812 42.414062 90.734375 42.429688 90.835938 42.410156 C 90.921875 42.382812 90.996094 42.332031 91.046875 42.261719 C 91.738281 41.453125 91.238281 40.183594 90.488281 39.414062 C 89.734375 38.644531 88.738281 38.105469 88.253906 37.160156 C 88.199219 37.074219 88.171875 36.972656 88.179688 36.871094 C 88.214844 36.757812 88.285156 36.660156 88.378906 36.585938 C 89.5625 35.507812 90.652344 34.199219 90.953125 32.628906 C 91.148438 31.605469 90.566406 28.261719 88.933594 29.191406 C 88.148438 29.636719 87.519531 30.878906 86.976562 31.585938 L 84.898438 34.277344 Z M 84.894531 34.277344 "/>
<path style=" stroke:none;fill-rule:nonzero;fill:rgb(24.313725%,24.313725%,32.941176%);fill-opacity:1;" d="M 88.164062 47.253906 L 90.34375 71.511719 L 87.503906 73.074219 L 92.910156 72.796875 L 93.546875 52.425781 L 95.75 52.328125 L 97.5 72.988281 L 103.097656 73.355469 L 100.15625 71.246094 L 100.308594 45.886719 L 88.839844 45.855469 C 88.164062 45.863281 88.105469 46.570312 88.164062 47.253906 Z M 88.164062 47.253906 "/>
<path style=" stroke:none;fill-rule:nonzero;fill:rgb(100%,100%,100%);fill-opacity:1;" d="M 95.292969 37.800781 C 95.457031 37.304688 95.976562 37.011719 96.488281 37.128906 C 98.578125 37.128906 100.667969 37.214844 102.757812 37.382812 C 103.03125 37.371094 103.296875 37.464844 103.5 37.644531 C 103.675781 37.953125 103.6875 38.332031 103.519531 38.648438 C 102.621094 41.132812 101.554688 43.554688 100.324219 45.890625 C 100.28125 45.984375 100.230469 46.070312 100.15625 46.144531 C 99.976562 46.285156 99.75 46.351562 99.519531 46.332031 C 97.0625 46.421875 94.605469 46.363281 92.152344 46.148438 C 92.011719 46.148438 91.839844 46.105469 91.78125 45.976562 C 91.648438 45.660156 92.324219 44.726562 92.457031 44.375 C 92.730469 43.652344 92.988281 42.921875 93.289062 42.199219 C 93.875 40.707031 94.554688 39.234375 95.292969 37.800781 Z M 95.292969 37.800781 "/>
<path style=" stroke:none;fill-rule:nonzero;fill:rgb(100%,70.588235%,63.921569%);fill-opacity:1;" d="M 92.535156 40.203125 C 92.867188 40.128906 93.304688 40.128906 93.433594 40.441406 C 93.511719 40.628906 93.457031 40.890625 93.625 41.003906 C 93.691406 41.042969 93.769531 41.054688 93.84375 41.046875 C 94.109375 41.046875 94.371094 40.988281 94.632812 40.996094 C 94.902344 40.988281 95.15625 41.113281 95.308594 41.332031 C 95.425781 41.605469 95.394531 41.917969 95.234375 42.167969 C 95.113281 42.410156 94.953125 42.640625 94.765625 42.839844 C 94.617188 43.003906 94.441406 43.132812 94.246094 43.226562 C 94.0625 43.300781 93.867188 43.347656 93.671875 43.351562 C 92.839844 43.421875 92.011719 43.246094 91.28125 42.84375 C 90.859375 42.644531 90.523438 42.300781 90.339844 41.871094 C 89.878906 40.5625 91.703125 40.371094 92.527344 40.203125 Z M 92.535156 40.203125 "/>
<path style=" stroke:none;fill-rule:nonzero;fill:rgb(40.784314%,88.235294%,99.215686%);fill-opacity:1;" d="M 20.949219 125.085938 C 20.949219 125.085938 32.097656 121.851562 30.894531 111.308594 C 29.695312 100.765625 32.375 81.375 38.644531 81.789062 C 44.914062 82.207031 76.304688 81.789062 76.304688 81.789062 L 76.304688 105.789062 L 55.699219 105.789062 C 55.699219 105.789062 57.136719 113.816406 53.421875 119.449219 C 49.703125 125.082031 47.789062 124.242188 47.789062 124.242188 Z M 20.949219 125.085938 "/>
<path style=" stroke:none;fill-rule:nonzero;fill:url(#linear2);" d="M 20.949219 125.085938 C 20.949219 125.085938 32.097656 121.851562 30.894531 111.308594 C 29.695312 100.765625 32.375 81.375 38.644531 81.789062 C 44.914062 82.207031 76.304688 81.789062 76.304688 81.789062 L 76.304688 105.789062 L 55.699219 105.789062 C 55.699219 105.789062 57.136719 113.816406 53.421875 119.449219 C 49.703125 125.082031 47.789062 124.242188 47.789062 124.242188 Z M 20.949219 125.085938 "/>
<path style=" stroke:none;fill-rule:nonzero;fill:rgb(40.784314%,88.235294%,99.215686%);fill-opacity:1;" d="M 68.160156 73.207031 L 117.988281 73.207031 C 117.988281 73.207031 123.496094 74.523438 124.09375 81.832031 L 124.09375 147.128906 L 87.070312 147.726562 C 86.71875 147.753906 86.359375 147.761719 86.007812 147.746094 C 79.894531 147.5 75.070312 142.460938 75.09375 136.34375 L 75.09375 79.914062 C 75.09375 79.914062 74.386719 74.042969 68.15625 73.203125 Z M 68.160156 73.207031 "/>
<path style=" stroke:none;fill-rule:nonzero;fill:url(#linear3);" d="M 68.160156 73.207031 L 117.988281 73.207031 C 117.988281 73.207031 123.496094 74.523438 124.09375 81.832031 L 124.09375 147.128906 L 87.070312 147.726562 C 86.640625 147.761719 86.203125 147.761719 85.773438 147.726562 C 79.757812 147.371094 75.070312 142.375 75.09375 136.347656 L 75.09375 79.914062 C 75.09375 79.914062 74.386719 74.042969 68.15625 73.203125 Z M 68.160156 73.207031 "/>
<path style=" stroke:none;fill-rule:nonzero;fill:url(#linear4);" d="M 75.460938 138.917969 C 75.722656 140.425781 77.71875 145.722656 82.71875 147.03125 C 85.019531 147.636719 87.707031 148.222656 89.910156 147.320312 C 90.570312 147.070312 91.171875 146.6875 91.671875 146.191406 C 92.863281 144.855469 92.890625 142.835938 91.730469 141.46875 C 91.242188 140.976562 90.679688 140.570312 90.070312 140.25 C 88.296875 139.214844 86.136719 137.519531 84.003906 137.46875 C 81.871094 137.417969 77.476562 138.21875 75.457031 138.921875 Z M 75.460938 138.917969 "/>
<path style=" stroke:none;fill-rule:nonzero;fill:url(#linear5);" d="M 89.367188 131.714844 C 89.367188 131.714844 83.664062 131.152344 83.605469 138.886719 C 83.546875 146.625 88.726562 145.121094 88.726562 145.121094 L 89.824219 145.0625 C 89.824219 145.0625 96.714844 140.304688 92.996094 135.058594 C 92.996094 135.042969 91.46875 131.980469 89.367188 131.714844 Z M 89.367188 131.714844 "/>
<path style=" stroke:none;fill-rule:nonzero;fill:url(#linear6);" d="M 89.976562 132.8125 C 89.976562 132.8125 84.847656 132.292969 84.792969 139.265625 C 84.738281 146.242188 89.402344 144.871094 89.402344 144.871094 L 90.390625 144.816406 C 90.390625 144.816406 96.589844 140.535156 93.246094 135.808594 C 93.246094 135.789062 91.867188 133.035156 89.976562 132.8125 Z M 89.976562 132.8125 "/>
<path style=" stroke:none;fill-rule:nonzero;fill:rgb(40.784314%,88.235294%,99.215686%);fill-opacity:1;" d="M 89.367188 131.714844 L 137.945312 131.714844 C 137.945312 131.714844 141.496094 132.992188 141.140625 138.867188 C 140.785156 144.742188 134.550781 147.730469 134.550781 147.730469 L 87.089844 147.730469 C 87.089844 147.730469 91.886719 144.914062 91.945312 139.414062 C 92.007812 133.914062 89.367188 131.710938 89.367188 131.710938 Z M 89.367188 131.714844 "/>
<path style=" stroke:none;fill-rule:nonzero;fill:url(#linear7);" d="M 89.367188 131.714844 L 137.945312 131.714844 C 137.945312 131.714844 141.496094 132.992188 141.140625 138.867188 C 140.785156 144.742188 134.550781 147.730469 134.550781 147.730469 L 87.089844 147.730469 C 87.089844 147.730469 91.886719 144.914062 91.945312 139.414062 C 92.007812 133.914062 89.367188 131.710938 89.367188 131.710938 Z M 89.367188 131.714844 "/>
<path style=" stroke:none;fill-rule:nonzero;fill:rgb(40.784314%,88.235294%,99.215686%);fill-opacity:1;" d="M 38.648438 81.792969 C 38.648438 81.792969 42.082031 82.113281 41.761719 87.464844 C 41.441406 92.816406 40.964844 106.078125 47.355469 106.078125 C 53.746094 106.078125 58.0625 105.035156 58.296875 101.359375 C 58.535156 97.683594 58.710938 81.554688 58.710938 81.554688 Z M 38.648438 81.792969 "/>
<path style=" stroke:none;fill-rule:nonzero;fill:rgb(40.784314%,88.235294%,99.215686%);fill-opacity:1;" d="M 68.160156 73.207031 C 68.160156 73.207031 59.429688 72.925781 58.695312 81.550781 C 57.960938 90.179688 58.28125 101.355469 58.28125 101.355469 C 58.28125 101.355469 57.003906 105.929688 50.292969 106.152344 L 75.167969 106.152344 L 75.128906 79.914062 C 75.128906 79.914062 74.230469 73.882812 68.164062 73.203125 Z M 68.160156 73.207031 "/>
<path style=" stroke:none;fill-rule:nonzero;fill:url(#linear8);" d="M 68.160156 73.207031 C 68.160156 73.207031 59.429688 72.925781 58.695312 81.550781 C 57.960938 90.179688 58.28125 101.355469 58.28125 101.355469 C 58.28125 101.355469 57.003906 105.929688 50.292969 106.152344 L 75.167969 106.152344 L 75.128906 79.914062 C 75.128906 79.914062 74.230469 73.882812 68.164062 73.203125 Z M 68.160156 73.207031 "/>
<path style=" stroke:none;fill-rule:nonzero;fill:url(#linear9);" d="M 86.492188 80.996094 L 117.644531 80.996094 C 118.304688 80.996094 118.839844 81.53125 118.839844 82.191406 C 118.839844 82.851562 118.304688 83.386719 117.644531 83.386719 L 86.492188 83.386719 C 85.832031 83.386719 85.296875 82.851562 85.296875 82.191406 C 85.296875 81.53125 85.832031 80.996094 86.492188 80.996094 Z M 86.492188 80.996094 "/>
<path style=" stroke:none;fill-rule:nonzero;fill:url(#linear10);" d="M 86.492188 86.265625 L 117.644531 86.265625 C 118.304688 86.265625 118.839844 86.800781 118.839844 87.460938 C 118.839844 88.121094 118.304688 88.660156 117.644531 88.660156 L 86.492188 88.660156 C 85.832031 88.660156 85.296875 88.121094 85.296875 87.460938 C 85.296875 86.800781 85.832031 86.265625 86.492188 86.265625 Z M 86.492188 86.265625 "/>
<path style=" stroke:none;fill-rule:nonzero;fill:url(#linear11);" d="M 86.492188 91.539062 L 117.644531 91.539062 C 118.304688 91.539062 118.839844 92.074219 118.839844 92.734375 C 118.839844 93.394531 118.304688 93.933594 117.644531 93.933594 L 86.492188 93.933594 C 85.832031 93.933594 85.296875 93.394531 85.296875 92.734375 C 85.296875 92.074219 85.832031 91.539062 86.492188 91.539062 Z M 86.492188 91.539062 "/>
<path style=" stroke:none;fill-rule:nonzero;fill:url(#linear12);" d="M 86.492188 96.808594 L 117.644531 96.808594 C 118.304688 96.808594 118.839844 97.34375 118.839844 98.003906 C 118.839844 98.664062 118.304688 99.203125 117.644531 99.203125 L 86.492188 99.203125 C 85.832031 99.203125 85.296875 98.664062 85.296875 98.003906 C 85.296875 97.34375 85.832031 96.808594 86.492188 96.808594 Z M 86.492188 96.808594 "/>
<path style=" stroke:none;fill-rule:nonzero;fill:url(#linear13);" d="M 86.492188 102.082031 L 117.644531 102.082031 C 118.304688 102.082031 118.839844 102.617188 118.839844 103.277344 C 118.839844 103.9375 118.304688 104.476562 117.644531 104.476562 L 86.492188 104.476562 C 85.832031 104.476562 85.296875 103.9375 85.296875 103.277344 C 85.296875 102.617188 85.832031 102.082031 86.492188 102.082031 Z M 86.492188 102.082031 "/>
<path style=" stroke:none;fill-rule:nonzero;fill:url(#linear14);" d="M 86.492188 107.351562 L 117.644531 107.351562 C 118.304688 107.351562 118.839844 107.890625 118.839844 108.546875 C 118.839844 109.207031 118.304688 109.746094 117.644531 109.746094 L 86.492188 109.746094 C 85.832031 109.746094 85.296875 109.207031 85.296875 108.546875 C 85.296875 107.890625 85.832031 107.351562 86.492188 107.351562 Z M 86.492188 107.351562 "/>
<path style=" stroke:none;fill-rule:nonzero;fill:url(#linear15);" d="M 86.492188 112.625 L 117.644531 112.625 C 118.304688 112.625 118.839844 113.164062 118.839844 113.820312 C 118.839844 114.480469 118.304688 115.019531 117.644531 115.019531 L 86.492188 115.019531 C 85.832031 115.019531 85.296875 114.480469 85.296875 113.820312 C 85.296875 113.164062 85.832031 112.625 86.492188 112.625 Z M 86.492188 112.625 "/>
<path style=" stroke:none;fill-rule:nonzero;fill:url(#linear16);" d="M 88.570312 117.976562 L 92.246094 117.976562 L 92.246094 128.839844 L 88.570312 128.839844 Z M 88.570312 117.976562 "/>
<path style=" stroke:none;fill-rule:nonzero;fill:url(#linear17);" d="M 93.683594 121.292969 L 97.359375 121.292969 L 97.359375 128.835938 L 93.683594 128.835938 Z M 93.683594 121.292969 "/>
<path style=" stroke:none;fill-rule:nonzero;fill:url(#linear18);" d="M 103.664062 118.449219 L 107.339844 118.449219 L 107.339844 128.839844 L 103.664062 128.839844 Z M 103.664062 118.449219 "/>
<path style=" stroke:none;fill-rule:nonzero;fill:url(#linear19);" d="M 98.714844 124.046875 L 102.390625 124.046875 L 102.390625 128.839844 L 98.714844 128.839844 Z M 98.714844 124.046875 "/>
<path style=" stroke:none;fill-rule:nonzero;fill:url(#linear20);" d="M 111.171875 120.585938 L 115.484375 120.585938 L 115.484375 128.914062 L 111.171875 128.914062 Z M 111.171875 120.585938 "/>
<path style=" stroke:none;fill-rule:nonzero;fill:url(#linear21);" d="M 115.492188 120.609375 L 119.800781 120.609375 L 119.800781 128.925781 L 115.492188 128.925781 Z M 115.492188 120.609375 "/>
<path style=" stroke:none;fill-rule:nonzero;fill:url(#linear22);" d="M 111.171875 118.296875 L 119.800781 118.296875 L 119.800781 120.535156 L 111.171875 120.535156 Z M 111.171875 118.296875 "/>
</g>
</svg>
