<?xml version="1.0" encoding="UTF-8"?>
<svg xmlns="http://www.w3.org/2000/svg" xmlns:xlink="http://www.w3.org/1999/xlink" width="170px" height="200px" viewBox="0 0 170 170" version="1.1">
<defs>
<filter id="alpha" filterUnits="objectBoundingBox" x="0%" y="0%" width="100%" height="100%">
  <feColorMatrix type="matrix" in="SourceGraphic" values="0 0 0 0 1 0 0 0 0 1 0 0 0 0 1 0 0 0 1 0"/>
</filter>
<mask id="mask0">
  <g filter="url(#alpha)">
<rect x="0" y="0" width="170" height="170" style="fill:rgb(0%,0%,0%);fill-opacity:0.180392;stroke:none;"/>
  </g>
</mask>
<clipPath id="clip1">
  <rect x="0" y="0" width="170" height="170"/>
</clipPath>
<g id="surface5" clip-path="url(#clip1)">
<path style=" stroke:none;fill-rule:nonzero;fill:rgb(40.784314%,88.235294%,99.215686%);fill-opacity:1;" d="M 166.828125 108.960938 C 163.820312 114.632812 158.363281 119.0625 156.851562 125.308594 C 156.199219 128 156.347656 130.839844 156.015625 133.582031 C 154.828125 143.242188 147.585938 151.292969 138.953125 155.855469 C 138.589844 156.054688 138.222656 156.25 137.859375 156.417969 C 132.191406 159.179688 126.054688 160.691406 119.796875 161.636719 C 115.992188 162.199219 112.140625 162.5625 108.335938 162.863281 C 92.453125 164.117188 76.542969 164.574219 60.613281 164.234375 C 52.917969 164.078125 45.066406 163.714844 37.832031 161.15625 C 37.460938 161.03125 37.09375 160.890625 36.726562 160.761719 C 30.855469 158.484375 25.640625 154.738281 21.027344 150.449219 L 20.8125 150.253906 C 13.929688 143.820312 8.234375 136.03125 4.558594 127.375 C -0.691406 114.984375 -1.601562 101.1875 1.972656 88.214844 C 4.148438 80.503906 7.949219 73.148438 8.539062 65.160156 C 8.980469 59.15625 7.566406 53.070312 8.507812 47.125 C 10.355469 35.300781 21.332031 26.609375 32.921875 23.699219 C 44.511719 20.789062 56.707031 22.421875 68.546875 24.09375 C 74.328125 24.917969 81.097656 27.121094 86.820312 25.355469 C 93.855469 23.191406 99.769531 20.496094 107.363281 20.476562 C 110.460938 20.476562 113.613281 20.800781 116.449219 22.058594 C 119.886719 23.5625 122.613281 26.285156 125.40625 28.773438 C 133.203125 35.757812 142.089844 41.414062 150.054688 48.210938 C 158.023438 55.007812 165.242188 63.261719 168.175781 73.308594 C 169.609375 78.21875 169.960938 83.382812 170.117188 88.496094 C 170.332031 95.480469 170.109375 102.78125 166.828125 108.953125 Z M 166.828125 108.960938 "/>
</g>
<linearGradient id="linear0" gradientUnits="userSpaceOnUse" x1="791.43" y1="2507.7" x2="836.77" y2="2445.02" gradientTransform="matrix(0.34,0,0,-0.34,-166.6204,938.1756)">
<stop offset="0.02" style="stop-color:rgb(100%,100%,100%);stop-opacity:0;"/>
<stop offset="0.32" style="stop-color:rgb(100%,100%,100%);stop-opacity:0.388235;"/>
<stop offset="0.68" style="stop-color:rgb(100%,100%,100%);stop-opacity:0.678431;"/>
<stop offset="1" style="stop-color:rgb(100%,100%,100%);stop-opacity:1;"/>
</linearGradient>
<linearGradient id="linear1" gradientUnits="userSpaceOnUse" x1="650.01" y1="2401.47" x2="540.14" y2="2427.64" gradientTransform="matrix(0.34,0,0,-0.34,-166.6204,938.1756)">
<stop offset="0" style="stop-color:rgb(13.72549%,12.156863%,12.54902%);stop-opacity:0;"/>
<stop offset="1" style="stop-color:rgb(13.72549%,12.156863%,12.54902%);stop-opacity:1;"/>
</linearGradient>
<linearGradient id="linear2" gradientUnits="userSpaceOnUse" x1="749.93" y1="2409.38" x2="822.38" y2="2409.38" gradientTransform="matrix(0.34,0,0,-0.34,-166.6204,938.1756)">
<stop offset="0" style="stop-color:rgb(13.72549%,12.156863%,12.54902%);stop-opacity:0;"/>
<stop offset="1" style="stop-color:rgb(13.72549%,12.156863%,12.54902%);stop-opacity:1;"/>
</linearGradient>
<linearGradient id="linear3" gradientUnits="userSpaceOnUse" x1="869.36" y1="2885.65" x2="844.47" y2="2431.11" gradientTransform="matrix(0.34,0,0,-0.34,-160.14,938.4646)">
<stop offset="0.02" style="stop-color:rgb(100%,100%,100%);stop-opacity:0;"/>
<stop offset="0.14" style="stop-color:rgb(100%,100%,100%);stop-opacity:0.0588235;"/>
<stop offset="0.32" style="stop-color:rgb(100%,100%,100%);stop-opacity:0.388235;"/>
<stop offset="0.68" style="stop-color:rgb(100%,100%,100%);stop-opacity:0.678431;"/>
<stop offset="1" style="stop-color:rgb(100%,100%,100%);stop-opacity:1;"/>
</linearGradient>
<linearGradient id="linear4" gradientUnits="userSpaceOnUse" x1="944.44" y1="2882.06" x2="919.57" y2="2427.52" gradientTransform="matrix(0.34,0,0,-0.34,-160.14,938.4646)">
<stop offset="0.02" style="stop-color:rgb(100%,100%,100%);stop-opacity:0;"/>
<stop offset="0.32" style="stop-color:rgb(100%,100%,100%);stop-opacity:0.388235;"/>
<stop offset="0.68" style="stop-color:rgb(100%,100%,100%);stop-opacity:0.678431;"/>
<stop offset="1" style="stop-color:rgb(100%,100%,100%);stop-opacity:1;"/>
</linearGradient>
<linearGradient id="linear5" gradientUnits="userSpaceOnUse" x1="590.88" y1="2946.73" x2="566" y2="2492.18" gradientTransform="matrix(0.34,0,0,-0.34,-160.14,938.4646)">
<stop offset="0.02" style="stop-color:rgb(100%,100%,100%);stop-opacity:0;"/>
<stop offset="0.32" style="stop-color:rgb(100%,100%,100%);stop-opacity:0.388235;"/>
<stop offset="0.68" style="stop-color:rgb(100%,100%,100%);stop-opacity:0.678431;"/>
<stop offset="1" style="stop-color:rgb(100%,100%,100%);stop-opacity:1;"/>
</linearGradient>
<linearGradient id="linear6" gradientUnits="userSpaceOnUse" x1="565.88" y1="2817.44" x2="541.01" y2="2362.9" gradientTransform="matrix(0.34,0,0,-0.34,-160.14,938.4646)">
<stop offset="0.02" style="stop-color:rgb(100%,100%,100%);stop-opacity:0;"/>
<stop offset="0.32" style="stop-color:rgb(100%,100%,100%);stop-opacity:0.388235;"/>
<stop offset="0.68" style="stop-color:rgb(100%,100%,100%);stop-opacity:0.678431;"/>
<stop offset="1" style="stop-color:rgb(100%,100%,100%);stop-opacity:1;"/>
</linearGradient>
</defs>
<g id="surface1">
<use xlink:href="#surface5" mask="url(#mask0)"/>
<path style=" stroke:none;fill-rule:nonzero;fill:rgb(40.784314%,88.235294%,99.215686%);fill-opacity:1;" d="M 45.714844 67.015625 L 126.507812 67.015625 C 129.976562 67.015625 132.789062 69.828125 132.789062 73.296875 L 132.789062 127.222656 C 132.789062 130.695312 129.976562 133.507812 126.507812 133.507812 L 45.714844 133.507812 C 42.242188 133.507812 39.429688 130.695312 39.429688 127.222656 L 39.429688 73.296875 C 39.429688 69.828125 42.242188 67.015625 45.714844 67.015625 Z M 45.714844 67.015625 "/>
<path style=" stroke:none;fill-rule:nonzero;fill:rgb(100%,100%,100%);fill-opacity:1;" d="M 45.128906 71.765625 L 127.09375 71.765625 L 127.09375 127.40625 L 45.128906 127.40625 Z M 45.128906 71.765625 "/>
<path style=" stroke:none;fill-rule:nonzero;fill:rgb(40.784314%,88.235294%,99.215686%);fill-opacity:1;" d="M 55.171875 81.851562 L 57.613281 81.851562 L 57.613281 104.195312 L 55.171875 104.195312 Z M 55.171875 81.851562 "/>
<path style=" stroke:none;fill-rule:nonzero;fill:rgb(40.784314%,88.235294%,99.215686%);fill-opacity:1;" d="M 59.421875 85.507812 L 61.863281 85.507812 L 61.863281 104.195312 L 59.421875 104.195312 Z M 59.421875 85.507812 "/>
<path style=" stroke:none;fill-rule:nonzero;fill:rgb(40.784314%,88.235294%,99.215686%);fill-opacity:1;" d="M 63.582031 88.84375 L 66.023438 88.84375 L 66.023438 104.195312 L 63.582031 104.195312 Z M 63.582031 88.84375 "/>
<path style=" stroke:none;fill-rule:nonzero;fill:rgb(40.784314%,88.235294%,99.215686%);fill-opacity:1;" d="M 67.832031 85.507812 L 70.273438 85.507812 L 70.273438 104.195312 L 67.832031 104.195312 Z M 67.832031 85.507812 "/>
<path style=" stroke:none;fill-rule:nonzero;fill:rgb(40.784314%,88.235294%,99.215686%);fill-opacity:1;" d="M 72 93.019531 L 74.441406 93.019531 L 74.441406 104.191406 L 72 104.191406 Z M 72 93.019531 "/>
<path style=" stroke:none;fill-rule:nonzero;fill:rgb(40.784314%,88.235294%,99.215686%);fill-opacity:1;" d="M 76.25 85.507812 L 78.691406 85.507812 L 78.691406 104.195312 L 76.25 104.195312 Z M 76.25 85.507812 "/>
<path style=" stroke:none;fill-rule:nonzero;fill:rgb(40.784314%,88.235294%,99.215686%);fill-opacity:1;" d="M 80.410156 91.117188 L 82.851562 91.117188 L 82.851562 104.195312 L 80.410156 104.195312 Z M 80.410156 91.117188 "/>
<path style=" stroke:none;fill-rule:nonzero;fill:rgb(40.784314%,88.235294%,99.215686%);fill-opacity:1;" d="M 84.660156 88.601562 L 87.101562 88.601562 L 87.101562 104.199219 L 84.660156 104.199219 Z M 84.660156 88.601562 "/>
<path style=" stroke:none;fill-rule:nonzero;fill:rgb(40.784314%,88.235294%,99.215686%);fill-opacity:1;" d="M 54.085938 111.253906 L 68.066406 111.253906 L 68.066406 112.066406 L 54.085938 112.066406 Z M 54.085938 111.253906 "/>
<path style=" stroke:none;fill-rule:nonzero;fill:rgb(40.784314%,88.235294%,99.215686%);fill-opacity:1;" d="M 54.085938 113.515625 L 68.066406 113.515625 L 68.066406 114.328125 L 54.085938 114.328125 Z M 54.085938 113.515625 "/>
<path style=" stroke:none;fill-rule:nonzero;fill:rgb(40.784314%,88.235294%,99.215686%);fill-opacity:1;" d="M 54.085938 115.773438 L 68.066406 115.773438 L 68.066406 116.585938 L 54.085938 116.585938 Z M 54.085938 115.773438 "/>
<path style=" stroke:none;fill-rule:nonzero;fill:rgb(40.784314%,88.235294%,99.215686%);fill-opacity:1;" d="M 54.085938 118.039062 L 68.066406 118.039062 L 68.066406 118.851562 L 54.085938 118.851562 Z M 54.085938 118.039062 "/>
<path style=" stroke:none;fill-rule:nonzero;fill:rgb(40.784314%,88.235294%,99.215686%);fill-opacity:1;" d="M 54.085938 120.296875 L 68.066406 120.296875 L 68.066406 121.113281 L 54.085938 121.113281 Z M 54.085938 120.296875 "/>
<path style=" stroke:none;fill-rule:nonzero;fill:rgb(40.784314%,88.235294%,99.215686%);fill-opacity:1;" d="M 104.363281 80.382812 C 99.34375 80.371094 95.265625 84.421875 95.246094 89.441406 C 95.234375 94.457031 99.285156 98.539062 104.304688 98.554688 L 104.304688 95.394531 L 104.269531 95.394531 C 100.949219 95.394531 98.253906 92.703125 98.25 89.378906 C 98.25 86.058594 100.9375 83.359375 104.265625 83.359375 C 107.585938 83.359375 110.28125 86.046875 110.285156 89.371094 C 110.285156 89.664062 110.265625 89.953125 110.222656 90.234375 L 113.417969 90.234375 C 113.441406 89.972656 113.453125 89.714844 113.453125 89.464844 C 113.453125 84.445312 109.382812 80.375 104.363281 80.375 L 104.359375 80.375 Z M 104.363281 80.382812 "/>
<path style=" stroke:none;fill-rule:nonzero;fill:rgb(40.784314%,88.235294%,99.215686%);fill-opacity:1;" d="M 113.421875 90.246094 C 113.023438 94.953125 109.085938 98.566406 104.367188 98.566406 L 104.3125 98.566406 L 104.3125 95.402344 C 107.292969 95.390625 109.8125 93.199219 110.238281 90.25 L 113.425781 90.25 Z M 113.421875 90.246094 "/>
<path style=" stroke:none;fill-rule:nonzero;fill:url(#linear0);" d="M 113.421875 90.246094 C 113.023438 94.953125 109.085938 98.566406 104.367188 98.566406 L 104.3125 98.566406 L 104.3125 95.402344 C 107.292969 95.390625 109.8125 93.199219 110.238281 90.25 L 113.425781 90.25 Z M 113.421875 90.246094 "/>
<path style=" stroke:none;fill-rule:nonzero;fill:url(#linear1);" d="M 44.417969 107.195312 C 43.457031 107.882812 42.183594 107.984375 41.175781 108.582031 C 40.222656 109.242188 39.5 110.191406 39.125 111.289062 C 38.183594 113.609375 38.046875 116.167969 38.054688 118.671875 C 38.054688 121.3125 38.015625 124.257812 38.625 126.839844 C 38.789062 127.550781 39.894531 130.675781 40.96875 130.554688 C 41.648438 130.480469 42.234375 117.957031 42.488281 116.335938 C 42.738281 114.710938 43.023438 113.171875 43.359375 111.59375 C 43.53125 110.8125 43.792969 107.648438 44.414062 107.199219 Z M 44.417969 107.195312 "/>
<path style=" stroke:none;fill-rule:nonzero;fill:url(#linear2);" d="M 98.84375 128.957031 C 98.898438 127.773438 99.144531 126.394531 98.328125 125.527344 C 97.921875 125.179688 97.460938 124.890625 96.964844 124.683594 C 95.285156 123.757812 94.160156 122.074219 93.941406 120.167969 C 93.839844 119.164062 94 118.144531 93.941406 117.125 C 93.851562 115.054688 92.902344 113.121094 91.800781 111.363281 C 90.699219 109.605469 89.429688 107.949219 88.535156 106.074219 C 88.347656 105.679688 88.222656 105.121094 88.582031 104.886719 C 88.945312 104.652344 89.429688 104.980469 89.746094 105.28125 C 93.171875 108.800781 96.964844 112.054688 101.308594 114.308594 C 102.652344 115.007812 104.058594 115.605469 105.300781 116.46875 C 107.371094 117.910156 108.914062 120.027344 110.039062 122.269531 C 111.167969 124.515625 111.894531 126.960938 112.625 129.382812 C 112.894531 130.269531 113.160156 131.234375 112.847656 132.101562 C 112.765625 132.367188 112.589844 132.601562 112.355469 132.757812 C 112.128906 132.863281 111.878906 132.917969 111.628906 132.914062 C 108.46875 133.085938 105.28125 133.089844 102.097656 133.128906 C 101.308594 133.128906 100.371094 133.316406 99.730469 132.761719 C 98.820312 131.953125 98.792969 130.03125 98.84375 128.957031 Z M 98.84375 128.957031 "/>
<path style=" stroke:none;fill-rule:nonzero;fill:rgb(100%,70.588235%,63.921569%);fill-opacity:1;" d="M 43.289062 102.910156 C 43.84375 102.589844 44.5 102.476562 45.128906 102.589844 C 45.851562 102.859375 46.347656 103.53125 46.394531 104.300781 C 46.425781 105.050781 46.265625 105.792969 45.914062 106.457031 C 44.761719 108.96875 42.679688 110.953125 41.398438 113.398438 C 40.597656 114.921875 40.125 116.59375 40 118.304688 C 39.875 120.089844 39.933594 122.257812 38.386719 123.167969 C 37.289062 123.796875 35.816406 123.367188 34.921875 122.46875 C 34.027344 121.566406 33.597656 120.316406 33.304688 119.085938 C 31.679688 112.152344 33.265625 104.859375 37.621094 99.230469 C 37.957031 98.796875 38.527344 98.34375 38.984375 98.648438 C 39.226562 98.867188 39.359375 99.179688 39.347656 99.507812 C 39.445312 100.449219 38.984375 103.894531 39.792969 104.507812 C 40.679688 105.160156 42.324219 103.363281 43.289062 102.90625 Z M 43.289062 102.910156 "/>
<path style=" stroke:none;fill-rule:nonzero;fill:rgb(40.784314%,88.235294%,99.215686%);fill-opacity:1;" d="M 38.15625 158.335938 L 38.820312 153 C 38.484375 155.6875 38.15625 158.371094 37.820312 161.066406 L 37.820312 161.164062 C 37.449219 161.039062 37.082031 160.898438 36.714844 160.769531 C 30.84375 158.492188 25.628906 154.746094 21.015625 150.457031 L 20.800781 150.257812 C 21.78125 146.238281 22.902344 142.242188 24.023438 138.265625 C 25.796875 131.976562 27.1875 124.761719 31.40625 119.785156 C 32.089844 118.996094 33.382812 119.230469 34.378906 119.589844 C 35.375 119.945312 36.453125 120.378906 37.476562 120.773438 C 38.132812 120.984375 38.71875 121.375 39.164062 121.902344 C 39.585938 122.496094 39.632812 123.265625 39.660156 123.996094 C 40.121094 135.464844 39.617188 146.953125 38.152344 158.335938 Z M 38.15625 158.335938 "/>
<path style=" stroke:none;fill-rule:nonzero;fill:rgb(40.784314%,88.235294%,99.215686%);fill-opacity:1;" d="M 138.953125 155.859375 C 138.589844 156.054688 138.222656 156.253906 137.859375 156.421875 C 132.191406 159.183594 126.054688 160.695312 119.796875 161.640625 C 116.414062 154.386719 112.871094 146.753906 108.164062 140.347656 C 106.582031 138.199219 104.972656 136.347656 103.992188 133.820312 C 103.257812 131.933594 102.203125 129.476562 102.015625 127.472656 C 101.839844 125.328125 103.398438 124.234375 104.949219 122.980469 C 108.449219 120.152344 112.511719 118.09375 116.867188 116.941406 C 117.242188 116.796875 117.652344 116.785156 118.035156 116.914062 C 118.359375 117.113281 118.617188 117.40625 118.765625 117.757812 L 130.941406 140 C 133.628906 144.910156 136.328125 149.832031 138.570312 154.964844 C 138.695312 155.269531 138.84375 155.558594 138.953125 155.863281 Z M 138.953125 155.859375 "/>
<path style=" stroke:none;fill-rule:nonzero;fill:rgb(100%,70.588235%,63.921569%);fill-opacity:1;" d="M 96.84375 121.453125 C 95.902344 119.796875 96.539062 117.726562 96.425781 115.824219 C 96.238281 112.664062 93.984375 110.078125 92.238281 107.433594 C 91.476562 106.28125 90.777344 104.972656 90.890625 103.59375 C 90.933594 103.101562 91.183594 102.523438 91.679688 102.476562 C 91.90625 102.46875 92.125 102.53125 92.316406 102.648438 C 93.09375 103.050781 93.800781 103.585938 94.394531 104.230469 C 95.085938 104.976562 95.832031 105.957031 96.84375 105.839844 C 97.253906 105.75 97.640625 105.582031 97.992188 105.347656 C 99.332031 104.632812 100.863281 104.390625 102.363281 104.164062 L 104.273438 103.867188 C 105.828125 103.625 107.4375 103.386719 108.957031 103.71875 C 110.714844 104.113281 112.234375 105.210938 113.15625 106.761719 C 114.5 109.042969 114.34375 111.898438 115.128906 114.414062 C 115.445312 115.402344 115.917969 116.339844 116.179688 117.34375 C 116.503906 118.339844 116.441406 119.425781 116.003906 120.378906 C 115.394531 121.507812 114.09375 122.089844 112.84375 122.371094 C 111.589844 122.65625 110.265625 122.714844 109.078125 123.210938 C 108.074219 123.625 107.207031 124.320312 106.257812 124.847656 C 104.039062 126.085938 103.199219 125.015625 101.183594 124.164062 C 99.625 123.507812 97.746094 123.027344 96.835938 121.453125 Z M 96.84375 121.453125 "/>
<path style=" stroke:none;fill-rule:nonzero;fill:url(#linear3);" d="M 118.132812 51 L 140.9375 51 C 142.632812 51 144.011719 52.375 144.011719 54.074219 L 144.011719 76.332031 C 144.011719 78.03125 142.632812 79.40625 140.9375 79.40625 L 118.132812 79.40625 C 116.433594 79.40625 115.058594 78.03125 115.058594 76.332031 L 115.058594 54.074219 C 115.058594 52.375 116.433594 51 118.132812 51 Z M 118.132812 51 "/>
<path style=" stroke:none;fill-rule:nonzero;fill:url(#linear4);" d="M 141.472656 92.253906 L 164.277344 92.253906 C 165.976562 92.253906 167.351562 93.632812 167.351562 95.328125 L 167.351562 117.589844 C 167.351562 119.285156 165.976562 120.664062 164.277344 120.664062 L 141.472656 120.664062 C 139.777344 120.664062 138.402344 119.285156 138.402344 117.589844 L 138.402344 95.328125 C 138.402344 93.632812 139.777344 92.253906 141.472656 92.253906 Z M 141.472656 92.253906 "/>
<path style=" stroke:none;fill-rule:nonzero;fill:url(#linear5);" d="M 23.414062 30.917969 L 46.21875 30.917969 C 47.917969 30.917969 49.292969 32.296875 49.292969 33.992188 L 49.292969 56.253906 C 49.292969 57.949219 47.917969 59.328125 46.21875 59.328125 L 23.414062 59.328125 C 21.71875 59.328125 20.34375 57.949219 20.34375 56.253906 L 20.34375 33.992188 C 20.34375 32.296875 21.71875 30.917969 23.414062 30.917969 Z M 23.414062 30.917969 "/>
<path style=" stroke:none;fill-rule:nonzero;fill:url(#linear6);" d="M 14.992188 73.503906 L 37.792969 73.503906 C 39.492188 73.503906 40.867188 74.878906 40.867188 76.578125 L 40.867188 98.839844 C 40.867188 100.535156 39.492188 101.910156 37.792969 101.910156 L 14.992188 101.910156 C 13.292969 101.910156 11.917969 100.535156 11.917969 98.839844 L 11.917969 76.578125 C 11.917969 74.878906 13.292969 73.503906 14.992188 73.503906 Z M 14.992188 73.503906 "/>
<path style=" stroke:none;fill-rule:nonzero;fill:rgb(40.784314%,88.235294%,99.215686%);fill-opacity:1;" d="M 100.523438 82.859375 L 100.203125 82.773438 L 105.589844 62.058594 L 115.308594 62.058594 L 115.308594 62.398438 L 105.847656 62.398438 Z M 100.523438 82.859375 "/>
<path style=" stroke:none;fill-rule:nonzero;fill:rgb(40.784314%,88.235294%,99.215686%);fill-opacity:1;" d="M 138.152344 109.960938 L 118.691406 109.960938 L 109.429688 93.898438 L 109.71875 93.726562 L 118.882812 109.625 L 138.152344 109.625 Z M 138.152344 109.960938 "/>
<path style=" stroke:none;fill-rule:nonzero;fill:rgb(40.784314%,88.235294%,99.215686%);fill-opacity:1;" d="M 67.675781 85.558594 L 56.996094 52.058594 L 48.65625 52.058594 L 48.65625 51.722656 L 57.238281 51.722656 L 57.28125 51.839844 L 67.996094 85.457031 Z M 67.675781 85.558594 "/>
<path style=" stroke:none;fill-rule:nonzero;fill:rgb(40.784314%,88.235294%,99.215686%);fill-opacity:1;" d="M 55.367188 98.25 L 47.769531 89.785156 L 40.320312 89.785156 L 40.320312 89.449219 L 47.917969 89.449219 L 55.613281 98.027344 Z M 55.367188 98.25 "/>
</g>
</svg>
