<?xml version="1.0" encoding="UTF-8"?>
<svg xmlns="http://www.w3.org/2000/svg" xmlns:xlink="http://www.w3.org/1999/xlink" width="170px" height="200px" viewBox="0 0 170 170" version="1.1">
<g id="surface1">
<path style=" stroke:none;fill-rule:nonzero;fill:rgb(13.72549%,12.156863%,12.54902%);fill-opacity:1;" d="M 39.457031 43.390625 C 39.457031 43.390625 35.71875 42.882812 35.257812 46.996094 L 41.871094 46.996094 C 41.871094 46.996094 41.507812 43.082031 39.457031 43.390625 Z M 39.457031 43.390625 "/>
<path style=" stroke:none;fill-rule:nonzero;fill:rgb(13.72549%,12.156863%,12.54902%);fill-opacity:1;" d="M 41.867188 47.234375 L 35.253906 47.234375 C 35.1875 47.234375 35.121094 47.207031 35.078125 47.15625 C 35.03125 47.105469 35.011719 47.039062 35.015625 46.972656 C 35.164062 45.632812 35.664062 44.617188 36.503906 43.957031 C 37.355469 43.339844 38.402344 43.054688 39.449219 43.15625 C 39.886719 43.09375 40.332031 43.21875 40.675781 43.496094 C 41.851562 44.417969 42.09375 46.875 42.101562 46.980469 C 42.109375 47.046875 42.085938 47.113281 42.039062 47.160156 C 41.996094 47.210938 41.929688 47.238281 41.863281 47.238281 Z M 35.527344 46.761719 L 41.597656 46.761719 C 41.507812 46.128906 41.199219 44.5 40.386719 43.863281 C 40.136719 43.660156 39.808594 43.574219 39.492188 43.628906 C 39.46875 43.632812 39.445312 43.632812 39.421875 43.628906 C 38.492188 43.542969 37.558594 43.792969 36.792969 44.335938 C 36.070312 44.949219 35.613281 45.820312 35.523438 46.761719 Z M 35.527344 46.761719 "/>
<path style=" stroke:none;fill-rule:nonzero;fill:rgb(100%,100%,100%);fill-opacity:1;" d="M 41.867188 49.585938 C 41.867188 49.585938 39.546875 48.363281 39.453125 43.390625 L 49.910156 43.390625 C 48.765625 46.917969 45.570312 49.378906 41.867188 49.585938 Z M 41.867188 49.585938 "/>
<path style=" stroke:none;fill-rule:nonzero;fill:rgb(13.72549%,12.156863%,12.54902%);fill-opacity:1;" d="M 41.867188 49.824219 C 41.828125 49.824219 41.789062 49.8125 41.753906 49.796875 C 41.65625 49.746094 39.308594 48.4375 39.214844 43.394531 C 39.214844 43.332031 39.238281 43.269531 39.285156 43.222656 C 39.328125 43.179688 39.390625 43.152344 39.453125 43.152344 L 49.910156 43.152344 C 49.984375 43.152344 50.050781 43.1875 50.097656 43.246094 C 50.144531 43.304688 50.160156 43.378906 50.140625 43.453125 C 48.953125 47.066406 45.683594 49.589844 41.886719 49.820312 L 41.867188 49.820312 Z M 39.699219 43.628906 C 39.835938 47.761719 41.59375 49.121094 41.925781 49.339844 C 45.378906 49.113281 48.375 46.875 49.578125 43.628906 Z M 39.699219 43.628906 "/>
<path style=" stroke:none;fill-rule:nonzero;fill:rgb(13.72549%,12.156863%,12.54902%);fill-opacity:1;" d="M 49.105469 36.808594 C 49.105469 36.808594 46.238281 36.378906 45.175781 40.382812 C 44.113281 44.382812 46.246094 49.941406 41.871094 49.585938 L 60.613281 49.585938 C 60.613281 49.585938 57.953125 36.183594 49.109375 36.808594 Z M 49.105469 36.808594 "/>
<path style=" stroke:none;fill-rule:nonzero;fill:rgb(13.72549%,12.156863%,12.54902%);fill-opacity:1;" d="M 42.257812 49.839844 C 42.125 49.839844 41.988281 49.839844 41.851562 49.824219 C 41.730469 49.804688 41.644531 49.699219 41.648438 49.578125 C 41.65625 49.457031 41.75 49.359375 41.871094 49.351562 L 42.605469 49.351562 C 43.023438 49.328125 43.417969 49.167969 43.734375 48.890625 C 44.570312 48.125 44.574219 46.410156 44.578125 44.59375 C 44.578125 43.164062 44.578125 41.679688 44.945312 40.324219 C 46 36.375 48.78125 36.539062 49.109375 36.585938 C 58.050781 35.980469 60.816406 49.414062 60.84375 49.550781 C 60.855469 49.621094 60.839844 49.691406 60.796875 49.75 C 60.75 49.804688 60.683594 49.835938 60.613281 49.835938 L 42.628906 49.835938 C 42.511719 49.835938 42.386719 49.835938 42.257812 49.835938 Z M 43.925781 49.351562 L 60.320312 49.351562 C 59.871094 47.4375 56.960938 36.503906 49.125 37.046875 L 49.074219 37.046875 C 48.96875 37.046875 46.410156 36.707031 45.410156 40.445312 C 45.070312 41.746094 45.070312 43.195312 45.070312 44.597656 C 45.070312 46.605469 45.070312 48.335938 44.074219 49.242188 L 43.945312 49.355469 Z M 43.925781 49.351562 "/>
<path style=" stroke:none;fill-rule:nonzero;fill:rgb(100%,100%,100%);fill-opacity:1;" d="M 118.082031 36.808594 L 49.105469 36.808594 C 54.289062 38.238281 54.058594 41.820312 54.058594 41.820312 L 54.058594 133.207031 L 121.378906 133.207031 L 121.378906 41.820312 C 120.753906 38.058594 118.074219 36.820312 118.074219 36.820312 Z M 118.082031 36.808594 "/>
<path style=" stroke:none;fill-rule:nonzero;fill:rgb(13.72549%,12.156863%,12.54902%);fill-opacity:1;" d="M 121.378906 133.445312 L 54.058594 133.445312 C 53.929688 133.445312 53.820312 133.339844 53.820312 133.207031 L 53.820312 41.820312 C 53.820312 41.667969 53.953125 38.421875 49.035156 37.058594 C 48.917969 37.03125 48.839844 36.917969 48.855469 36.796875 C 48.871094 36.675781 48.972656 36.589844 49.097656 36.589844 L 118.082031 36.589844 C 118.117188 36.589844 118.148438 36.597656 118.179688 36.609375 C 118.292969 36.664062 120.980469 37.949219 121.617188 41.785156 L 121.617188 133.246094 C 121.617188 133.308594 121.59375 133.371094 121.550781 133.414062 C 121.507812 133.457031 121.445312 133.484375 121.382812 133.484375 Z M 54.300781 132.96875 L 121.148438 132.96875 L 121.148438 41.820312 C 120.597656 38.535156 118.367188 37.238281 118.027344 37.058594 L 50.523438 37.058594 C 52.355469 37.839844 53.277344 38.910156 53.742188 39.742188 C 54.109375 40.378906 54.308594 41.097656 54.308594 41.832031 L 54.308594 132.96875 Z M 54.300781 132.96875 "/>
<path style=" stroke:none;fill-rule:nonzero;fill:rgb(100%,100%,100%);fill-opacity:1;" d="M 66.257812 71.136719 L 77.484375 71.136719 L 77.484375 80.382812 L 66.257812 80.382812 Z M 66.257812 71.136719 "/>
<path style=" stroke:none;fill-rule:nonzero;fill:rgb(81.960784%,82.745098%,83.137255%);fill-opacity:1;" d="M 77.484375 80.621094 L 66.261719 80.621094 C 66.132812 80.621094 66.023438 80.515625 66.023438 80.382812 L 66.023438 71.136719 C 66.023438 71.003906 66.132812 70.898438 66.261719 70.898438 L 77.484375 70.898438 C 77.613281 70.898438 77.71875 71.003906 77.71875 71.136719 L 77.71875 80.382812 C 77.71875 80.515625 77.613281 80.621094 77.484375 80.621094 Z M 66.496094 80.144531 L 77.246094 80.144531 L 77.246094 71.371094 L 66.496094 71.371094 Z M 66.496094 80.144531 "/>
<path style=" stroke:none;fill-rule:nonzero;fill:rgb(100%,100%,100%);fill-opacity:1;" d="M 84.59375 63.273438 L 95.820312 63.273438 L 95.820312 80.378906 L 84.59375 80.378906 Z M 84.59375 63.273438 "/>
<path style=" stroke:none;fill-rule:nonzero;fill:rgb(81.960784%,82.745098%,83.137255%);fill-opacity:1;" d="M 95.820312 80.621094 L 84.597656 80.621094 C 84.46875 80.621094 84.359375 80.515625 84.359375 80.382812 L 84.359375 63.277344 C 84.359375 63.144531 84.46875 63.039062 84.597656 63.039062 L 95.820312 63.039062 C 95.949219 63.039062 96.058594 63.144531 96.058594 63.277344 L 96.058594 80.382812 C 96.058594 80.515625 95.949219 80.621094 95.820312 80.621094 Z M 84.832031 80.144531 L 95.582031 80.144531 L 95.582031 63.515625 L 84.832031 63.515625 Z M 84.832031 80.144531 "/>
<path style=" stroke:none;fill-rule:nonzero;fill:rgb(40.784314%,88.235294%,99.215686%);fill-opacity:1;" d="M 102.929688 56.496094 L 114.152344 56.496094 L 114.152344 80.382812 L 102.929688 80.382812 Z M 102.929688 56.496094 "/>
<path style=" stroke:none;fill-rule:nonzero;fill:rgb(81.960784%,82.745098%,83.137255%);fill-opacity:1;" d="M 111.308594 103.722656 L 89.953125 103.722656 C 89.824219 103.722656 89.714844 103.617188 89.714844 103.484375 C 89.714844 103.355469 89.824219 103.246094 89.953125 103.246094 L 111.308594 103.246094 C 111.441406 103.246094 111.546875 103.355469 111.546875 103.484375 C 111.546875 103.617188 111.441406 103.722656 111.308594 103.722656 Z M 111.308594 103.722656 "/>
<path style=" stroke:none;fill-rule:nonzero;fill:rgb(81.960784%,82.745098%,83.137255%);fill-opacity:1;" d="M 111.308594 108.886719 L 89.953125 108.886719 C 89.824219 108.886719 89.714844 108.777344 89.714844 108.648438 C 89.714844 108.515625 89.824219 108.410156 89.953125 108.410156 L 111.308594 108.410156 C 111.441406 108.410156 111.546875 108.515625 111.546875 108.648438 C 111.546875 108.777344 111.441406 108.886719 111.308594 108.886719 Z M 111.308594 108.886719 "/>
<path style=" stroke:none;fill-rule:nonzero;fill:rgb(81.960784%,82.745098%,83.137255%);fill-opacity:1;" d="M 105.796875 114.050781 L 89.953125 114.050781 C 89.824219 114.050781 89.714844 113.941406 89.714844 113.8125 C 89.714844 113.679688 89.824219 113.574219 89.953125 113.574219 L 105.796875 113.574219 C 105.929688 113.574219 106.035156 113.679688 106.035156 113.8125 C 106.035156 113.941406 105.929688 114.050781 105.796875 114.050781 Z M 105.796875 114.050781 "/>
<path style=" stroke:none;fill-rule:nonzero;fill:rgb(81.960784%,82.745098%,83.137255%);fill-opacity:1;" d="M 115.046875 89.132812 L 89.855469 89.132812 C 89.722656 89.132812 89.617188 89.027344 89.617188 88.894531 C 89.617188 88.765625 89.722656 88.660156 89.855469 88.660156 L 115.046875 88.660156 C 115.175781 88.660156 115.285156 88.765625 115.285156 88.894531 C 115.285156 89.027344 115.175781 89.132812 115.046875 89.132812 Z M 115.046875 89.132812 "/>
<path style=" stroke:none;fill-rule:nonzero;fill:rgb(81.960784%,82.745098%,83.137255%);fill-opacity:1;" d="M 110.335938 94.140625 L 89.855469 94.140625 C 89.722656 94.140625 89.617188 94.03125 89.617188 93.902344 C 89.617188 93.769531 89.722656 93.664062 89.855469 93.664062 L 110.335938 93.664062 C 110.46875 93.664062 110.574219 93.769531 110.574219 93.902344 C 110.574219 94.03125 110.46875 94.140625 110.335938 94.140625 Z M 110.335938 94.140625 "/>
<path style=" stroke:none;fill-rule:nonzero;fill:rgb(81.960784%,82.745098%,83.137255%);fill-opacity:1;" d="M 64.503906 91.140625 C 61.800781 93.515625 60.144531 96.863281 59.90625 100.457031 L 65.824219 100.457031 C 65.988281 99.039062 66.546875 97.691406 67.4375 96.578125 C 67.808594 96.113281 68.226562 95.695312 68.691406 95.324219 C 69.808594 94.433594 71.152344 93.875 72.570312 93.710938 L 72.570312 87.792969 C 69.585938 87.984375 66.746094 89.160156 64.503906 91.140625 Z M 64.503906 91.140625 "/>
<path style=" stroke:none;fill-rule:nonzero;fill:rgb(40.784314%,88.235294%,99.215686%);fill-opacity:1;" d="M 87.007812 100.457031 C 86.816406 97.472656 85.636719 94.636719 83.660156 92.390625 L 79.476562 96.582031 C 81.691406 99.367188 81.691406 103.316406 79.476562 106.101562 C 79.109375 106.566406 78.6875 106.984375 78.222656 107.351562 C 75.4375 109.570312 71.488281 109.570312 68.703125 107.351562 C 68.238281 106.984375 67.820312 106.5625 67.449219 106.101562 C 66.558594 104.980469 66 103.636719 65.835938 102.21875 L 59.90625 102.21875 C 60.097656 105.203125 61.277344 108.042969 63.261719 110.28125 C 63.648438 110.726562 64.066406 111.144531 64.511719 111.535156 C 66.753906 113.515625 69.589844 114.691406 72.574219 114.882812 C 72.867188 114.902344 73.160156 114.914062 73.457031 114.914062 C 73.753906 114.914062 74.046875 114.914062 74.339844 114.882812 C 77.328125 114.691406 80.164062 113.511719 82.40625 111.535156 C 82.851562 111.144531 83.269531 110.726562 83.65625 110.28125 C 85.636719 108.039062 86.816406 105.203125 87.007812 102.21875 C 87.027344 101.925781 87.035156 101.628906 87.035156 101.332031 C 87.035156 101.039062 87.039062 100.75 87.007812 100.457031 Z M 87.007812 100.457031 "/>
<path style=" stroke:none;fill-rule:nonzero;fill:rgb(81.960784%,82.745098%,83.137255%);fill-opacity:1;" d="M 82.410156 91.140625 C 80.164062 89.160156 77.328125 87.980469 74.339844 87.792969 L 74.339844 93.710938 C 75.761719 93.875 77.105469 94.433594 78.222656 95.324219 Z M 82.410156 91.140625 "/>
<path style=" stroke:none;fill-rule:nonzero;fill:rgb(13.72549%,12.156863%,12.54902%);fill-opacity:1;" d="M 116.117188 80.621094 L 63.417969 80.621094 C 63.285156 80.621094 63.179688 80.515625 63.179688 80.382812 C 63.179688 80.25 63.285156 80.144531 63.417969 80.144531 L 116.117188 80.144531 C 116.25 80.144531 116.355469 80.25 116.355469 80.382812 C 116.355469 80.515625 116.25 80.621094 116.117188 80.621094 Z M 116.117188 80.621094 "/>
<path style=" stroke:none;fill-rule:nonzero;fill:rgb(81.960784%,82.745098%,83.137255%);fill-opacity:1;" d="M 114.238281 50.320312 L 100.300781 50.320312 C 100.167969 50.320312 100.0625 50.214844 100.0625 50.082031 C 100.0625 49.949219 100.167969 49.84375 100.300781 49.84375 L 114.238281 49.84375 C 114.371094 49.84375 114.476562 49.949219 114.476562 50.082031 C 114.476562 50.214844 114.371094 50.320312 114.238281 50.320312 Z M 114.238281 50.320312 "/>
<path style=" stroke:none;fill-rule:nonzero;fill:rgb(81.960784%,82.745098%,83.137255%);fill-opacity:1;" d="M 114.238281 46.820312 L 98.691406 46.820312 C 98.558594 46.820312 98.453125 46.714844 98.453125 46.582031 C 98.453125 46.453125 98.558594 46.34375 98.691406 46.34375 L 114.238281 46.34375 C 114.371094 46.34375 114.476562 46.453125 114.476562 46.582031 C 114.476562 46.714844 114.371094 46.820312 114.238281 46.820312 Z M 114.238281 46.820312 "/>
<path style=" stroke:none;fill-rule:nonzero;fill:rgb(100%,100%,100%);fill-opacity:1;" d="M 61.132812 119.234375 C 62.816406 119.234375 62.816406 121.136719 64.5 121.136719 C 66.1875 121.136719 66.183594 119.234375 67.871094 119.234375 C 69.558594 119.234375 69.554688 121.136719 71.238281 121.136719 C 72.925781 121.136719 72.921875 119.234375 74.609375 119.234375 C 76.296875 119.234375 76.292969 121.136719 77.980469 121.136719 C 79.664062 121.136719 79.679688 119.234375 81.347656 119.234375 C 83.019531 119.234375 83.046875 121.136719 84.71875 121.136719 C 86.386719 121.136719 86.417969 119.234375 88.082031 119.234375 C 89.75 119.234375 89.765625 121.136719 91.453125 121.136719 C 93.140625 121.136719 93.136719 119.234375 94.824219 119.234375 C 96.507812 119.234375 96.503906 121.136719 98.191406 121.136719 C 99.878906 121.136719 99.890625 119.234375 101.5625 119.234375 C 103.230469 119.234375 103.261719 121.136719 104.929688 121.136719 C 106.601562 121.136719 106.628906 119.234375 108.300781 119.234375 C 109.96875 119.234375 110 121.136719 111.671875 121.136719 C 113.347656 121.136719 113.371094 119.234375 115.046875 119.234375 "/>
<path style=" stroke:none;fill-rule:nonzero;fill:rgb(81.960784%,82.745098%,83.137255%);fill-opacity:1;" d="M 111.667969 121.378906 C 110.722656 121.378906 110.234375 120.832031 109.804688 120.359375 C 109.378906 119.886719 109.035156 119.488281 108.296875 119.488281 C 107.558594 119.488281 107.203125 119.894531 106.789062 120.359375 C 106.378906 120.824219 105.875 121.378906 104.925781 121.378906 C 103.980469 121.378906 103.492188 120.832031 103.0625 120.359375 C 102.636719 119.886719 102.292969 119.488281 101.558594 119.488281 C 100.824219 119.488281 100.464844 119.894531 100.050781 120.359375 C 99.636719 120.824219 99.136719 121.378906 98.1875 121.378906 C 97.238281 121.378906 96.753906 120.832031 96.324219 120.359375 C 95.898438 119.886719 95.554688 119.488281 94.820312 119.488281 C 94.085938 119.488281 93.726562 119.894531 93.3125 120.359375 C 92.898438 120.824219 92.398438 121.378906 91.449219 121.378906 C 90.5 121.378906 90.015625 120.832031 89.585938 120.359375 C 89.15625 119.886719 88.816406 119.488281 88.082031 119.488281 C 87.347656 119.488281 86.988281 119.894531 86.574219 120.359375 C 86.160156 120.824219 85.660156 121.378906 84.710938 121.378906 C 83.761719 121.378906 83.277344 120.832031 82.847656 120.359375 C 82.417969 119.886719 82.074219 119.488281 81.339844 119.488281 C 80.605469 119.488281 80.25 119.894531 79.835938 120.359375 C 79.421875 120.824219 78.921875 121.378906 77.972656 121.378906 C 77.023438 121.378906 76.539062 120.832031 76.109375 120.359375 C 75.679688 119.886719 75.335938 119.488281 74.601562 119.488281 C 73.867188 119.488281 73.511719 119.894531 73.097656 120.359375 C 72.683594 120.824219 72.183594 121.378906 71.234375 121.378906 C 70.285156 121.378906 69.796875 120.832031 69.371094 120.359375 C 68.941406 119.886719 68.597656 119.488281 67.863281 119.488281 C 67.128906 119.488281 66.773438 119.894531 66.359375 120.359375 C 65.941406 120.824219 65.441406 121.378906 64.496094 121.378906 C 63.546875 121.378906 63.058594 120.832031 62.632812 120.359375 C 62.203125 119.886719 61.859375 119.488281 61.125 119.488281 C 60.992188 119.488281 60.886719 119.382812 60.886719 119.25 C 60.886719 119.121094 60.992188 119.011719 61.125 119.011719 C 62.074219 119.011719 62.558594 119.5625 62.988281 120.035156 C 63.417969 120.507812 63.761719 120.902344 64.496094 120.902344 C 65.230469 120.902344 65.585938 120.5 66 120.035156 C 66.414062 119.566406 66.914062 119.011719 67.863281 119.011719 C 68.8125 119.011719 69.296875 119.5625 69.726562 120.035156 C 70.15625 120.507812 70.5 120.902344 71.234375 120.902344 C 71.96875 120.902344 72.324219 120.5 72.738281 120.035156 C 73.15625 119.566406 73.652344 119.011719 74.601562 119.011719 C 75.550781 119.011719 76.039062 119.5625 76.464844 120.035156 C 76.894531 120.507812 77.238281 120.902344 77.972656 120.902344 C 78.707031 120.902344 79.0625 120.5 79.476562 120.035156 C 79.894531 119.566406 80.394531 119.011719 81.339844 119.011719 C 82.289062 119.011719 82.777344 119.5625 83.203125 120.035156 C 83.632812 120.507812 83.976562 120.902344 84.710938 120.902344 C 85.445312 120.902344 85.800781 120.5 86.21875 120.035156 C 86.632812 119.566406 87.132812 119.011719 88.082031 119.011719 C 89.027344 119.011719 89.515625 119.5625 89.945312 120.035156 C 90.371094 120.507812 90.714844 120.902344 91.449219 120.902344 C 92.183594 120.902344 92.542969 120.5 92.957031 120.035156 C 93.371094 119.566406 93.871094 119.011719 94.820312 119.011719 C 95.769531 119.011719 96.253906 119.5625 96.683594 120.035156 C 97.109375 120.507812 97.453125 120.902344 98.1875 120.902344 C 98.921875 120.902344 99.28125 120.5 99.695312 120.035156 C 100.109375 119.566406 100.609375 119.011719 101.558594 119.011719 C 102.507812 119.011719 102.992188 119.5625 103.421875 120.035156 C 103.847656 120.507812 104.191406 120.902344 104.925781 120.902344 C 105.660156 120.902344 106.023438 120.5 106.433594 120.035156 C 106.84375 119.566406 107.347656 119.011719 108.296875 119.011719 C 109.246094 119.011719 109.730469 119.5625 110.164062 120.035156 C 110.59375 120.507812 110.933594 120.902344 111.671875 120.902344 C 112.410156 120.902344 112.769531 120.5 113.183594 120.035156 C 113.597656 119.566406 114.097656 119.011719 115.046875 119.011719 C 115.175781 119.011719 115.285156 119.121094 115.285156 119.25 C 115.285156 119.382812 115.175781 119.488281 115.046875 119.488281 C 114.3125 119.488281 113.949219 119.894531 113.535156 120.359375 C 113.121094 120.824219 112.621094 121.378906 111.667969 121.378906 Z M 111.667969 121.378906 "/>
<path style=" stroke:none;fill-rule:nonzero;fill:rgb(100%,100%,100%);fill-opacity:1;" d="M 61.132812 124.558594 C 62.816406 124.558594 62.816406 126.464844 64.5 126.464844 C 66.1875 126.464844 66.183594 124.558594 67.871094 124.558594 C 69.558594 124.558594 69.554688 126.464844 71.238281 126.464844 C 72.925781 126.464844 72.921875 124.558594 74.609375 124.558594 C 76.296875 124.558594 76.292969 126.464844 77.980469 126.464844 C 79.664062 126.464844 79.679688 124.558594 81.347656 124.558594 C 83.019531 124.558594 83.046875 126.464844 84.71875 126.464844 C 86.386719 126.464844 86.417969 124.558594 88.082031 124.558594 C 89.75 124.558594 89.761719 126.480469 91.460938 126.480469 C 93.160156 126.480469 93.144531 124.574219 94.828125 124.574219 C 96.515625 124.574219 96.511719 126.480469 98.199219 126.480469 C 99.886719 126.480469 99.898438 124.574219 101.566406 124.574219 C 103.238281 124.574219 103.269531 126.480469 104.9375 126.480469 C 106.605469 126.480469 106.636719 124.574219 108.308594 124.574219 C 109.976562 124.574219 110.007812 126.480469 111.679688 126.480469 C 113.351562 126.480469 113.378906 124.574219 115.050781 124.574219 "/>
<path style=" stroke:none;fill-rule:nonzero;fill:rgb(81.960784%,82.745098%,83.137255%);fill-opacity:1;" d="M 111.667969 126.699219 C 110.722656 126.699219 110.234375 126.152344 109.804688 125.679688 C 109.378906 125.207031 109.035156 124.8125 108.296875 124.8125 C 107.558594 124.8125 107.203125 125.214844 106.789062 125.679688 C 106.378906 126.148438 105.875 126.699219 104.925781 126.699219 C 103.980469 126.699219 103.492188 126.152344 103.0625 125.679688 C 102.636719 125.207031 102.292969 124.8125 101.558594 124.8125 C 100.824219 124.8125 100.464844 125.214844 100.050781 125.679688 C 99.636719 126.148438 99.136719 126.699219 98.1875 126.699219 C 97.238281 126.699219 96.753906 126.152344 96.324219 125.679688 C 95.898438 125.207031 95.554688 124.8125 94.820312 124.8125 C 94.085938 124.8125 93.726562 125.214844 93.3125 125.679688 C 92.898438 126.148438 92.398438 126.699219 91.449219 126.699219 C 90.5 126.699219 90.015625 126.152344 89.585938 125.679688 C 89.15625 125.207031 88.816406 124.8125 88.082031 124.8125 C 87.347656 124.8125 86.988281 125.214844 86.574219 125.679688 C 86.160156 126.148438 85.660156 126.699219 84.710938 126.699219 C 83.761719 126.699219 83.277344 126.152344 82.847656 125.679688 C 82.417969 125.207031 82.074219 124.8125 81.339844 124.8125 C 80.605469 124.8125 80.25 125.214844 79.835938 125.679688 C 79.421875 126.148438 78.921875 126.699219 77.972656 126.699219 C 77.023438 126.699219 76.539062 126.152344 76.109375 125.679688 C 75.679688 125.207031 75.335938 124.8125 74.601562 124.8125 C 73.867188 124.8125 73.511719 125.214844 73.097656 125.679688 C 72.683594 126.148438 72.183594 126.699219 71.234375 126.699219 C 70.285156 126.699219 69.796875 126.152344 69.371094 125.679688 C 68.941406 125.207031 68.597656 124.8125 67.863281 124.8125 C 67.128906 124.8125 66.773438 125.214844 66.359375 125.679688 C 65.941406 126.148438 65.441406 126.699219 64.496094 126.699219 C 63.546875 126.699219 63.058594 126.152344 62.632812 125.679688 C 62.203125 125.207031 61.859375 124.8125 61.125 124.8125 C 60.992188 124.8125 60.886719 124.703125 60.886719 124.574219 C 60.886719 124.441406 60.992188 124.335938 61.125 124.335938 C 62.074219 124.335938 62.558594 124.882812 62.988281 125.355469 C 63.417969 125.828125 63.761719 126.226562 64.496094 126.226562 C 65.230469 126.226562 65.585938 125.820312 66 125.355469 C 66.414062 124.890625 66.914062 124.335938 67.863281 124.335938 C 68.8125 124.335938 69.296875 124.882812 69.726562 125.355469 C 70.15625 125.828125 70.5 126.226562 71.234375 126.226562 C 71.96875 126.226562 72.324219 125.820312 72.738281 125.355469 C 73.15625 124.890625 73.652344 124.335938 74.601562 124.335938 C 75.550781 124.335938 76.039062 124.882812 76.464844 125.355469 C 76.894531 125.828125 77.238281 126.226562 77.972656 126.226562 C 78.707031 126.226562 79.0625 125.820312 79.476562 125.355469 C 79.894531 124.890625 80.394531 124.335938 81.339844 124.335938 C 82.289062 124.335938 82.777344 124.882812 83.203125 125.355469 C 83.632812 125.828125 83.976562 126.226562 84.710938 126.226562 C 85.445312 126.226562 85.800781 125.820312 86.21875 125.355469 C 86.632812 124.890625 87.132812 124.335938 88.082031 124.335938 C 89.027344 124.335938 89.515625 124.882812 89.945312 125.355469 C 90.371094 125.828125 90.714844 126.226562 91.449219 126.226562 C 92.183594 126.226562 92.542969 125.820312 92.957031 125.355469 C 93.371094 124.890625 93.871094 124.335938 94.820312 124.335938 C 95.769531 124.335938 96.253906 124.882812 96.683594 125.355469 C 97.109375 125.828125 97.453125 126.226562 98.1875 126.226562 C 98.921875 126.226562 99.28125 125.820312 99.695312 125.355469 C 100.109375 124.890625 100.609375 124.335938 101.558594 124.335938 C 102.507812 124.335938 102.992188 124.882812 103.421875 125.355469 C 103.847656 125.828125 104.191406 126.226562 104.925781 126.226562 C 105.660156 126.226562 106.023438 125.820312 106.433594 125.355469 C 106.84375 124.890625 107.347656 124.335938 108.296875 124.335938 C 109.246094 124.335938 109.730469 124.882812 110.164062 125.355469 C 110.59375 125.828125 110.933594 126.226562 111.671875 126.226562 C 112.410156 126.226562 112.769531 125.820312 113.183594 125.355469 C 113.597656 124.890625 114.097656 124.335938 115.046875 124.335938 C 115.175781 124.335938 115.285156 124.441406 115.285156 124.574219 C 115.285156 124.703125 115.175781 124.8125 115.046875 124.8125 C 114.3125 124.8125 113.949219 125.214844 113.535156 125.679688 C 113.121094 126.148438 112.621094 126.699219 111.667969 126.699219 Z M 111.667969 126.699219 "/>
<path style=" stroke:none;fill-rule:nonzero;fill:rgb(100%,100%,100%);fill-opacity:1;" d="M 123.367188 118.117188 L 138.425781 118.117188 C 136.171875 106.132812 133.035156 90.09375 131.667969 86.21875 C 129.421875 79.847656 121.378906 71.828125 121.378906 71.828125 L 121.480469 91.101562 C 121.480469 91.101562 116.328125 83.078125 112.894531 84.203125 C 109.460938 85.328125 117.273438 92.859375 120.933594 101.855469 C 122.539062 105.792969 123.160156 112.179688 123.359375 118.117188 Z M 123.367188 118.117188 "/>
<path style=" stroke:none;fill-rule:nonzero;fill:rgb(13.72549%,12.156863%,12.54902%);fill-opacity:1;" d="M 138.425781 118.355469 L 123.367188 118.355469 C 123.238281 118.355469 123.132812 118.25 123.128906 118.121094 C 122.882812 110.710938 122.074219 105.265625 120.722656 101.941406 C 119.207031 98.203125 116.941406 94.691406 115.117188 91.859375 C 112.976562 88.527344 111.429688 86.121094 111.898438 84.804688 C 112.054688 84.394531 112.402344 84.082031 112.828125 83.972656 C 115.828125 82.992188 119.90625 88.394531 121.25 90.3125 L 121.152344 71.824219 C 121.152344 71.730469 121.210938 71.640625 121.296875 71.605469 C 121.386719 71.566406 121.488281 71.585938 121.558594 71.65625 C 121.636719 71.738281 129.652344 79.789062 131.894531 86.140625 C 133.253906 89.988281 136.3125 105.628906 138.660156 118.070312 C 138.671875 118.136719 138.652344 118.210938 138.609375 118.265625 C 138.5625 118.320312 138.496094 118.351562 138.425781 118.351562 Z M 123.597656 117.878906 L 138.136719 117.878906 C 135.8125 105.5 132.785156 90.089844 131.445312 86.296875 C 129.53125 80.875 123.285156 74.144531 121.628906 72.414062 L 121.726562 91.113281 C 121.730469 91.21875 121.660156 91.316406 121.558594 91.34375 C 121.457031 91.375 121.34375 91.335938 121.289062 91.246094 C 121.238281 91.167969 116.1875 83.386719 112.976562 84.445312 C 112.691406 84.511719 112.453125 84.710938 112.34375 84.984375 C 111.957031 86.078125 113.605469 88.644531 115.515625 91.617188 C 117.347656 94.464844 119.628906 98.011719 121.164062 101.777344 C 122.523438 105.117188 123.34375 110.539062 123.59375 117.890625 Z M 123.597656 117.878906 "/>
<path style=" stroke:none;fill-rule:nonzero;fill:rgb(13.72549%,12.156863%,12.54902%);fill-opacity:1;" d="M 124.828125 96.734375 C 124.742188 96.734375 124.667969 96.691406 124.625 96.617188 C 123.828125 95.296875 121.3125 91.273438 121.285156 91.230469 C 121.246094 91.179688 121.234375 91.109375 121.25 91.046875 C 121.261719 90.980469 121.304688 90.925781 121.359375 90.890625 C 121.414062 90.855469 121.480469 90.84375 121.546875 90.855469 C 121.609375 90.871094 121.664062 90.910156 121.699219 90.96875 C 121.726562 91.007812 124.246094 95.046875 125.042969 96.359375 C 125.078125 96.414062 125.089844 96.484375 125.074219 96.546875 C 125.058594 96.613281 125.019531 96.667969 124.960938 96.699219 C 124.921875 96.722656 124.882812 96.734375 124.835938 96.734375 Z M 124.828125 96.734375 "/>
<path style=" stroke:none;fill-rule:nonzero;fill:rgb(100%,100%,100%);fill-opacity:1;" d="M 58.035156 85.214844 L 57.074219 84.382812 C 56.527344 83.914062 56.464844 83.089844 56.933594 82.542969 L 66.746094 71.152344 L 69.6875 73.6875 L 59.878906 85.074219 C 59.40625 85.621094 58.582031 85.683594 58.035156 85.214844 Z M 58.035156 85.214844 "/>
<path style=" stroke:none;fill-rule:nonzero;fill:rgb(13.72549%,12.156863%,12.54902%);fill-opacity:1;" d="M 58.820312 85.554688 C 58.320312 85.558594 57.835938 85.382812 57.460938 85.054688 L 57.289062 84.90625 C 56.875 84.550781 56.617188 84.042969 56.578125 83.496094 C 56.535156 82.949219 56.714844 82.40625 57.074219 81.992188 L 66.542969 71 C 66.628906 70.898438 66.78125 70.886719 66.882812 70.976562 L 69.824219 73.511719 C 69.871094 73.550781 69.898438 73.609375 69.902344 73.675781 C 69.90625 73.738281 69.886719 73.800781 69.847656 73.847656 L 60.378906 84.839844 C 60.023438 85.257812 59.511719 85.515625 58.964844 85.554688 L 58.808594 85.554688 Z M 57.613281 84.535156 L 57.78125 84.679688 C 58.449219 85.253906 59.453125 85.179688 60.027344 84.515625 L 69.359375 73.710938 L 66.78125 71.488281 L 57.460938 82.300781 C 57.183594 82.617188 57.046875 83.035156 57.078125 83.457031 C 57.113281 83.875 57.308594 84.265625 57.625 84.542969 Z M 57.613281 84.535156 "/>
<path style=" stroke:none;fill-rule:nonzero;fill:rgb(100%,100%,100%);fill-opacity:1;" d="M 65.023438 70.976562 L 74.246094 60.191406 L 79.015625 64.265625 L 69.789062 75.054688 Z M 65.023438 70.976562 "/>
<path style=" stroke:none;fill-rule:nonzero;fill:rgb(13.72549%,12.156863%,12.54902%);fill-opacity:1;" d="M 69.800781 75.628906 C 69.746094 75.628906 69.6875 75.609375 69.644531 75.570312 L 64.886719 71.492188 C 64.835938 71.449219 64.804688 71.390625 64.800781 71.328125 C 64.796875 71.261719 64.820312 71.199219 64.863281 71.152344 L 74.125 60.398438 C 74.167969 60.347656 74.226562 60.320312 74.289062 60.316406 C 74.351562 60.3125 74.414062 60.335938 74.464844 60.375 L 79.222656 64.453125 C 79.273438 64.496094 79.300781 64.554688 79.308594 64.617188 C 79.3125 64.683594 79.289062 64.746094 79.246094 64.792969 L 69.980469 75.546875 C 69.941406 75.597656 69.882812 75.625 69.820312 75.628906 Z M 65.382812 71.273438 L 69.769531 75.058594 L 78.722656 64.667969 L 74.335938 60.882812 Z M 65.382812 71.273438 "/>
<path style=" stroke:none;fill-rule:nonzero;fill:rgb(13.72549%,12.156863%,12.54902%);fill-opacity:1;" d="M 43.542969 96.25 L 57.585938 79.949219 C 58.15625 79.285156 59.152344 79.210938 59.816406 79.78125 L 62.171875 81.8125 C 62.832031 82.382812 62.90625 83.382812 62.335938 84.042969 L 48.296875 100.34375 C 47.726562 101.003906 46.726562 101.078125 46.066406 100.511719 L 43.710938 98.480469 C 43.046875 97.910156 42.972656 96.910156 43.542969 96.25 Z M 43.542969 96.25 "/>
<path style=" stroke:none;fill-rule:nonzero;fill:rgb(13.72549%,12.156863%,12.54902%);fill-opacity:1;" d="M 47.039062 100.867188 C 46.453125 100.867188 45.886719 100.65625 45.445312 100.273438 L 44.046875 99.070312 C 43.023438 98.183594 42.90625 96.636719 43.792969 95.613281 L 57.011719 80.265625 C 57.894531 79.246094 59.441406 79.128906 60.46875 80.007812 L 61.867188 81.210938 C 62.890625 82.097656 63.003906 83.644531 62.125 84.671875 L 48.90625 100.011719 C 48.480469 100.503906 47.878906 100.808594 47.230469 100.855469 L 47.042969 100.855469 Z M 58.867188 79.898438 C 58.816406 79.898438 58.769531 79.898438 58.71875 79.898438 C 58.191406 79.933594 57.703125 80.179688 57.359375 80.578125 L 44.140625 95.925781 C 43.425781 96.75 43.519531 98 44.347656 98.710938 L 45.742188 99.914062 C 46.570312 100.628906 47.820312 100.535156 48.53125 99.707031 L 61.75 84.367188 C 62.460938 83.539062 62.371094 82.292969 61.542969 81.578125 L 60.144531 80.375 C 59.789062 80.066406 59.332031 79.894531 58.855469 79.898438 Z M 58.867188 79.898438 "/>
<path style=" stroke:none;fill-rule:nonzero;fill:rgb(100%,100%,100%);fill-opacity:1;" d="M 95.707031 59.847656 C 95.707031 69.042969 88.25 76.5 79.054688 76.5 C 69.855469 76.5 62.398438 69.042969 62.398438 59.847656 C 62.398438 50.648438 69.855469 43.195312 79.054688 43.195312 C 88.25 43.195312 95.707031 50.648438 95.707031 59.847656 Z M 95.707031 59.847656 "/>
<path style=" stroke:none;fill-rule:nonzero;fill:rgb(13.72549%,12.156863%,12.54902%);fill-opacity:1;" d="M 79.027344 76.738281 C 72.425781 76.726562 66.441406 72.875 63.695312 66.875 C 60.949219 60.875 61.949219 53.824219 66.253906 48.824219 C 71.25 43.039062 79.503906 41.328125 86.386719 44.648438 C 93.265625 47.96875 97.0625 55.5 95.636719 63.007812 C 94.214844 70.515625 87.929688 76.132812 80.308594 76.703125 C 79.878906 76.734375 79.453125 76.75 79.03125 76.75 Z M 79.078125 43.417969 C 78.664062 43.417969 78.25 43.433594 77.832031 43.464844 C 73.488281 43.777344 69.449219 45.8125 66.613281 49.121094 C 61.578125 54.964844 61.289062 63.527344 65.921875 69.695312 C 70.554688 75.863281 78.859375 77.972656 85.875 74.765625 C 92.890625 71.554688 96.726562 63.894531 95.089844 56.355469 C 93.453125 48.816406 86.789062 43.433594 79.074219 43.421875 Z M 66.4375 48.976562 Z M 66.4375 48.976562 "/>
<path style=" stroke:none;fill-rule:nonzero;fill:rgb(100%,100%,100%);fill-opacity:1;" d="M 81.378906 46.214844 C 88.773438 47.410156 93.796875 54.375 92.605469 61.769531 C 91.410156 69.164062 84.445312 74.191406 77.050781 72.996094 C 69.65625 71.800781 64.628906 64.835938 65.824219 57.441406 C 67.019531 50.046875 73.984375 45.019531 81.378906 46.214844 Z M 81.378906 46.214844 "/>
<path style=" stroke:none;fill-rule:nonzero;fill:rgb(13.72549%,12.156863%,12.54902%);fill-opacity:1;" d="M 79.042969 73.605469 C 73.664062 73.605469 68.777344 70.46875 66.539062 65.578125 C 64.296875 60.6875 65.113281 54.941406 68.625 50.867188 L 68.804688 51.023438 L 68.625 50.867188 C 72.773438 46.046875 79.683594 44.695312 85.339844 47.597656 C 91 50.5 93.933594 56.902344 92.4375 63.082031 C 90.9375 69.261719 85.402344 73.613281 79.042969 73.605469 Z M 68.984375 51.167969 C 64.195312 56.726562 64.820312 65.117188 70.378906 69.90625 C 75.9375 74.695312 84.328125 74.074219 89.117188 68.511719 C 93.910156 62.953125 93.285156 54.5625 87.722656 49.773438 C 82.160156 44.992188 73.777344 45.617188 68.984375 51.167969 Z M 68.984375 51.167969 "/>
<path style=" stroke:none;fill-rule:nonzero;fill:rgb(100%,100%,100%);fill-opacity:1;" d="M 46.335938 125.511719 C 47.105469 123.8125 50.117188 104.449219 51.0625 102.828125 C 51.714844 101.710938 52.421875 100.253906 53.347656 99.339844 C 54.320312 98.378906 55.6875 97.800781 56.746094 96.847656 C 60.800781 93.175781 64.90625 89.050781 66.132812 83.714844 C 66.332031 82.855469 66.175781 81.613281 65.292969 81.566406 C 64.964844 81.582031 64.648438 81.699219 64.390625 81.90625 C 62.210938 83.332031 60.59375 85.710938 58.46875 87.007812 C 59.03125 86.632812 59.195312 82.105469 59.542969 81.226562 C 60.222656 79.484375 61.324219 77.878906 62.136719 76.152344 C 62.476562 75.472656 62.792969 74.675781 62.511719 73.964844 C 62.1875 73.3125 61.519531 72.90625 60.792969 72.917969 C 60.078125 72.941406 59.378906 73.101562 58.726562 73.390625 C 56.234375 74.335938 53.769531 75.34375 51.328125 76.421875 C 50.523438 76.738281 49.765625 77.164062 49.078125 77.691406 C 48.359375 78.359375 47.746094 79.140625 47.265625 80 C 45.40625 82.949219 40.078125 93.042969 39.285156 95.347656 C 39.003906 96.164062 30.667969 120.144531 30.234375 120.070312 C 30.289062 120.070312 46.34375 125.511719 46.34375 125.511719 Z M 46.335938 125.511719 "/>
<path style=" stroke:none;fill-rule:nonzero;fill:rgb(13.72549%,12.156863%,12.54902%);fill-opacity:1;" d="M 46.335938 125.75 C 46.308594 125.753906 46.285156 125.753906 46.261719 125.75 C 40.78125 123.898438 30.371094 120.386719 30.160156 120.308594 C 30.101562 120.296875 30.046875 120.261719 30.011719 120.210938 C 29.980469 120.160156 29.96875 120.097656 29.980469 120.035156 C 29.996094 119.96875 30.039062 119.90625 30.105469 119.875 C 30.882812 118.707031 37.996094 98.347656 39.050781 95.277344 C 39.835938 93.011719 45.109375 82.976562 47.054688 79.882812 C 47.546875 78.996094 48.175781 78.195312 48.917969 77.503906 C 49.625 76.964844 50.402344 76.523438 51.226562 76.199219 C 53.65625 75.128906 56.148438 74.105469 58.636719 73.167969 C 59.316406 72.863281 60.046875 72.695312 60.792969 72.675781 C 61.527344 72.699219 62.410156 73.078125 62.726562 73.871094 C 63.042969 74.664062 62.695312 75.515625 62.347656 76.25 C 62.003906 76.988281 61.613281 77.6875 61.230469 78.375 C 60.675781 79.320312 60.1875 80.300781 59.761719 81.3125 C 59.582031 82.074219 59.460938 82.851562 59.402344 83.632812 C 59.316406 84.546875 59.183594 85.453125 59.003906 86.351562 C 59.816406 85.714844 60.582031 85.015625 61.296875 84.269531 C 62.191406 83.316406 63.183594 82.453125 64.253906 81.699219 C 64.550781 81.460938 64.917969 81.328125 65.300781 81.316406 C 65.613281 81.332031 65.90625 81.488281 66.089844 81.742188 C 66.476562 82.257812 66.503906 83.125 66.359375 83.757812 C 65.113281 89.199219 60.824219 93.460938 56.898438 97.019531 C 56.378906 97.46875 55.820312 97.871094 55.234375 98.226562 C 54.625 98.59375 54.054688 99.019531 53.53125 99.5 C 52.824219 100.203125 52.222656 101.269531 51.699219 102.222656 C 51.558594 102.472656 51.421875 102.722656 51.285156 102.953125 C 50.792969 103.796875 49.648438 110.039062 48.632812 115.550781 C 47.722656 120.515625 46.933594 124.804688 46.574219 125.609375 C 46.535156 125.695312 46.449219 125.75 46.355469 125.75 Z M 30.578125 119.949219 C 31.40625 120.222656 34.503906 121.265625 46.191406 125.210938 C 46.570312 124.039062 47.371094 119.6875 48.144531 115.464844 C 49.210938 109.644531 50.320312 103.625 50.863281 102.710938 C 50.996094 102.484375 51.132812 102.238281 51.273438 101.988281 C 51.8125 101.019531 52.429688 99.925781 53.1875 99.175781 C 53.738281 98.667969 54.335938 98.222656 54.976562 97.839844 C 55.542969 97.496094 56.082031 97.105469 56.582031 96.675781 C 60.457031 93.171875 64.683594 88.984375 65.898438 83.664062 C 66.015625 83.152344 66.003906 82.429688 65.710938 82.042969 C 65.613281 81.898438 65.449219 81.8125 65.277344 81.804688 C 64.996094 81.824219 64.730469 81.933594 64.515625 82.109375 C 63.472656 82.847656 62.507812 83.6875 61.632812 84.621094 C 60.722656 85.597656 59.703125 86.472656 58.59375 87.21875 C 58.539062 87.257812 58.46875 87.269531 58.40625 87.253906 C 58.34375 87.242188 58.285156 87.203125 58.253906 87.144531 C 58.214844 87.09375 58.199219 87.023438 58.210938 86.960938 C 58.222656 86.894531 58.261719 86.839844 58.320312 86.804688 C 58.566406 86.59375 58.78125 84.703125 58.914062 83.570312 C 58.972656 82.75 59.105469 81.929688 59.304688 81.128906 C 59.742188 80.105469 60.238281 79.105469 60.800781 78.140625 C 61.179688 77.460938 61.574219 76.753906 61.90625 76.042969 C 62.242188 75.332031 62.519531 74.65625 62.273438 74.046875 C 62.03125 73.433594 61.347656 73.164062 60.765625 73.148438 C 60.082031 73.167969 59.414062 73.328125 58.792969 73.609375 C 56.3125 74.546875 53.824219 75.566406 51.40625 76.632812 C 50.625 76.941406 49.886719 77.355469 49.214844 77.863281 C 48.515625 78.519531 47.917969 79.28125 47.449219 80.117188 C 45.511719 83.175781 40.269531 93.167969 39.496094 95.417969 C 39.261719 96.097656 37.113281 102.21875 35.023438 108.117188 C 32.054688 116.429688 31.019531 119.09375 30.570312 119.929688 Z M 30.578125 119.949219 "/>
<path style=" stroke:none;fill-rule:nonzero;fill:rgb(13.72549%,12.156863%,12.54902%);fill-opacity:1;" d="M 70.304688 59.765625 L 69.914062 60.953125 L 69.410156 60.953125 L 70.691406 57.179688 L 71.28125 57.179688 L 72.566406 60.953125 L 72.046875 60.953125 L 71.640625 59.765625 Z M 71.542969 59.382812 L 71.171875 58.300781 C 71.085938 58.054688 71.03125 57.832031 70.976562 57.621094 C 70.921875 57.84375 70.855469 58.070312 70.785156 58.300781 L 70.414062 59.390625 L 71.554688 59.390625 Z M 71.542969 59.382812 "/>
<path style=" stroke:none;fill-rule:nonzero;fill:rgb(13.72549%,12.156863%,12.54902%);fill-opacity:1;" d="M 73.101562 58.976562 C 73.101562 58.699219 73.101562 58.464844 73.078125 58.242188 L 73.511719 58.242188 L 73.539062 58.691406 C 73.71875 58.367188 74.0625 58.171875 74.433594 58.179688 C 74.808594 58.179688 75.386719 58.40625 75.386719 59.332031 L 75.386719 60.949219 L 74.894531 60.949219 L 74.894531 59.386719 C 74.894531 58.953125 74.730469 58.589844 74.269531 58.589844 C 73.964844 58.59375 73.695312 58.796875 73.609375 59.09375 C 73.585938 59.164062 73.574219 59.242188 73.574219 59.320312 L 73.574219 60.949219 L 73.082031 60.949219 L 73.082031 58.972656 Z M 73.101562 58.976562 "/>
<path style=" stroke:none;fill-rule:nonzero;fill:rgb(13.72549%,12.156863%,12.54902%);fill-opacity:1;" d="M 77.691406 60.953125 L 77.648438 60.613281 C 77.453125 60.871094 77.144531 61.019531 76.820312 61.011719 C 76.605469 61.027344 76.390625 60.953125 76.234375 60.804688 C 76.078125 60.65625 75.988281 60.449219 75.992188 60.234375 C 75.992188 59.582031 76.574219 59.214844 77.621094 59.214844 L 77.621094 59.160156 C 77.644531 58.988281 77.585938 58.820312 77.464844 58.699219 C 77.347656 58.574219 77.175781 58.515625 77.007812 58.535156 C 76.757812 58.535156 76.515625 58.605469 76.304688 58.734375 L 76.191406 58.410156 C 76.457031 58.25 76.765625 58.167969 77.078125 58.171875 C 77.90625 58.171875 78.097656 58.734375 78.097656 59.277344 L 78.097656 60.300781 C 78.09375 60.515625 78.109375 60.734375 78.140625 60.949219 L 77.691406 60.949219 Z M 77.617188 59.570312 C 77.082031 59.570312 76.472656 59.65625 76.472656 60.179688 C 76.460938 60.308594 76.507812 60.429688 76.597656 60.523438 C 76.6875 60.613281 76.8125 60.660156 76.9375 60.648438 C 77.230469 60.65625 77.492188 60.472656 77.589844 60.195312 C 77.609375 60.148438 77.617188 60.09375 77.617188 60.039062 Z M 77.617188 59.570312 "/>
<path style=" stroke:none;fill-rule:nonzero;fill:rgb(13.72549%,12.156863%,12.54902%);fill-opacity:1;" d="M 78.878906 56.980469 L 79.371094 56.980469 L 79.371094 60.953125 L 78.878906 60.953125 Z M 78.878906 56.980469 "/>
<path style=" stroke:none;fill-rule:nonzero;fill:rgb(13.72549%,12.156863%,12.54902%);fill-opacity:1;" d="M 80.390625 58.246094 L 80.980469 59.84375 C 81.042969 60.023438 81.109375 60.234375 81.15625 60.398438 C 81.207031 60.234375 81.261719 60.027344 81.328125 59.832031 L 81.863281 58.246094 L 82.386719 58.246094 L 81.65625 60.179688 C 81.316406 61.109375 81.066406 61.585938 80.730469 61.878906 C 80.558594 62.035156 80.351562 62.144531 80.125 62.199219 L 80.003906 61.785156 C 80.160156 61.730469 80.304688 61.648438 80.433594 61.542969 C 80.613281 61.394531 80.753906 61.207031 80.847656 60.996094 C 80.871094 60.960938 80.882812 60.917969 80.890625 60.878906 C 80.886719 60.832031 80.875 60.789062 80.855469 60.746094 L 79.855469 58.253906 L 80.390625 58.253906 Z M 80.390625 58.246094 "/>
<path style=" stroke:none;fill-rule:nonzero;fill:rgb(13.72549%,12.156863%,12.54902%);fill-opacity:1;" d="M 82.539062 60.667969 L 83.761719 59.070312 C 83.882812 58.925781 83.988281 58.796875 84.101562 58.652344 L 82.636719 58.652344 L 82.636719 58.253906 L 84.699219 58.253906 L 84.699219 58.5625 L 83.492188 60.132812 C 83.382812 60.28125 83.269531 60.417969 83.152344 60.558594 L 84.738281 60.558594 L 84.738281 60.949219 L 82.539062 60.949219 L 82.539062 60.664062 Z M 82.539062 60.667969 "/>
<path style=" stroke:none;fill-rule:nonzero;fill:rgb(13.72549%,12.156863%,12.54902%);fill-opacity:1;" d="M 85.476562 59.6875 C 85.453125 59.941406 85.542969 60.191406 85.722656 60.371094 C 85.902344 60.550781 86.152344 60.644531 86.402344 60.625 C 86.660156 60.632812 86.914062 60.585938 87.152344 60.484375 L 87.238281 60.824219 C 86.953125 60.945312 86.644531 61 86.335938 60.992188 C 85.972656 61.015625 85.613281 60.878906 85.359375 60.617188 C 85.101562 60.355469 84.972656 59.996094 85.003906 59.632812 C 85.003906 58.816406 85.484375 58.175781 86.273438 58.175781 C 87.15625 58.175781 87.390625 58.953125 87.390625 59.449219 C 87.394531 59.523438 87.394531 59.601562 87.390625 59.675781 L 85.476562 59.675781 Z M 86.921875 59.347656 C 86.949219 59.148438 86.890625 58.945312 86.761719 58.792969 C 86.632812 58.640625 86.441406 58.550781 86.242188 58.546875 C 85.820312 58.578125 85.492188 58.925781 85.484375 59.347656 Z M 86.921875 59.347656 "/>
<path style=" stroke:none;fill-rule:nonzero;fill:rgb(13.72549%,12.156863%,12.54902%);fill-opacity:1;" d="M 87.820312 60.664062 C 87.820312 60.476562 87.972656 60.324219 88.160156 60.324219 C 88.351562 60.324219 88.503906 60.476562 88.503906 60.664062 C 88.503906 60.851562 88.351562 61.003906 88.160156 61.003906 C 87.972656 61.003906 87.820312 60.851562 87.820312 60.664062 Z M 87.820312 60.664062 "/>
<path style=" stroke:none;fill-rule:nonzero;fill:rgb(13.72549%,12.156863%,12.54902%);fill-opacity:1;" d="M 88.980469 60.664062 C 88.980469 60.476562 89.132812 60.324219 89.320312 60.324219 C 89.507812 60.324219 89.660156 60.476562 89.660156 60.664062 C 89.660156 60.851562 89.507812 61.003906 89.320312 61.003906 C 89.132812 61.003906 88.980469 60.851562 88.980469 60.664062 Z M 88.980469 60.664062 "/>
<path style=" stroke:none;fill-rule:nonzero;fill:rgb(13.72549%,12.156863%,12.54902%);fill-opacity:1;" d="M 48.316406 126.695312 L 50.710938 107.828125 L 34.5625 103.625 L 27.585938 126.695312 Z M 48.316406 126.695312 "/>
<path style=" stroke:none;fill-rule:nonzero;fill:rgb(13.72549%,12.156863%,12.54902%);fill-opacity:1;" d="M 48.316406 126.933594 L 27.578125 126.933594 C 27.503906 126.929688 27.433594 126.894531 27.386719 126.835938 C 27.34375 126.777344 27.328125 126.699219 27.347656 126.625 L 34.339844 103.558594 C 34.375 103.433594 34.503906 103.363281 34.625 103.398438 L 50.777344 107.601562 C 50.890625 107.628906 50.964844 107.738281 50.953125 107.859375 L 48.574219 126.726562 C 48.558594 126.84375 48.457031 126.929688 48.335938 126.933594 Z M 27.917969 126.460938 L 48.109375 126.460938 L 50.453125 108.007812 L 34.722656 103.929688 L 27.925781 126.472656 Z M 27.917969 126.460938 "/>
<path style=" stroke:none;fill-rule:nonzero;fill:rgb(13.72549%,12.156863%,12.54902%);fill-opacity:1;" d="M 142.414062 127.589844 L 137.804688 106.652344 L 122.28125 109.648438 C 122.28125 109.648438 123.164062 121.84375 123.640625 127.589844 Z M 142.414062 127.589844 "/>
<path style=" stroke:none;fill-rule:nonzero;fill:rgb(13.72549%,12.156863%,12.54902%);fill-opacity:1;" d="M 142.414062 127.839844 L 123.628906 127.839844 C 123.503906 127.839844 123.402344 127.746094 123.394531 127.621094 C 122.9375 121.941406 122.054688 109.804688 122.03125 109.679688 C 122.023438 109.5625 122.105469 109.453125 122.222656 109.433594 L 137.761719 106.421875 C 137.886719 106.394531 138.007812 106.476562 138.035156 106.601562 L 142.644531 127.539062 C 142.660156 127.609375 142.640625 127.679688 142.597656 127.738281 C 142.550781 127.792969 142.484375 127.824219 142.414062 127.828125 Z M 123.847656 127.367188 L 142.121094 127.367188 L 137.625 106.929688 L 122.535156 109.847656 C 122.65625 111.464844 123.421875 122.011719 123.847656 127.355469 Z M 123.847656 127.367188 "/>
</g>
</svg>
