<svg transform="scale(2)" version="1.1" id="Layer_1" xmlns="http://www.w3.org/2000/svg" xmlns:xlink="http://www.w3.org/1999/xlink" x="0px" y="0px" viewBox="0 0 500 500" xml:space="preserve" class="show_show__wrapper__graphic__5Waiy "><title>React</title><style type="text/css">
	.st0{fill:#999999;}
	.st1{fill:#F1F1F1;}
	.st2{opacity:0.48;fill:url(#Shadow_1_00000163764014170237542300000016778498140954374065_);enable-background:new    ;}
	.st3{fill:#3A9B7D;}
	.st4{fill:#76DDBD;}
	.st5{opacity:0.48;fill:url(#SVGID_1_);enable-background:new    ;}
	.st6{opacity:0.48;fill:url(#SVGID_00000101082301315202666520000015208163450630267527_);enable-background:new    ;}
	.st7{fill:#68aefd;}
	.st8{fill:#1B4075;}
	.st9{opacity:0.78;fill:#F1F1F1;enable-background:new    ;}
	.st10{opacity:0.47;fill:#1B4075;enable-background:new    ;}
	.st11{fill:#FF6753;}
	.st12{fill:#6949C1;}
	.st13{fill:#A07DEF;}
	.st14{fill:#FBB03B;}
</style><g id="Base_1"><ellipse class="st0" transform="matrix(3.716688e-02 -0.9993 0.9993 3.716688e-02 -101.054 579.106)" cx="250" cy="342" rx="102.6" ry="214.8"></ellipse><ellipse class="st1" transform="matrix(4.902403e-02 -0.9988 0.9988 4.902403e-02 -83.8243 555.8501)" cx="250" cy="321.9" rx="102.6" ry="214.8"></ellipse></g><linearGradient id="Shadow_1_00000138573551086299814180000017408754651497136828_" gradientUnits="userSpaceOnUse" x1="184.654" y1="66.9681" x2="222.874" y2="147.3281" gradientTransform="matrix(1 0 0 -1 0 502)"><stop offset="1.000000e-02" style="stop-color: rgb(241, 241, 241); stop-opacity: 0;"></stop><stop offset="1" style="stop-color: rgb(153, 153, 153);"></stop></linearGradient><path id="Shadow_1" d="
	M325.1,405.9c6.7-2.2,13.2-5,19.4-8.4c13.1-7.2,22.5-17.5,33.7-27c11.9-10.2,23.3-23.3,36.6-31.7l-173.5-52.4l-115.5-7.2
	c-4.6,0.2-13.4,7.9-17.6,10.2c-6.8,3.8-8-17.5-14.9-13.7c-17,9.4-41.5,34.7-37.7,56.1c3.6,20.5,29.7,33.4,45.6,43.2
	c29.9,18.4,64,28.8,98.5,34c34,5.2,71.3,7.8,105.4,1.9C311.9,409.6,318.6,408,325.1,405.9z" style="opacity: 0.48; fill: url(&quot;#Shadow_1_00000138573551086299814180000017408754651497136828_&quot;);"></path><g id="Base_2"><ellipse class="st3" cx="249.3" cy="312.7" rx="174.1" ry="83.2"></ellipse><ellipse class="st4" cx="249.3" cy="299.3" rx="174.1" ry="83.2"></ellipse></g><g id="Shadow_2"><linearGradient id="SVGID_1_" gradientUnits="userSpaceOnUse" x1="108.4428" y1="87.1771" x2="207.9428" y2="202.6271" gradientTransform="matrix(0.9999 -1.692889e-02 -1.692889e-02 -0.9999 -10.1821 497.3771)"><stop offset="1.000000e-02" style="stop-color: rgb(241, 241, 241); stop-opacity: 0;"></stop><stop offset="1" style="stop-color: rgb(27, 64, 117);"></stop></linearGradient><path class="st5" d="M165.8,265.8l-76.9,46.1c1.9,0.8,3.4,2.4,4.2,4.3c8.2,17.1,24.4,29.3,40.2,39.1c12.7,8,26.9,13.4,41.8,16
		c37.6-25.8,87.8-60.1,94.5-64.4l11.7-33.9L165.8,265.8z"></path><linearGradient id="SVGID_00000149370107926197986370000008028122889089878954_" gradientUnits="userSpaceOnUse" x1="279.8652" y1="122.1225" x2="330.9252" y2="166.3524" gradientTransform="matrix(1 0 0 -1 0 502)"><stop offset="1.000000e-02" style="stop-color: rgb(241, 241, 241); stop-opacity: 0;"></stop><stop offset="1" style="stop-color: rgb(27, 64, 117);"></stop></linearGradient><path d="
		M304.6,377.9c22.8-16.4,56.7-42.3,59.9-44.3l-10.6-3.5l-20.1-9.1L265.9,365C276.5,374.3,290.5,379,304.6,377.9z" style="opacity: 0.48; fill: url(&quot;#SVGID_00000149370107926197986370000008028122889089878954_&quot;);"></path></g><polygon class="st7" id="Monitor" points="327.9,55.1 327.9,138.4 402.9,180.9 402.9,97.7 "></polygon><g id="Line_connection"><path class="st1" d="M160.6,347.3l8.9-5.1l21.4-12.3l26.1-15l22.4-12.9l7.4-4.2c1.2-0.7,2.4-1.3,3.5-2l0.2-0.1
		c0.5-0.3,0.7-1,0.4-1.6c-0.1-0.2-0.4-0.4-0.6-0.5l-21.1-3.7c-2.8-0.5-5.7-1.1-8.6-1.5c-1.1-0.1-2.3,0.9-3.3,1.5L198.8,301l-24,14.6
		c-4.6,2.8-9.3,5.5-13.8,8.4l-0.2,0.1c-1.2,0.8-0.1,2.7,1.1,1.9l20-12.2l31.6-19.2l7.3-4.4l-0.9,0.1L246,295l3.7,0.6l-0.3-2.1
		l-8.9,5.1L219.1,311L193,326l-22.4,13l-7.4,4.2c-1.2,0.7-2.4,1.3-3.5,2l-0.1,0.1c-0.5,0.3-0.7,1-0.4,1.5S160.1,347.6,160.6,347.3
		L160.6,347.3z"></path><path class="st1" d="M249.2,295.3l12.8,13.3l0.2-1.8l-22.9,13.5L203,341.9l-8.3,4.9c-0.6,0.3-0.7,1-0.4,1.6s1,0.7,1.6,0.4
		l22.9-13.5l36.4-21.5l8.3-4.9c0.5-0.3,0.7-1,0.4-1.6c0-0.1-0.1-0.1-0.2-0.2l-12.8-13.4C249.8,292.7,248.2,294.3,249.2,295.3z"></path><ellipse class="st1" cx="159.8" cy="325.4" rx="6.5" ry="4.3"></ellipse><ellipse class="st1" cx="159.8" cy="346.3" rx="6.5" ry="4.3"></ellipse><ellipse class="st1" cx="196" cy="348.4" rx="6.5" ry="4.3"></ellipse></g><g id="Robot"><path class="st8" d="M286,225.5c0,0-2.5,64.6-4.6,71.3s-21.8,28.5-73.6,19.2s-4.2-158.1-4.2-158.1"></path><path class="st8" d="M228.7,72.6c0,0,79.7,3,90.4,66.3s-29.9,110.2-94.9,108.8"></path><path class="st7" d="M134.1,138.4c0,0-5.1,25-2.9,38.6s-5.2,38.8-0.5,58.1s12.1,65.1,34.8,66.5s82.3-9.6,95.9-35.8
		s51.1-111.6,28.4-150.3s-62.6-49.6-99.1-39.1S136.2,125.1,134.1,138.4z"></path><path class="st9" d="M203.4,73.6c0,0-68.3,22.4-45.9,57.6s123.1-28.8,123.1-28.8S262.8,66.8,203.4,73.6z"></path><path class="st7" d="M292.6,160.9c-2.6-0.7-5.2-1-7.9-1.1c-32.1-0.2-53.8,31-49.3,61.2c2.5,17.2,14.6,33.1,33.6,30.3
		c26.6-3.8,48.6-43.8,43.9-68.8C310.9,172,303,163.5,292.6,160.9z"></path><path class="st10" d="M292.6,160.9c-2.6-0.7-5.2-1-7.9-1.1c-32.1-0.2-53.8,31-49.3,61.2c2.5,17.2,14.6,33.1,33.6,30.3
		c26.6-3.8,48.6-43.8,43.9-68.8C310.9,172,303,163.5,292.6,160.9z"></path><path class="st7" d="M299,163.3c-2.6-0.7-5.2-1-7.9-1.1c-32.1-0.2-53.8,30.9-49.3,61.2c2.5,17.2,14.6,33.1,33.6,30.3
		c26.6-3.8,48.6-43.8,43.9-68.8C317.3,174.4,309.4,165.9,299,163.3z"></path><path class="st1" d="M211.9,200.8c-11,0.4-21.9,0-31.8-5.3c-3-1.6-5.6,2.9-2.6,4.5c10.7,5.7,22.5,6.4,34.5,6
		C215.3,205.9,215.3,200.6,211.9,200.8z"></path><path class="st1" d="M153.5,191.1c-8.4-0.1-16.6-2.7-23.5-7.4c-3.1-2.1-6,2.9-2.9,5c7.8,5.2,17,8.1,26.4,8.2
		C157.2,197,157.2,191.2,153.5,191.1z"></path></g><g id="Character"><path class="st1" d="M278.2,143.5l-3.3-11.5c-1.4-4.8,0.6-9.9,4.9-12.4l0,0c5.2-3,11.8-1.3,14.9,3.9c0.3,0.6,0.6,1.2,0.8,1.8
		l4,11.1c1.8,5.1-0.3,10.7-5,13.3l-0.7,0.4c-5.3,2.9-11.9,0.9-14.8-4.3C278.8,144.9,278.5,144.2,278.2,143.5z"></path><path class="st11" d="M360.6,301.9c0.8,1.8,4.1,26.7,3.9,31.6s-7.6,5.4-9.9,5.2s-6.7-2.2-9.5-2.4s-18.4-3-18-7.2s3.1-8.1,6.7-8.3
		s13,0.4,13,0.4l-1-22.6"></path><path class="st8" d="M363.6,326.7c-7.5,2.5-15.6,2.4-23-0.3c-2.8-0.9-5.1-3-6.3-5.7H334c-3.5,0.2-6.2,4.1-6.7,8.3
		s15.1,7.2,17.9,7.3s7.2,2.2,9.5,2.4s9.6-0.2,9.9-5.1c0-2.4-0.1-4.7-0.4-7.1L363.6,326.7z"></path><path class="st11" d="M294.3,131.4c0,0-3.5-5.1-3.5-7.6s3,0.8,3,0.8l-0.4-6.3c0,0,2.4,3.7,3.5,5.4s5,9.9,5.7,11.3s6.9,5.4,6.9,5.4
		s-1.8,5.8-3.7,6.2s-11.1-7.9-11.1-7.9L294.3,131.4z"></path><path class="st12" d="M305.9,133.6c0,0-6.9,6.1-5.7,13c0,0,8.7,17.2,18,20s14.7-15.6,12.1-18.3S305.9,133.6,305.9,133.6z"></path><path class="st11" d="M284.1,151.4c0,0-3.2-2.9-2.6-3.9s2-9.2,1.3-10.8c-1.2-2.9-4.3,3.6-4.3,3.6l-0.9-11.5c0,0-3.4,3.6-3.2,5.7
		s-0.2,15.9,0,16.9s3,8.4,3,8.4"></path><path class="st8" d="M357.4,184.2c-0.1-0.4,6.8,11.8,7.1,27.4c0.2,11.8,0.9,106.4,0.9,106.4s-10,5.9-28.9,0.4
		c-2.7-0.8-6.2-81.5-6.2-81.5l6.5-41.6"></path><path class="st11" d="M322.1,330.5c0.7,1.8,2.8,26.9,2.3,31.8s-7.9,5-10.1,4.7s-6.6-2.6-9.4-2.8s-18.2-4-17.6-8.1s3.5-7.9,7.1-8
		s13,1.1,13,1.1l0.2-22.6"></path><path class="st8" d="M330.6,302c0.1-0.5,0.3-0.9,0.4-1.3c1.8-12.2,5.1-24.2,10-35.6c1.2-6.5,2-10.8,2-11.1
		c5.6-22.4,1.4-28.5,2.8-62.3l-24.2,1.3c0,0-13.4,44.2-18.3,84.1c-1.2,9.6-2.7,61.6-2.7,61.6s12,8.3,26.5,3.6l0.5-2.8
		C324.6,327.1,327.3,314.2,330.6,302z"></path><path class="st13" d="M320.1,168.4c-0.6-9.4-4-14.3-1.9-23.4c6.7-7.3,19.4-16.2,20.8-16.5l7.2,1.7c6.2,1.4,10.6,6.9,10.8,13.2
		c0.4,14.5,0.9,38.8,0.3,40.7c-0.5,1.7-14.8,14.1-35.8,8.8C321,184.8,320.7,176.6,320.1,168.4z"></path><path class="st11" d="M322.8,113.1c0,0-3,21.8,5.1,23.6s16.8-7.7,17.2-12.2S333.5,105.3,322.8,113.1z"></path><path class="st14" d="M325.3,101.9c-0.9,0.3-8.2,4.8-7.8,7.8s1.7,9.7,3.9,8.6s2.1-5.1,3.9-2.1s3.2,5.3,5,4.5
		c1.1-0.4,2.4-0.4,3.4,0.1c0,0,0.1,15.7,1.9,14.7s9.5-4.3,12.2-9.1c1.8-3,2.2-8.6,1.7-13.1c-0.1-2.1-0.7-4.2-1.7-6.1
		C345.6,104.1,331.3,99.6,325.3,101.9z"></path><path class="st14" d="M347.9,107.3c0,0,8.7,11.3,8,25.1s-25.5,15.9-25.5,15.9l3.4-27.5"></path><path class="st13" d="M276.4,159.4c1.2-3.8,4-6.9,7.7-8.4c6.8,6.5,15.1,13.5,17.9,12.4c4-1.6,12-20.3,23.4-21.3
		s11.1,14.8,11.1,14.8s-19.9,30.7-30.7,31.2c-8.7,0.4-24.5-14.8-30.7-22.2C275.4,163.7,275.8,161.5,276.4,159.4z"></path><path class="st8" d="M318.7,354.4c-7.3,1.6-15.2,2.8-20.8-3.4c-0.8-0.8-1.4-1.8-1.8-2.9c-0.6,0-1.2,0-1.7,0c-3.5,0-6.4,3.9-7.1,8
		s14.8,7.8,17.6,8.1s7.1,2.5,9.4,2.8s9.7,0.2,10.1-4.7c0.1-2.8,0.1-5.5-0.1-8.3C322.4,354.5,320.5,354.6,318.7,354.4z"></path><path class="st9" d="M353.4,213.7c0.1-1.1-1.5-1.5-1.6-0.4c-6.1,42.9-28.5,83.4-25.1,127.6c0.1,1.1,1.8,1.1,1.7,0
		C325,296.8,347.3,256.5,353.4,213.7z"></path></g></svg>