<svg transform="scale(1)" id="_0535_instagram_post" xmlns="http://www.w3.org/2000/svg" viewBox="0 0 500 500" class="show_show__wrapper__graphic__5Waiy "><title>React</title><defs><style>.cls-1{opacity:.45;}.cls-1,.cls-2{fill:#e6e6e6;}.cls-3{fill:#f4a28c;}.cls-4,.cls-5{fill:#d9bc8f;}.cls-5,.cls-6{opacity:.44;}.cls-6,.cls-7{fill:#fff;}.cls-8{fill:#ce8172;opacity:.31;}.cls-9{opacity:.58;}.cls-9,.cls-10,.cls-11{fill:#df68fd;}.cls-12{opacity:.22;}.cls-12,.cls-13{fill:#000001;}.cls-7{opacity:.46;}.cls-14{fill:#24285b;}.cls-13{opacity:.08;}.cls-10{opacity:.73;}.cls-15{fill:#ffd200;}</style></defs><ellipse class="cls-1" id="bg" cx="256.84" cy="421.44" rx="229.08" ry="37.48"></ellipse><g id="tab"><rect class="cls-2" x="340.69" y="395.15" width="120.03" height="22.11" transform="translate(801.42 812.4) rotate(-180)"></rect><rect class="cls-4" x="340.69" y="372.94" width="105.72" height="22.11" transform="translate(787.11 767.98) rotate(-180)"></rect><path class="cls-9" d="m409.37,348.43s-19.33-5.28-23.54-23.28c0,0,29.96-6.05,30.81,24.87l-7.27-1.59Z"></path><path class="cls-10" d="m411.74,346.51s-13.51-21.36-1.62-41.32c0,0,22.78,14.47,12.66,41.37l-11.04-.05Z"></path><path class="cls-11" d="m415.22,346.53s7.14-22.55,28.71-26.82c0,0,4.04,14.64-13.97,26.89l-14.74-.06Z"></path><polygon class="cls-14" points="401.2 346.02 405.12 372.83 429.8 372.94 433.44 346.15 401.2 346.02"></polygon><rect class="cls-4" x="137.53" y="41.08" width="234.63" height="376.17"></rect><rect class="cls-2" x="155.89" y="62.19" width="197.92" height="292.79"></rect><rect class="cls-13" x="171" y="148.66" width="55.26" height="6.3"></rect><rect class="cls-13" x="171" y="160.13" width="43.38" height="6.3"></rect><rect class="cls-13" x="171" y="171.59" width="34.58" height="6.3"></rect><circle class="cls-11" cx="200.51" cy="110.88" r="32"></circle><rect class="cls-13" x="248.33" y="84.54" width="22.94" height="14.82"></rect><rect class="cls-13" x="246.12" y="105.02" width="27.36" height="4.73"></rect><rect class="cls-13" x="282.49" y="84.54" width="22.94" height="14.82"></rect><rect class="cls-13" x="280.28" y="105.02" width="27.36" height="4.73"></rect><rect class="cls-13" x="316.65" y="84.54" width="22.94" height="14.82"></rect><rect class="cls-13" x="314.44" y="105.02" width="27.36" height="4.73"></rect><rect class="cls-13" x="246.07" y="116.85" width="95.73" height="13.99"></rect><rect class="cls-5" x="155.89" y="222.33" width="65.97" height="65.97"></rect><rect class="cls-2" x="221.86" y="222.33" width="65.97" height="65.97"></rect><rect class="cls-5" x="287.83" y="222.33" width="65.97" height="65.97"></rect><rect class="cls-2" x="155.89" y="288.38" width="65.97" height="65.97"></rect><rect class="cls-5" x="221.86" y="288.38" width="65.97" height="65.97"></rect><rect class="cls-2" x="287.83" y="288.38" width="65.97" height="65.97"></rect><rect class="cls-7" x="221.86" y="222.33" width="65.97" height="65.97"></rect><rect class="cls-7" x="155.89" y="288.38" width="65.97" height="65.97"></rect><rect class="cls-7" x="287.83" y="288.38" width="65.97" height="65.97"></rect><rect class="cls-13" x="268.64" y="229.89" width="11.53" height="11.53"></rect><rect class="cls-13" x="202.23" y="301.84" width="11.53" height="11.53"></rect><circle class="cls-13" cx="190.16" cy="202.15" r="9.25"></circle><circle class="cls-13" cx="233.28" cy="202.15" r="9.25"></circle><circle class="cls-13" cx="276.41" cy="202.15" r="9.25"></circle><circle class="cls-13" cx="319.53" cy="202.15" r="9.25"></circle><circle class="cls-15" cx="221.86" cy="130.84" r="7"></circle><circle class="cls-2" cx="254.85" cy="384.11" r="13.78"></circle></g><g id="person"><path class="cls-3" d="m44.63,182.17c-.63,4.3,4.3,2.16,6.91,2.12,1.45-.02,2.56,1.29,3.96,1.68,5.32,1.48,4.4-4.61,4.01-7.84-.49-4.01-4.7-8.82-9.24-6.52-1.39.7-2.28,2.1-3,3.48-.99,1.9-1.8,3.91-2.39,5.98-.12.41-.2.78-.25,1.11Z"></path><path class="cls-11" d="m77.15,409.36s-2.85,5.37-8.04,5.07c-5.18-.3-7.24,4.51-2.83,6.48,4.42,1.97,17.14-2.25,17.14-2.25l.92-9.44-7.21.13Z"></path><path class="cls-3" d="m99.79,65.16s-.96,10.79.84,17.97c.73,2.91,3.73,4.71,6.63,3.94,3.6-.96,8.2-3.3,9.41-9.02l3.26-9.45s1.83-5.99-4.26-10.4c-6.1-4.41-15.63.36-15.88,6.97Z"></path><polygon class="cls-3" points="119.34 70.31 124.84 105.37 105.3 107.02 109.15 80.85 119.34 70.31"></polygon><path class="cls-14" d="m102.47,65.62c1.89.1,5.36.1,9.99-.74,0,0-3.4,4.71-.02,9.91,3.37,5.2,8.88,2.95,8.88,2.95l-.15-13.91c.09-4.06-2.04-7.85-5.57-9.85-1.44-.82-3.04-1.63-4.64-2.28-4-1.62-9.87,1.04-13.46-1.67-1.57-1.19-3.85-.25-4.15,1.7-.64,4.23.1,10.89,5.83,13.22,1.05.43,2.17.61,3.3.67Z"></path><path class="cls-3" d="m111.28,74.46s.09-4.17,3.22-3.84c3.13.33,3.04,6.35-1.22,6.91l-2-3.07Z"></path><path class="cls-3" d="m99.53,71.99l-3.03,4.16c-.75,1.03-.17,2.49,1.08,2.72l4.14.79-2.19-7.68Z"></path><path class="cls-8" d="m108.06,86.54s3.62-.73,6.35-3.76c0,0-.29,6.49-7.44,12.88l1.09-9.12Z"></path><path class="cls-11" d="m127.75,105.39l-24.33,2.05s-48.22,14.18-46.27,59.5c1.95,45.33,6.32,100.84,6.32,100.84l64.86,8.48s107.81-146.73-.57-170.87Z"></path><path class="cls-13" d="m128.36,135.48s-13.28,10.26-11.68,37.82c1.61,27.55,8.16,58.83-20.27,55.65-28.43-3.19-36.54-12.22-36.54-12.22l3.59,51.06,64.86,8.48,5.84-8.48s42.34-93.94-5.81-132.3Z"></path><path class="cls-14" d="m63.47,267.78l-17.41,14.49c-20.29,16.89-17.39,48.87,5.61,61.84l33.4,18.82,11.11-8.09-24.98-20.73c-6.94-5.76-6.21-16.62,1.44-21.39l8.9-5.56c4.95-3.09,10.49-5.1,16.28-5.83,9.64-1.22,25.72-6.13,30.51-25.06l-64.86-8.48Z"></path><path class="cls-11" d="m126.25,144.3c1.14-22.28,29.6-30.9,42.69-12.84,8.06,11.12,13.66,26.95,9.73,48.73-9.72,53.89-15.4,96.03-44.17,93.19-28.77-2.84-83.06-66.05-83.06-66.05l16.61-10.94s33.63,36.47,55.11,36.87c15.24.29,1.15-51.02,3.09-88.96Z"></path><rect class="cls-15" x="34.59" y="164.67" width="17.36" height="31.28" transform="translate(-53.44 22.1) rotate(-17.94)"></rect><path class="cls-6" d="m126.25,144.3c1.14-22.28,29.6-30.9,42.69-12.84,8.06,11.12,13.66,26.95,9.73,48.73-9.72,53.89-15.4,96.03-44.17,93.19-28.77-2.84-83.06-66.05-83.06-66.05l16.61-10.94s33.63,36.47,55.11,36.87c15.24.29,1.15-51.02,3.09-88.96Z"></path><path class="cls-3" d="m55.38,204.74s-11.94-9.15-8.14-16.04c3.8-6.89,18.96,8.92,18.96,8.92l-10.82,7.13Z"></path><path class="cls-14" d="m128.32,276.26l-43.97,132.97-11.04-.11s14.99-88.74,13.37-126.01l41.64-6.84Z"></path></g><g id="like"><path class="cls-2" d="m62.79,74.86H23.66c-5.29,0-9.58,4.29-9.58,9.58v22.49c0,5.29,4.29,9.58,9.58,9.58h14.66l4.91,13.74,4.91-13.74h14.66c5.29,0,9.58-4.29,9.58-9.58v-22.49c0-5.29-4.29-9.58-9.58-9.58Z"></path><path class="cls-12" d="m57.35,90.98c-.04,1.11-.17,2.2-.46,3.27-.42,1.51-1.19,2.83-2.18,4.03-.92,1.1-1.96,2.08-3.03,3.03-1.92,1.71-3.89,3.36-5.79,5.08-.86.78-1.72,1.57-2.57,2.37-.07.07-.11.07-.18,0-2.03-1.94-4.14-3.78-6.27-5.62-1.32-1.15-2.65-2.28-3.89-3.53-.97-.97-1.85-2-2.52-3.2-.63-1.13-1.01-2.33-1.2-3.61-.14-.93-.19-1.86-.16-2.79.08-3.3,2.36-6.1,5.59-6.81,2.64-.58,4.96.12,6.94,1.95.6.55,1.1,1.19,1.53,1.88.02.03.04.07.08.12.27-.45.56-.86.89-1.25,1.08-1.27,2.39-2.2,4.02-2.63,3.93-1.04,8.17,1.15,9.07,5.53.15.72.16,1.45.14,2.18Z"></path></g></svg>