<svg xmlns="http://www.w3.org/2000/svg" viewBox="0 0 500 500"><g id="freepik--background-complete--inject-34"><g><g><path d="M443.92,308.908h-180.746c-3.232,0-5.862-2.63-5.862-5.862V39.772c0-3.232,2.63-5.862,5.862-5.862h180.746c3.232,0,5.862,2.629,5.862,5.862V303.046c0,3.233-2.63,5.862-5.862,5.862ZM263.174,34.16c-3.095,0-5.612,2.518-5.612,5.612V303.046c0,3.095,2.518,5.612,5.612,5.612h180.746c3.095,0,5.612-2.518,5.612-5.612V39.772c0-3.094-2.518-5.612-5.612-5.612h-180.746Z" style="fill:#e0e0e0;"></path><path d="M235.493,308.908H54.746c-3.232,0-5.862-2.63-5.862-5.862V39.772c0-3.232,2.629-5.862,5.862-5.862H235.493c3.232,0,5.862,2.629,5.862,5.862V303.046c0,3.233-2.63,5.862-5.862,5.862ZM54.746,34.16c-3.094,0-5.612,2.518-5.612,5.612V303.046c0,3.095,2.518,5.612,5.612,5.612H235.493c3.095,0,5.612-2.518,5.612-5.612V39.772c0-3.094-2.518-5.612-5.612-5.612H54.746Z" style="fill:#e0e0e0;"></path></g><rect x="0" y="346.162" width="500" height=".25" style="fill:#e0e0e0;"></rect></g><path d="M465.029,424.68c-.435-1.12-1.496-1.887-2.673-2.129-8.7-1.793-16.912-.559-25.767,.142-27.067,1.022-86.536-11.062-112.955-.805-27.862,10.817-48.054,11.263-81.272,2.743,3.564,5.641-5.126,9.075-8.484,10.827-3.55,1.852-6.758,6.583-3.599,9.541,1.014,.949,2.41,1.365,3.799,1.376,12.149,.095,23.305-8.182,35.323-6.969,6.574,.664,12.481,4.105,18.588,6.629,6.107,2.524,13.275,4.109,19.164,1.114,4.989-2.538,8.227-7.984,13.533-9.768,5.123-1.722,10.669,.448,15.572,2.723,4.903,2.274,10.21,4.753,15.496,3.626s9.463-7.908,6.036-12.089c11.871-1.413,23.685,2.153,35.315,4.92,8.978,2.136,18.506,3.776,27.488,2.361,3.949-.622,4.715-5.92,1.141-7.712-.986-.495-2.016-.901-3.076-1.21,13.59,2.015,27.491,1.921,41.053-.276,2.793-.453,6.419-2.208,5.318-5.043Z" style="fill:#e0e0e0;"></path><path d="M427.83,435.751c0,1.323-3.75,2.395-8.375,2.395s-8.375-1.073-8.375-2.395,3.75-2.395,8.375-2.395,8.375,1.072,8.375,2.395Z" style="fill:#e0e0e0;"></path><path d="M224.14,430.562c0,3.228-12.9,5.845-28.812,5.845s-28.812-2.617-28.812-5.845,12.9-5.845,28.812-5.845,28.812,2.617,28.812,5.845Z" style="fill:#e0e0e0;"></path><rect x="51.672" y="363.344" width="16.06" height=".25" style="fill:#e0e0e0;"></rect><rect x="170.352" y="360.635" width="53.53" height=".25" style="fill:#e0e0e0;"></rect><rect x="68.732" y="372.635" width="36.25" height=".25" style="fill:#e0e0e0;"></rect><rect x="378.352" y="360.504" width="43.19" height=".25" style="fill:#e0e0e0;"></rect><rect x="430.452" y="360.504" width="6.33" height=".25" style="fill:#e0e0e0;"></rect><rect x="316.212" y="366.735" width="53.89" height=".25" style="fill:#e0e0e0;"></rect><path d="M189.458,151.41c-1.681-1.27-4.134-1.414-5.953-.349-2.413-4.877-9.139-7.029-13.936-4.46-1.251-5.255-6.429-9.295-11.831-9.23-5.402,.065-10.481,4.228-11.606,9.512-.179,.84-.297,1.76-.898,2.373-.976,.997-2.605,.662-3.995,.554-4.375-.341-8.777,2.73-9.967,6.954l60.247-.219c.528-2.04-.38-3.864-2.062-5.134Z" style="fill:#e6e6e6;"></path><path d="M283.857,73.299c-2.337-1.766-5.748-1.966-8.276-.485-3.355-6.781-12.706-9.773-19.375-6.201-1.74-7.306-8.939-12.923-16.449-12.832-7.51,.091-14.572,5.878-16.136,13.225-.248,1.168-.413,2.447-1.248,3.299-1.357,1.386-3.621,.921-5.555,.77-6.082-.474-12.202,3.796-13.856,9.668l83.761-.305c.734-2.836-.529-5.372-2.866-7.138Z" style="fill:#f0f0f0;"></path><path d="M176.123,101.948c-2.822-2.132-6.94-2.374-9.992-.586-4.051-8.187-15.341-11.8-23.393-7.486-2.101-8.822-10.792-15.602-19.86-15.493-9.068,.109-17.594,7.097-19.482,15.967-.3,1.409-.498,2.954-1.507,3.984-1.638,1.673-4.372,1.111-6.706,.929-7.344-.573-14.733,4.583-16.73,11.673l101.131-.368c.886-3.424-.639-6.486-3.461-8.619Z" style="fill:#e0e0e0;"></path><path d="M402.317,206.775c-2.358-1.782-5.798-1.983-8.349-.49-3.385-6.84-12.818-9.859-19.545-6.255-1.755-7.371-9.017-13.036-16.594-12.945-7.576,.091-14.7,5.93-16.277,13.341-.251,1.178-.416,2.468-1.259,3.328-1.368,1.398-3.653,.929-5.603,.776-6.136-.479-12.31,3.829-13.978,9.753l84.497-.307c.74-2.861-.534-5.419-2.892-7.201Z" style="fill:#f0f0f0;"></path><path d="M295.127,113.639c-1.201-.908-2.954-1.01-4.253-.249-1.724-3.485-6.53-5.023-9.958-3.187-.894-3.755-4.594-6.642-8.454-6.595-3.86,.046-7.489,3.021-8.293,6.797-.128,.6-.212,1.257-.641,1.696-.697,.712-1.861,.473-2.855,.396-3.126-.244-6.271,1.951-7.122,4.969l43.049-.157c.377-1.458-.272-2.761-1.473-3.669Z" style="fill:#ebebeb;"></path><path d="M443.562,179.965c-1.201-.908-2.954-1.01-4.253-.249-1.724-3.485-6.53-5.023-9.958-3.187-.894-3.755-4.594-6.642-8.454-6.595-3.86,.046-7.489,3.021-8.293,6.797-.128,.6-.212,1.257-.641,1.696-.697,.712-1.861,.473-2.855,.396-3.126-.244-6.271,1.951-7.122,4.969l43.049-.157c.377-1.458-.272-2.761-1.473-3.669Z" style="fill:#e0e0e0;"></path><path d="M119.643,188.743c-1.201-.908-2.954-1.011-4.253-.249-1.724-3.485-6.53-5.023-9.958-3.187-.894-3.755-4.594-6.642-8.454-6.595-3.86,.046-7.489,3.021-8.293,6.797-.128,.6-.212,1.257-.641,1.696-.697,.712-1.861,.473-2.855,.396-3.126-.244-6.271,1.951-7.122,4.969l43.049-.157c.377-1.458-.272-2.761-1.473-3.669Z" style="fill:#f0f0f0;"></path><path d="M431.54,70.364c-1.201-.908-2.954-1.01-4.253-.249-1.724-3.485-6.53-5.023-9.958-3.187-.894-3.755-4.594-6.642-8.454-6.595-3.86,.046-7.489,3.021-8.293,6.797-.128,.6-.212,1.257-.641,1.696-.697,.712-1.861,.473-2.855,.396-3.126-.244-6.271,1.951-7.121,4.969l43.049-.157c.377-1.458-.272-2.761-1.473-3.669Z" style="fill:#ebebeb;"></path><g><path d="M410.759,331.855c-5.872,.637-11.659,2.863-17.522,2.141-13.05-1.606-19.803-16.107-30.228-24.121-15.212-11.693-38.014-8.189-53.631,2.957-15.618,11.145-19.041,16.986-28.673,33.58l164.72-.033c-4.613-14.153-19.867-16.131-34.666-14.524Z" style="fill:#e0e0e0;"></path><path d="M414.048,284.035c-.597-3.875-2.492-7.433-5.374-10.092-.652,1.252-1.804,2.168-3.17,2.523,.776-1.212,1.281-2.577,1.48-4.003-2.015-1.568-4.272-2.753-6.534-3.468,6.479,.026,12.94-.903,19.165-2.797-7.59-5.659-16.626-6.347-22.105-3.125,1.813-2.373,3.531-4.817,5.126-7.345-.653-.245-1.326-.436-2.01-.572,.834-.263,1.71-.365,2.582-.303,.605-.933,1.228-1.909,1.867-2.918-8.787,1.913-15.308,8.704-13.241,14.495-4.824-6.492-16.711-3.638-24.459,5.007l4.356-.235c.467-.996,1.12-1.892,1.926-2.641-.269,.825-.477,1.668-.622,2.523,4.014-.184,8.015-.564,11.99-1.129-6.253,3.651-10.616,13.001-9.257,23.692,6.219-5.927,11.332-12.893,15.157-20.557-.754,3.129-.588,6.829,.527,10.264,.448,.069,.901,.1,1.354,.092-.364,.211-.743,.394-1.135,.547,.526,1.451,1.232,2.83,2.102,4.104,.701,.264,1.429,.453,2.17,.563-.462,.188-.941,.332-1.43,.429,1.04,1.299,2.294,2.411,3.709,3.288,2.106-4.138,1.957-8.716,.818-12.824,10.678,26.109,6.751,64.728,6.751,64.728h8.317s2.742-39.076-11.917-64.24c3.337,2.488,7.372,4.226,11.858,3.993Zm-21.024-15.482h-.004l-.006-.014,.01,.014Z" style="fill:#e0e0e0;"></path><path d="M429.174,303.574c-7.697,13.213-6.258,33.732-6.258,33.732h4.367s-2.062-20.279,3.545-33.989c-.598,2.157-.676,4.561,.429,6.734,.743-.461,1.401-1.044,1.947-1.727-.257-.051-.508-.126-.751-.225,.389-.058,.771-.157,1.139-.296,.457-.669,.828-1.393,1.104-2.155-.206-.08-.405-.176-.596-.287,.238,.004,.476-.012,.711-.049,.585-1.804,.672-3.746,.277-5.389,2.009,4.025,4.693,7.682,7.959,10.795,.714-5.614-1.578-10.523-4.861-12.441,2.087,.296,4.188,.496,6.296,.593-.077-.449-.186-.892-.327-1.325,.423,.393,.766,.864,1.011,1.387l2.287,.124c-4.069-4.54-10.311-6.038-12.844-2.629,1.086-3.041-2.339-6.607-6.953-7.611,.335,.53,.662,1.042,.98,1.532,.458-.033,.918,.021,1.356,.159-.359,.071-.712,.172-1.055,.3,.837,1.327,1.739,2.611,2.692,3.857-2.877-1.692-7.622-1.331-11.607,1.641,3.269,.995,6.661,1.482,10.063,1.469-1.187,.376-2.373,.998-3.431,1.821,.104,.749,.37,1.466,.777,2.102-.717-.186-1.322-.667-1.665-1.325-1.513,1.396-2.508,3.264-2.822,5.299,2.355,.122,4.475-.79,6.227-2.097Zm4.818-6.04l-.003,.007h-.002l.005-.007Z" style="fill:#e0e0e0;"></path><path d="M321.754,288.624c-.313-2.035-1.308-3.903-2.822-5.299-.342,.657-.947,1.139-1.665,1.325,.408-.636,.673-1.353,.777-2.102-1.058-.823-2.243-1.445-3.431-1.821,3.402,.014,6.795-.474,10.064-1.469-3.986-2.972-8.731-3.333-11.607-1.641,.952-1.246,1.854-2.53,2.691-3.857-.343-.128-.696-.229-1.055-.3,.438-.138,.898-.192,1.356-.159,.318-.49,.645-1.002,.98-1.532-4.614,1.004-8.038,4.57-6.953,7.611-2.533-3.409-8.775-1.911-12.844,2.629l2.287-.124c.245-.523,.588-.993,1.011-1.387-.141,.433-.25,.876-.327,1.325,2.108-.097,4.208-.296,6.296-.593-3.283,1.917-5.574,6.827-4.861,12.441,3.266-3.113,5.951-6.77,7.959-10.794-.396,1.643-.309,3.586,.276,5.389,.235,.036,.473,.053,.711,.049-.191,.111-.39,.207-.596,.287,.276,.762,.647,1.486,1.104,2.155,.368,.139,.75,.238,1.139,.296-.242,.099-.494,.174-.751,.225,.546,.682,1.205,1.266,1.947,1.727,1.106-2.173,1.027-4.577,.429-6.734,5.607,13.71,3.545,33.989,3.545,33.989h4.367s1.44-20.519-6.257-33.732c1.752,1.307,3.871,2.219,6.227,2.097Zm-11.04-8.13h-.002l-.003-.007,.005,.007Z" style="fill:#e0e0e0;"></path><path d="M337.669,259.962c-11.724,20.126-9.531,51.378-9.531,51.378h6.652s-3.141-30.887,5.399-51.769c-.911,3.286-1.03,6.947,.654,10.256,1.131-.702,2.134-1.591,2.966-2.63-.391-.078-.774-.193-1.143-.343,.593-.088,1.174-.24,1.735-.451,.696-1.019,1.261-2.122,1.681-3.282-.313-.122-.617-.268-.908-.437,.362,.006,.725-.018,1.083-.074,.891-2.747,1.024-5.706,.421-8.209,3.059,6.13,7.149,11.7,12.123,16.441,1.087-8.55-2.403-16.028-7.403-18.948,3.179,.451,6.379,.755,9.589,.903-.116-.684-.283-1.358-.498-2.018,.644,.599,1.167,1.316,1.54,2.112l3.484,.188c-6.197-6.915-15.704-9.197-19.562-4.005,1.654-4.631-3.562-10.063-10.59-11.593,.511,.807,1.009,1.587,1.493,2.334,.697-.05,1.398,.032,2.065,.242-.547,.109-1.085,.262-1.607,.457,1.275,2.022,2.649,3.977,4.099,5.874-4.382-2.577-11.608-2.027-17.679,2.499,4.979,1.515,10.146,2.258,15.328,2.237-1.808,.572-3.614,1.52-5.225,2.774,.159,1.14,.563,2.232,1.184,3.202-1.093-.283-2.014-1.017-2.536-2.018-2.305,2.126-3.82,4.972-4.298,8.071,3.588,.186,6.815-1.204,9.484-3.194Zm7.339-9.2l-.005,.011h-.003l.008-.011Z" style="fill:#e0e0e0;"></path></g><g><path d="M118.337,327.128c7.597,.825,24.154,9.44,37.843,18.834l-82.693-.042c5.968-18.311,25.703-20.87,44.85-18.791Z" style="fill:#ebebeb;"></path><path d="M129.423,260.092c-18.965,32.557-15.418,83.113-15.418,83.113h10.761s-5.081-49.965,8.734-83.745c-1.473,5.315-1.667,11.237,1.058,16.591,1.83-1.135,3.452-2.574,4.798-4.254-.633-.126-1.252-.312-1.85-.555,.959-.143,1.9-.388,2.807-.729,1.126-1.649,2.04-3.433,2.72-5.31-.507-.197-.998-.434-1.469-.707,.586,.01,1.172-.03,1.752-.12,1.442-4.444,1.656-9.23,.681-13.279,4.949,9.916,11.564,18.928,19.61,26.596,1.758-13.832-3.887-25.928-11.976-30.652,5.143,.73,10.319,1.221,15.512,1.46-.189-1.106-.458-2.197-.805-3.264,1.042,.969,1.888,2.129,2.492,3.417l5.636,.305c-10.025-11.186-25.404-14.877-31.645-6.479,2.675-7.492-5.763-16.278-17.131-18.753,.827,1.306,1.632,2.568,2.415,3.776,1.128-.081,2.261,.052,3.34,.392-.885,.176-1.755,.423-2.6,.74,2.063,3.27,4.286,6.433,6.632,9.503-7.088-4.169-18.779-3.279-28.599,4.043,8.054,2.45,16.413,3.652,24.795,3.618-2.926,.926-5.846,2.459-8.453,4.487,.257,1.844,.911,3.611,1.915,5.179-1.768-.458-3.258-1.645-4.102-3.264-3.729,3.44-6.18,8.042-6.952,13.056,5.804,.301,11.025-1.947,15.342-5.167Zm11.872-14.882l-.008,.017h-.005l.013-.017Z" style="fill:#ebebeb;"></path><path d="M102.568,293.251c-.405-2.633-1.693-5.05-3.651-6.856-.443,.85-1.226,1.473-2.154,1.714,.527-.824,.87-1.751,1.006-2.72-1.369-1.065-2.903-1.87-4.439-2.356,4.401,.018,8.791-.613,13.02-1.9-5.157-3.845-11.295-4.312-15.017-2.123,1.232-1.612,2.399-3.273,3.482-4.99-.444-.166-.901-.296-1.366-.388,.566-.178,1.162-.248,1.754-.206,.411-.634,.834-1.297,1.268-1.983-5.969,1.299-10.4,5.913-8.995,9.847-3.277-4.41-11.353-2.472-16.617,3.402l2.96-.16c.317-.676,.761-1.285,1.308-1.794-.182,.56-.324,1.133-.423,1.714,2.727-.126,5.445-.383,8.146-.767-4.248,2.48-7.212,8.832-6.289,16.095,4.225-4.027,7.699-8.759,10.297-13.966-.512,2.126-.399,4.639,.358,6.973,.304,.047,.612,.068,.92,.063-.247,.144-.505,.268-.771,.371,.357,.986,.837,1.922,1.428,2.788,.476,.179,.97,.308,1.474,.383-.314,.128-.639,.225-.971,.291,.707,.882,1.559,1.638,2.52,2.234,1.431-2.811,1.329-5.921,.556-8.712,7.255,17.738,4.586,43.974,4.586,43.974h5.65s1.863-26.547-8.096-43.642c2.267,1.69,5.008,2.871,8.056,2.713Zm-14.283-10.518h-.003l-.004-.01,.007,.01Z" style="fill:#ebebeb;"></path></g></g><g id="freepik--Shadow--inject-34"><path d="M404.812,464.529c0,4.506-73.636,8.16-164.47,8.16s-164.47-3.653-164.47-8.16,73.636-8.16,164.47-8.16,164.47,3.653,164.47,8.16Z" style="fill:#f5f5f5;"></path></g><g id="freepik--Lines--inject-34"><path d="M291.374,442.896c-9.211,0-18.437-.916-27.548-2.76-.135-.027-.223-.159-.195-.295,.028-.135,.164-.217,.295-.195,24.962,5.052,50.812,3.121,74.748-5.59,.131-.045,.273,.02,.321,.149,.047,.13-.021,.273-.149,.321-15.288,5.562-31.354,8.369-47.472,8.369Z" style="fill:#263238;"></path><path d="M306.211,451.31c-2.71,0-5.424-.193-8.124-.583-.137-.02-.231-.146-.211-.283,.02-.137,.133-.233,.283-.211,10.104,1.457,20.421,.145,29.837-3.799,.127-.054,.273,.006,.327,.134s-.007,.274-.134,.327c-6.983,2.925-14.46,4.415-21.979,4.415Z" style="fill:#263238;"></path></g><g id="freepik--Sun--inject-34"><g id="freepik--freepik--Sun--inject-5--inject-34"><g><path d="M391.824,112.43c0,2.992-4.326,5.368-5.065,8.123-.738,2.755,1.77,7.072,.331,9.561-1.439,2.49-6.4,2.443-8.454,4.487-2.054,2.045-1.96,6.996-4.487,8.454s-6.712-1.089-9.561-.331c-2.85,.757-5.14,5.065-8.123,5.065s-5.368-4.326-8.122-5.065c-2.755-.738-7.062,1.78-9.562,.331-2.499-1.448-2.433-6.4-4.487-8.454-2.054-2.054-6.987-1.95-8.454-4.487-1.467-2.537,1.089-6.74,.331-9.58-.757-2.84-5.065-5.131-5.065-8.123s4.326-5.358,5.065-8.113c.738-2.755-1.77-7.072-.331-9.561,1.439-2.49,6.4-2.442,8.454-4.497,2.054-2.054,1.96-6.986,4.487-8.454,2.528-1.467,6.712,1.098,9.561,.331s5.14-5.055,8.123-5.055,5.368,4.326,8.122,5.055c2.755,.729,7.062-1.77,9.561-.331,2.499,1.439,2.433,6.4,4.487,8.454,2.054,2.054,6.987,1.96,8.454,4.497,1.467,2.537-1.089,6.712-.331,9.561,.757,2.85,5.065,5.15,5.065,8.132Z" style="fill:#407BFF;"></path><path d="M391.824,112.43c0,2.992-4.326,5.368-5.065,8.123-.738,2.755,1.77,7.072,.331,9.561-1.439,2.49-6.4,2.443-8.454,4.487-2.054,2.045-1.96,6.996-4.487,8.454s-6.712-1.089-9.561-.331c-2.85,.757-5.14,5.065-8.123,5.065s-5.368-4.326-8.122-5.065c-2.755-.738-7.062,1.78-9.562,.331-2.499-1.448-2.433-6.4-4.487-8.454-2.054-2.054-6.987-1.95-8.454-4.487-1.467-2.537,1.089-6.74,.331-9.58-.757-2.84-5.065-5.131-5.065-8.123s4.326-5.358,5.065-8.113c.738-2.755-1.77-7.072-.331-9.561,1.439-2.49,6.4-2.442,8.454-4.497,2.054-2.054,1.96-6.986,4.487-8.454,2.528-1.467,6.712,1.098,9.561,.331s5.14-5.055,8.123-5.055,5.368,4.326,8.122,5.055c2.755,.729,7.062-1.77,9.561-.331,2.499,1.439,2.433,6.4,4.487,8.454,2.054,2.054,6.987,1.96,8.454,4.497,1.467,2.537-1.089,6.712-.331,9.561,.757,2.85,5.065,5.15,5.065,8.132Z" style="fill:#fff;"></path></g><circle cx="356.464" cy="112.426" r="25.267" transform="translate(-17.309 111.982) rotate(-17.437)" style="fill:#407BFF;"></circle></g></g><g id="freepik--Character--inject-34"><g><g><g><g><g id="freepik--freepik--fishes-1--inject-2--inject-34"><path d="M165.516,328.433s-9.909,3.432-9.516,4.411c.393,.979,7.089,4.705,7.089,4.705l-.485,1.821s-6.747,4.157-6.333,5.469c.413,1.312,2.616,1.559,2.616,1.559-.284,5.244-.199,10.082,2.583,14.591l2.912,.389,2.654,1.113s6.008-5.773,8.051-10.13c0,0,2.845,1.514,3.262,.382,.416-1.132-2.45-9.321-2.45-9.321l-7.83-13.79-2.552-1.197Z" style="fill:#263238;"></path><path d="M178.989,331.36s7.165,9.39,5.227,9.304c-.934,.778-3.166,.532-4.157-1.102l-2.481-4.519,1.412-3.684Z" style="fill:#263238;"></path><path d="M175.525,313.476s-20.146,13.993-12.978,48.737c.172,1.561-.248,3.13-1.177,4.397,.551,1.049,1.849,1.453,2.898,.902,.05-.026,.099-.055,.147-.085,.077-1.692,.516-3.349,1.29-4.856,0,0,8.393-8.333,13.164-26.255,4.77-17.922-1.988-23.934-1.988-23.934l.591,2.916-1.947-1.823Z" style="fill:#407BFF;"></path><path d="M161.375,366.563c.929-1.267,1.349-2.835,1.177-4.397-7.168-34.745,12.978-48.738,12.978-48.738l1.298,1.215-14.115,52.997c-.566-.177-1.044-.562-1.338-1.078Z" style="fill:#fff; opacity:.3;"></path><path d="M169.513,321.923s2.582,7.388,9.504,2.532c0,0-2.876,4.386-6.372,3.185-3.496-1.201-3.132-5.717-3.132-5.717Z" style="opacity:.3;"></path><path d="M173.486,320.833c.736-.005,1.326-.399,1.261-.998-.065-.599-.659-.988-1.395-.983-.736,.005-1.326,.399-1.266,.983,.06,.583,.632,.995,1.399,.998Z" style="fill:#263238;"></path></g><path d="M171.86,330.021l1.121,.002s2.223,7.84,.044,9.803c-1.068,.962-2.997,6.532-4.392,6.747-1.395,.214,3.227-16.552,3.227-16.552Z" style="fill:#263238;"></path></g><path d="M162.205,364.397s-10.024,6.147-9.712,7.318c.312,1.17,7.198-2.157,8.687-1.757,1.488,.399,3.954,6.747,5.045,6.71,1.091-.038-1.649-11.614-1.649-11.614l-1.117-.931-1.254,.275Z" style="fill:#263238;"></path></g><g><g><g id="freepik--freepik--fishes-1--inject-2-2--inject-34"><path d="M163.794,348.137s5.526-8.912,4.604-9.424c-.923-.512-8.468,.819-8.468,.819l-.772-1.719s2.615-7.48,1.467-8.238c-1.148-.758-3.013,.44-3.013,.44-3.086-4.249-6.203-7.949-11.205-9.695l-2.506,1.534-2.761,.81s-1.022,8.269,.14,12.939c0,0-3.163,.619-2.773,1.76,.391,1.141,7.779,5.689,7.779,5.689l14.773,5.765,2.735-.681Z" style="fill:#263238;"></path><path d="M151.492,354.362s-11.482-2.769-9.924-3.925c.235-1.193,2.122-2.409,3.921-1.767l4.775,1.942,1.227,3.75Z" style="fill:#263238;"></path><path d="M165.459,366.057s6.811-23.564-20.662-46.009c-1.118-1.103-1.781-2.586-1.859-4.154-1.089-.467-2.351,.038-2.818,1.127-.022,.052-.043,.105-.061,.159,1.008,1.362,1.711,2.924,2.061,4.582,0,0-1.259,11.76,6.34,28.677,7.599,16.917,16.636,17.322,16.636,17.322l-2.297-1.89,2.661,.186Z" style="fill:#407BFF;"></path><path d="M142.963,315.933c.078,1.569,.741,3.051,1.859,4.154,27.473,22.445,20.662,46.009,20.662,46.009l-1.774-.124-22.466-50.032c.551-.219,1.165-.222,1.718-.007Z" style="fill:#fff; opacity:.3;"></path><path d="M164.798,355.71s-6.663-4.106-8.973,4.029c0,0-.534-5.218,2.937-6.49,3.471-1.273,6.036,2.462,6.036,2.462Z" style="opacity:.3;"></path><path d="M162.402,359.061c-.568,.468-.777,1.146-.35,1.57,.428,.424,1.134,.351,1.702-.117,.568-.468,.777-1.146,.363-1.561-.414-.415-1.118-.374-1.716,.108Z" style="fill:#263238;"></path></g><path d="M157.87,350.905l-.871,.706s-6.669-4.683-6.216-7.581c.222-1.421-1.793-6.96-.846-8.006,.948-1.046,7.933,14.881,7.933,14.881Z" style="fill:#263238;"></path></g><path d="M143.685,318.137s3.903-11.092,2.923-11.804c-.98-.712-4.227,6.213-5.633,6.842-1.407,.629-7.324-2.743-8.147-2.026-.823,.717,8.603,7.974,8.603,7.974l1.454,.018,.8-1.004Z" style="fill:#263238;"></path></g><g><g><path d="M181.089,390.205l6.673-51.631h-54.753l6.673,51.631c-.578,.164-1.013,.676-1.013,1.305,0,.759,.621,1.38,1.379,1.38h40.673c.759,0,1.379-.621,1.379-1.38,0-.629-.435-1.141-1.013-1.305Z" style="fill:#263238;"></path><path d="M181.089,390.205l6.673-51.631h-54.753l6.673,51.631c-.578,.164-1.013,.676-1.013,1.305,0,.759,.621,1.38,1.379,1.38h40.673c.759,0,1.379-.621,1.379-1.38,0-.629-.435-1.141-1.013-1.305Z" style="fill:#fff; opacity:.4;"></path></g><polygon points="187.762 338.574 133.009 338.574 133.967 345.981 187.239 342.622 187.762 338.574" style="opacity:.2;"></polygon><g><path d="M191.515,336.132h-4.248c-1.094-13.877-12.728-24.837-26.881-24.837s-25.787,10.959-26.881,24.837h-4.248c-1.175,0-2.136,.961-2.136,2.136s.961,2.136,2.136,2.136h62.258c1.175,0,2.136-.961,2.136-2.136s-.961-2.136-2.136-2.136Zm-31.129-23.635c13.49,0,24.571,10.423,25.663,23.635h-51.327c1.092-13.212,12.174-23.635,25.663-23.635Z" style="fill:#263238;"></path><path d="M191.515,336.132h-4.248c-1.094-13.877-12.728-24.837-26.881-24.837s-25.787,10.959-26.881,24.837h-4.248c-1.175,0-2.136,.961-2.136,2.136s.961,2.136,2.136,2.136h62.258c1.175,0,2.136-.961,2.136-2.136s-.961-2.136-2.136-2.136Zm-31.129-23.635c13.49,0,24.571,10.423,25.663,23.635h-51.327c1.092-13.212,12.174-23.635,25.663-23.635Z" style="fill:#fff; opacity:.4;"></path></g></g><path d="M142.716,348.694c.98,2.552,2.315,5.121,4.565,6.654,2.097,1.507,5.264,2.006,7.289,.181,.913-.656,1.051-1.747,1.899-2.466,1.029-.798,2.663-.537,3.359,.588,2.02,3.078,1.258,7.057,1.43,10.335,.05,2.516,1.009,5.447,3.612,6.217,1.182,.363,2.47-.063,3.392-.939,3.093-2.986,2.194-7.588,3.526-11.459,.893-2.534,3.365-5.218,6.269-4.565-2.854-.413-5.073,2.234-5.802,4.715-1.263,4.319,.005,11.126-5.338,13.096-2.268,.733-4.662-.834-5.649-2.817-2.321-4.443,.43-9.916-2.185-14.106-.601-.979-2.179-.857-2.607,.278-1.79,3.56-6.666,3.666-9.48,1.335-2.275-1.764-3.506-4.425-4.28-7.048h0Z" style="fill:#fff; opacity:.5;"></path><path d="M154.679,373.941c-1.485,0-2.693-1.208-2.693-2.693s1.208-2.693,2.693-2.693,2.693,1.208,2.693,2.693-1.208,2.693-2.693,2.693Zm0-4.387c-.934,0-1.693,.76-1.693,1.693s.76,1.693,1.693,1.693,1.693-.76,1.693-1.693-.76-1.693-1.693-1.693Z" style="fill:#fff; opacity:.5;"></path></g><g><g><g><path d="M161.125,196.324l27.504,3.057s20.283-22.616,20.283-22.072,7.398,21.84,7.398,21.84c0,0-17.721,17.202-23.516,18.869-5.795,1.667-32.554-11.517-32.554-11.517l.884-10.177Z" style="fill:#ffbeb8;"></path><path d="M165.026,198.081s-9.367-6.853-11.843-5.936c-2.476,.917-14.548,2.604-13.052,5.844,.193,.418,4.451,.071,4.571,.433,.126,.379-2.617,.576-3.581,1.596-1.25,1.323,1.478,5.605,3.551,5.482,4.549-.27,8.036-1.04,8.036-1.04,0,0,5.664,3.675,9.603,2.871,3.939-.804,2.715-9.251,2.715-9.251Z" style="fill:#ffbeb8;"></path><path d="M160.383,204.057c-2.952,0-5.78-2.079-6.693-4.879-2.086,.756-4.265,1.224-6.479,1.392-.657,.051-1.394,.032-1.869-.474-.527-.563-.421-1.435-.043-2.004,.369-.555,.946-.901,1.505-1.208,2.472-1.358,5.112-2.398,7.845-3.091,.133-.035,.27,.047,.304,.181,.034,.134-.047,.27-.181,.304-2.692,.683-5.292,1.707-7.727,3.045-.505,.277-1.023,.586-1.33,1.046-.262,.396-.354,1.017-.008,1.386,.329,.351,.924,.357,1.466,.317,2.255-.171,4.473-.66,6.591-1.453,.065-.024,.139-.02,.201,.011,.062,.032,.108,.088,.127,.156,.761,2.722,3.465,4.773,6.291,4.773h.003c.138,0,.25,.112,.25,.25s-.112,.25-.25,.25h-.003Z" style="opacity:.2;"></path><path d="M153.183,192.145s-12.006,.391-12.854,1.604c-.848,1.212,5.232,.782,5.232,.782l7.623-2.385Z" style="fill:#ffbeb8;"></path></g><path d="M238.288,172.259c-2.571,22.807-33.97,42.101-33.97,42.101-6.657-.73-13.214-11.751-14.152-18.964,0,0,19.265-26.966,29.037-32.301,9.047-4.939,20.256-1.221,19.085,9.164Z" style="fill:#407BFF;"></path><g style="opacity:.3;"><path d="M238.288,172.259c-2.571,22.807-33.97,42.101-33.97,42.101-6.657-.73-13.214-11.751-14.152-18.964,0,0,19.265-26.966,29.037-32.301,9.047-4.939,20.256-1.221,19.085,9.164Z"></path></g><path d="M205.598,213.59l5.535-29.485-10.337,28.961s1.457,1.276,3.522,1.294c.115,.001,1.28-.77,1.28-.77Z" style="opacity:.2;"></path></g><g><g><path d="M232.228,318.132c5.659-21.807,20.444-47.803,11.095-68.802l-40.065-9.296s-1.564,52.393-1.844,72.79c-.294,21.209,4.194,47.624,4.194,47.624l22.783,.242s2.511-18.082,3.837-42.56Z" style="fill:#407BFF;"></path><path d="M232.228,318.132c5.659-21.807,20.444-47.803,11.095-68.802l-40.065-9.296s-1.564,52.393-1.844,72.79c-.294,21.209,4.194,47.624,4.194,47.624l22.783,.242s2.511-18.082,3.837-42.56Z" style="fill:#fff; opacity:.3;"></path><path d="M243.463,269.985c.19,5.04-.076,10.221-.626,15.44-1.983,6.861-4.517,13.731-6.795,20.393-2.98-18.865-2.989-40.853,7.421-35.833Z" style="opacity:.2;"></path><path d="M274.795,311.075c1.971-22.049,2.455-53.938,2.686-73.923l-44.716,10.976s5.31,45.032,9.285,65.374c4.13,21.152,8.799,47.244,8.799,47.244l22.946,.877s2.147-23.619,1-50.548Z" style="fill:#407BFF;"></path><path d="M204.196,300.521c-.98,0-1.778,.392-2.655,.956-.253,11.003-.192,21.258,.625,30.712,.651,.294,1.33,.45,2.03,.45,4.75,0,8.601-7.19,8.601-16.059s-3.851-16.059-8.601-16.059Z" style="opacity:.2;"></path><path d="M242.747,302.467c-.967,.159-1.612,.64-2.386,1.338,1.838,10.783,3.885,20.936,5.523,30.24,.69,.184,1.386,.228,2.076,.114,4.687-.771,7.32-8.49,5.881-17.242-1.439-8.752-6.406-15.221-11.094-14.45Z" style="opacity:.2;"></path><path d="M274.795,311.075c1.971-22.049,2.455-53.938,2.686-73.923l-44.716,10.976s5.31,45.032,9.285,65.374c4.13,21.152,8.799,47.244,8.799,47.244l22.946,.877s2.147-23.619,1-50.548Z" style="fill:#fff; opacity:.3;"></path></g><g><path d="M227.782,378.981c-.113,1.249,1.975,6.89,1.542,11.301-.102,1.028-.196,2.001-.28,2.854h-.002c-.185,1.896-.315,3.198-.315,3.198l-7.835,.068s-1.591-.828-2.521-.708c-.926,.122-4.147,.765-4.147,.765l-20.806,.179c.159-.874,.357-1.651,.585-2.342,.278-.842,.603-1.556,.966-2.161,1.271-2.115,3.023-2.879,4.935-3.015,2.912-.208,7.501-3.52,7.501-3.52l-3.936-27.926,26.121-.667-1.808,21.974Z" style="fill:#263238;"></path><path d="M218.371,395.694c.929-.12,2.521,.708,2.521,.708l7.835-.068s.129-1.302,.315-3.196h.002c.031-.314,.064-.658,.097-1-.767,.101-1.507,.219-1.507,.219l-5.084-3.728-3.389-.904-2.372,.452-2.033,1.502-.678,2.073h-3.615l-2.431,1.072c-3.841-1.243-4.654-1.259-4.654-1.259l-1.979,1.356c-.591,0-6.187,.791-6.526,.904l-.679-.066c-.066,.173-.13,.35-.192,.536-.228,.691-.427,1.469-.585,2.342l20.806-.179s3.221-.643,4.147-.764Z" style="opacity:.2;"></path><path d="M220.809,386.069l1.032,1.032h1.067l.723-1.032-.654-1.136s-.413-.413-.516-.413-1.652,1.548-1.652,1.548Z" style="opacity:.2;"></path><polygon points="211.279 388.389 209.979 389.272 211.279 390.324 212.797 390.324 212.587 389.062 211.279 388.389" style="opacity:.2;"></polygon><polygon points="211.194 387.211 211.791 387.723 212.129 386.958 211.868 386.574 211.349 386.492 211.194 387.211" style="opacity:.2;"></polygon></g><g><path d="M273.502,378.981c-.114,1.249,1.974,6.89,1.541,11.301-.102,1.028-.196,2.001-.28,2.854h-.002c-.185,1.896-.315,3.198-.315,3.198l-7.835,.068s-1.591-.828-2.521-.708c-.926,.122-4.147,.765-4.147,.765l-20.806,.179c.159-.874,.357-1.651,.585-2.342,.278-.842,.603-1.556,.966-2.161,1.271-2.115,3.023-2.879,4.935-3.015,2.912-.208,7.501-3.52,7.501-3.52l-3.936-27.926,26.121-.667-1.808,21.974Z" style="fill:#263238;"></path><path d="M264.091,395.694c.929-.12,2.521,.708,2.521,.708l7.835-.068s.13-1.302,.315-3.196h.002c.03-.314,.064-.658,.097-1-.767,.101-1.507,.219-1.507,.219l-5.084-3.728-3.389-.904-2.372,.452-2.033,1.502-.678,2.073h-3.615l-2.431,1.072c-3.841-1.243-4.654-1.259-4.654-1.259l-1.979,1.356c-.591,0-6.187,.791-6.526,.904l-.679-.066c-.066,.173-.13,.35-.191,.536-.228,.691-.427,1.469-.585,2.342l20.806-.179s3.221-.643,4.147-.764Z" style="opacity:.2;"></path><path d="M266.529,386.069l1.032,1.032h1.067l.723-1.032-.654-1.136s-.413-.413-.516-.413-1.652,1.548-1.652,1.548Z" style="opacity:.2;"></path><polygon points="257 388.389 255.699 389.272 257 390.324 258.518 390.324 258.308 389.062 257 388.389" style="opacity:.2;"></polygon><polygon points="256.915 387.211 257.511 387.723 257.849 386.958 257.589 386.574 257.069 386.492 256.915 387.211" style="opacity:.2;"></polygon></g></g><g><path d="M227.578,159.157c12.004-1.252,28.036-1.101,40.475,.644,7.764,1.089,13.246,5.921,12.305,21.824-1.909,32.257,1.229,64.714-2.876,76.312,0,0-59.056,8.952-76.082-7.445,2.918-36.132,8.953-70.197,15.311-83.615,2.033-4.291,6.144-7.227,10.867-7.72Z" style="fill:#407BFF;"></path><path d="M227.578,159.157c12.004-1.252,28.036-1.101,40.475,.644,7.764,1.089,13.246,5.921,12.305,21.824-1.909,32.257,1.229,64.714-2.876,76.312,0,0-59.056,8.952-76.082-7.445,2.918-36.132,8.953-70.197,15.311-83.615,2.033-4.291,6.144-7.227,10.867-7.72Z" style="opacity:.3;"></path></g><g><g><path d="M247.103,110.053c-7.948,1.436-17.813,11.355-17.813,11.355,0,0-.103,8.68,9.151,14.619s16.617,5.816,20.511,2.159c3.219-3.022,2.689-14.855,2.408-18.869-.071-1.017-.418-2.008-1.059-2.801-1.393-1.721-3.429-2.873-5.707-3.176,0,0-2.229-4.146-7.491-3.287Z" style="fill:#407BFF;"></path><path d="M247.103,110.053c-7.948,1.436-17.813,11.355-17.813,11.355,0,0-.103,8.68,9.151,14.619s16.617,5.816,20.511,2.159c3.219-3.022,2.689-14.855,2.408-18.869-.071-1.017-.418-2.008-1.059-2.801-1.393-1.721-3.429-2.873-5.707-3.176,0,0-2.229-4.146-7.491-3.287Z" style="opacity:.2;"></path><path d="M240.974,112.429c.229-.126,14.7,3.108,20.603,12.863l-.01,2.791-22.415-14.573,1.822-1.081Z" style="opacity:.2;"></path><path d="M234.801,112.426c-16.44-2.449-18.422,18.151-.556,29.087,17.866,10.936,36.916,9.455,36.593,2.106-.368-8.358-10.935-27.421-36.037-31.193Z" style="fill:#407BFF;"></path><path d="M258.88,133.384s2.477,4.26,2.734,7.911c.351,4.992-4.297,8.028-4.297,8.028l-3.74-.43,.486-6.383,4.817-9.125Z" style="opacity:.2;"></path></g><path d="M234.6,124.577c-4.405,3.329-6.099,5.021-6.099,5.021,0,0,1.285,.395,2.155,.004-1.819,3.167-1.107,7.497-.198,8.782,4.488-4.211,4.141-13.807,4.141-13.807Z" style="fill:#263238;"></path><path d="M234.6,124.577c-4.405,3.329-6.099,5.021-6.099,5.021,0,0,1.285,.395,2.155,.004-1.819,3.167-1.107,7.497-.198,8.782,4.488-4.211,4.141-13.807,4.141-13.807Z" style="fill:#fff; opacity:.5;"></path><path d="M256.049,158.653c-3.002-2.692-2.865-7.305-2.503-14.082l-18.42,9.939c.948,1.891,1.186,3.612,.852,5.256l4.474,8.738s15.984-9.325,15.597-9.851Z" style="fill:#ffbeb8;"></path><path d="M235.397,155.086l14.544-3.638c-3.673,5.782-10.293,8.945-13.85,7.547,.111-1.243-.1-2.529-.694-3.909Z" style="opacity:.2;"></path><path d="M241.418,121.924c7.044,.694,16.934,6.952,16.071,14.572-1.003,8.854-3.329,14.591-9.356,17.558-11.974,5.895-17.821,.209-18.798-8.9-.88-8.198,2.126-24.212,12.083-23.231Z" style="fill:#ffbeb8;"></path><path d="M253.488,127.538c.457,3.808-.084,7.517-2.126,8.549,2.742,.083,3.731-.448,3.731-.448,0,0-4.869,3.694-1.604,6.067,3.739-2.135,6.257-5.76,6.257-5.76,0,0-.633-4.907-6.257-8.408Z" style="fill:#263238;"></path><path d="M244.8,136.05s1.921-.658,3.356,.241c-1.847,.234-3.356-.241-3.356-.241Z" style="opacity:.2;"></path><path d="M244.796,136.853s1.84-.223,2.891,.971c-1.676-.176-2.891-.971-2.891-.971Z" style="opacity:.2;"></path><path d="M236.128,136.467l.043,6.531s-2.102,.52-3.348-.622c.705-3.343,3.305-5.908,3.305-5.908Z" style="fill:#ff7c77;"></path><path d="M253.488,127.538c-3.299-.146-12.077-2.637-12.077-2.637,0,0,1.227-.87,2.59-.989-4.409,.079-6.765,2.254-12.961,1.028,.921-1.661,5.858-4.142,12.326-3.059,6.467,1.082,10.122,5.657,10.122,5.657Z" style="fill:#263238;"></path><path d="M253.488,127.538c.457,3.808-.084,7.517-2.126,8.549,2.742,.083,3.731-.448,3.731-.448,0,0-4.869,3.694-1.604,6.067,3.739-2.135,6.257-5.76,6.257-5.76,0,0-.633-4.907-6.257-8.408Z" style="fill:#fff; opacity:.5;"></path><path d="M253.488,127.538c-3.299-.146-12.077-2.637-12.077-2.637,0,0,1.227-.87,2.59-.989-4.409,.079-6.765,2.254-12.961,1.028,.921-1.661,5.858-4.142,12.326-3.059,6.467,1.082,10.122,5.657,10.122,5.657Z" style="fill:#fff; opacity:.5;"></path><path d="M260.01,142.886c-.913,2.226-2.772,3.812-4.613,4.532-2.769,1.083-3.502-1.904-3.003-4.683,.449-2.501,1.456-5.506,4.365-5.402,2.866,.103,4.294,3.008,3.251,5.553Z" style="fill:#ffbeb8;"></path><path d="M244.429,136.839c-.08,.91-.628,1.6-1.223,1.541-.595-.059-1.012-.843-.932-1.753,.08-.91,.628-1.6,1.223-1.541,.595,.058,1.012,.843,.932,1.753Z" style="fill:#263238;"></path><path d="M234.988,135.924c-.08,.91-.628,1.599-1.223,1.541-.595-.059-1.012-.843-.932-1.753,.08-.91,.628-1.6,1.223-1.541,.595,.059,1.012,.843,.932,1.753Z" style="fill:#263238;"></path><path d="M245.329,132.148c-.142,.044-.304,.012-.422-.098-1.4-1.305-2.935-.956-2.95-.953-.23,.055-.462-.086-.52-.315-.057-.229,.084-.459,.312-.514,.081-.02,2.005-.458,3.741,1.162,.174,.162,.183,.431,.023,.602-.052,.056-.115,.093-.184,.114Z" style="fill:#263238;"></path><path d="M253.644,139.792s-1.201-1.131-2.624,.767c-1.423,1.898-.246,4.616-4.535,3.34-3.677-1.094-5.187-1.575-7.397,.092-4.267-.419-8.209,.088-9.197,.76-.949-1.26-.637-3.125-.538-5.895-1.33,5.629-3.111,10.484-1.477,12.591,0,0,.452-.846,.727-1.083-.002,2.57,1.778,5.623,3.952,6.888,.269-.936,.269-1.582,.269-1.582,0,0,2.031,1.146,6.376,1.047-.231,.473-.576,1.029-1.018,1.291,1.41-.147,4.262-.9,5.959-1.862,.22-.043,.431-.079,.659-.128-.502,.751-.594,1.463-.449,2.122,7.628-2.119,8.625-9.32,8.053-12.165-.636-3.164,1.24-6.184,1.24-6.184Z" style="fill:#263238;"></path><path d="M253.644,139.792s-1.201-1.131-2.624,.767c-1.423,1.898-.246,4.616-4.535,3.34-3.677-1.094-5.187-1.575-7.397,.092-4.267-.419-8.209,.088-9.197,.76-.949-1.26-.637-3.125-.538-5.895-1.33,5.629-3.111,10.484-1.477,12.591,0,0,.452-.846,.727-1.083-.002,2.57,1.778,5.623,3.952,6.888,.269-.936,.269-1.582,.269-1.582,0,0,2.031,1.146,6.376,1.047-.231,.473-.576,1.029-1.018,1.291,1.41-.147,4.262-.9,5.959-1.862,.22-.043,.431-.079,.659-.128-.502,.751-.594,1.463-.449,2.122,7.628-2.119,8.625-9.32,8.053-12.165-.636-3.164,1.24-6.184,1.24-6.184Z" style="fill:#fff; opacity:.5;"></path><path d="M238.895,145.757c-.14,0-.283-.007-.428-.021-.137-.013-.238-.135-.225-.273,.014-.138,.143-.23,.273-.225,1.225,.12,2.346-.312,3.743-1.437,.108-.085,.265-.07,.352,.038,.086,.107,.069,.265-.038,.352-.974,.784-2.163,1.566-3.676,1.566Z" style="fill:#263238;"></path><path d="M253.902,143.479c-.017,0-.033-.001-.05-.005-.136-.028-.223-.16-.195-.295,.164-.802,.536-1.551,1.076-2.164,.366-.416,.97-.938,1.766-1.061,.783-.122,1.572,.229,1.916,.85,.066,.121,.023,.273-.098,.34-.12,.066-.272,.024-.34-.098-.241-.435-.829-.682-1.402-.598-.647,.1-1.155,.543-1.467,.897-.482,.548-.814,1.217-.961,1.934-.024,.119-.129,.2-.245,.2Z" style="opacity:.2;"></path><path d="M230.193,131.441c-.077-.024-.149-.07-.205-.139-.15-.184-.125-.454,.057-.603,1.818-1.5,3.691-.906,3.779-.89,.224,.073,.35,.314,.28,.539-.07,.225-.306,.349-.53,.279-.077-.028-1.526-.467-2.986,.737-.114,.094-.263,.118-.395,.077Z" style="fill:#263238;"></path></g><g><path d="M190.783,244.698c-1.741,0-3.427-.089-5.065-.268-8.332-.908-15.704-4.24-20.759-9.382-8.559-8.707-13.741-21.216-14.591-35.222l.498-.048c.043,.331,4.681,33.125,34.065,37.944,29.695,4.875,51.856-14.286,61.07-27.39-14.829,11.955-31.734,18.139-47.829,17.457-16.87-.718-37.655-10.833-44.741-28.776l.465-.184c7.008,17.745,27.589,27.749,44.298,28.459,16.585,.719,34.051-5.95,49.182-18.74l.549-.464-.143,.705c-1.686,8.331-6.899,16.202-14.68,22.162-6.361,4.874-14.367,8.528-24.475,11.171-6.587,1.723-12.474,2.575-17.843,2.575Zm-39.51-40.582c1.551,12.125,6.458,22.865,14.042,30.581,4.974,5.061,12.239,8.34,20.456,9.235,6.629,.723,14.064-.029,22.728-2.293,10.043-2.626,17.991-6.252,24.298-11.084,7.388-5.661,12.431-13.057,14.286-20.918-8.845,13.204-31.541,33.614-62.234,28.578-23.262-3.815-31.199-24.913-33.576-34.099Z"></path><rect x="150.5" y="202.458" width="4.663" height=".5" transform="translate(-55.724 57.958) rotate(-18.222)"></rect><rect x="151.5" y="207.149" width="6.296" height=".501" transform="translate(-71.129 81.086) rotate(-24.065)"></rect><rect x="152.427" y="211.927" width="8.446" height=".5" transform="translate(-80.908 97.614) rotate(-27.816)"></rect><rect x="154.292" y="216.513" width="10.662" height=".5" transform="translate(-82.704 99.532) rotate(-27.816)"></rect><rect x="156.491" y="221.119" width="13.783" height=".501" transform="translate(-94.844 126.408) rotate(-33.38)"></rect><rect x="159.749" y="225.491" width="16.022" height=".5" transform="translate(-106.913 165.265) rotate(-40.965)"></rect><rect x="163.608" y="229.245" width="17.851" height=".5" transform="translate(-113.758 207.743) rotate(-48.719)"></rect><rect x="167.855" y="232.182" width="19.207" height=".5" transform="translate(-114.767 243.398) rotate(-54.788)"></rect><rect x="173.635" y="234.168" width="19.597" height=".5" transform="translate(-111.012 278.021) rotate(-60.38)"></rect><rect x="181.556" y="235.586" width="18.239" height=".5" transform="translate(-98.485 327.28) rotate(-68.593)"></rect><path d="M195.049,233.589c-17.403,0-28.157-9.165-34.135-16.907-6.547-8.48-8.927-17.132-8.95-17.219l.482-.13c.023,.085,2.383,8.655,8.874,17.057,5.979,7.739,16.783,16.935,34.363,16.695,.292,.011,28.858,.457,51.311-24.216l.37,.337c-22.609,24.845-51.409,24.38-51.684,24.379-.21,.002-.423,.004-.631,.004Z"></path><rect x="189.442" y="235.697" width="16.921" height=".5" transform="translate(-63.211 399.214) rotate(-82.028)"></rect><rect x="204.335" y="227.381" width=".5" height="15.455"></rect><rect x="210.96" y="226.724" width=".5" height="14.169" transform="translate(-37.535 40.412) rotate(-10.042)"></rect><rect x="220.659" y="224.342" width=".5" height="12.737" transform="translate(-70.004 98.81) rotate(-21.854)"></rect><rect x="227.463" y="221.811" width=".5" height="11.413" transform="translate(-84.038 147.339) rotate(-30.552)"></rect><rect x="234.75" y="217.957" width=".5" height="9.327" transform="translate(-88.531 233.219) rotate(-45.327)"></rect><rect x="239.79" y="214.668" width=".5" height="6.876" transform="translate(-69.461 315.05) rotate(-59.651)"></rect><circle cx="212.445" cy="240.785" r="2.807" style="fill:#407BFF;"></circle><path d="M241.033,226.803c0,1.55-1.257,2.807-2.807,2.807s-2.807-1.257-2.807-2.807,1.257-2.807,2.807-2.807,2.807,1.257,2.807,2.807Z" style="fill:#407BFF;"></path><circle cx="179.092" cy="243.479" r="2.807" style="fill:#407BFF;"></circle><path d="M160.271,226.417c0,1.55-1.257,2.807-2.807,2.807s-2.807-1.257-2.807-2.807,1.257-2.807,2.807-2.807,2.807,1.257,2.807,2.807Z" style="fill:#407BFF;"></path><path d="M154.494,201.906c0,1.55-1.257,2.807-2.807,2.807s-2.807-1.257-2.807-2.807,1.257-2.807,2.807-2.807,2.807,1.257,2.807,2.807Z" style="fill:#407BFF;"></path></g><g><path d="M274.776,172.766c1.262,2.058,12.947-.517,16.563,9.965,3.616,10.482,13.143,33.788,10.651,42.127-2.492,8.339-45.632-11.741-45.632-11.741l1.152-11.408,22.173,4.552-4.907-33.494Z" style="fill:#ffbeb8;"></path><path d="M271.377,160.612c21.66,7.591,33.47,44.98,33.47,44.98-2.195,6.327-18.787,1.167-26.028,.473,0,0-17.607-18.176-20.63-28.891-2.798-9.92,3.325-20.018,13.188-16.562Z" style="fill:#407BFF;"></path><g style="opacity:.3;"><path d="M271.377,160.612c21.66,7.591,33.47,44.98,33.47,44.98-2.195,6.327-18.787,1.167-26.028,.473,0,0-17.607-18.176-20.63-28.891-2.798-9.92,3.325-20.018,13.188-16.562Z"></path></g><path d="M278.819,206.065l-6.183-13.235s.824,11.828,1.544,12.181l4.639,1.054Z" style="opacity:.2;"></path><path d="M252.455,200.457s-5.292-2.611-9.482-2.829c-4.191-.219-6.11,9.568-6.11,9.568-.354,7.245,5.88,4.849,5.88,4.849,1.082,3.861,4.775,2.43,4.775,2.43,.843,3.897,3.537,2.333,3.537,2.333,.829-4.154,5.301-3.691,5.301-3.691l10.419,4.152,16.29-8.257-30.612-8.555Z" style="fill:#ffbeb8;"></path></g></g><g><path d="M38.546,346.521s43.37,52.27,108.877,64.52c38.715,7.239,247.595,3.226,247.595,3.226l29.034-42.745s-229.046-5.646-385.506-25.001Z" style="fill:#a24e3f;"></path><path d="M147.424,411.041c6.713,1.255,18.545,2.172,33.515,2.83l119.3,1.453c51.107-.219,94.781-1.058,94.781-1.058l28.838-42.456-1.497-.079c-26.239,35.286-165.071,29.008-232.477,26.707-97.883-3.341-151.336-51.917-151.336-51.917,0,0,43.37,52.271,108.877,64.52Z" style="opacity:.2;"></path></g><g><g><path d="M285.154,430.562c-14.857,0-28.966-2.787-41.748-5.984-.388-.178-.959-.449,2.184-104.622,1.551-51.41,3.274-103.418,3.291-103.938l.005-.15,4.14-2.029,.126,.139c1.88,2.059,187.113,204.909,190.888,208.505l.955,.102-.965,.374c-.028,.011-.052,.018-.113-.016l-.003,.03-1.612-.171c-47.156-4.985-95.914-10.142-120.191,1.129-12.598,4.832-25.02,6.632-36.956,6.632Zm-41.493-6.431c22.912,5.719,50.159,10.114,78.254-.661,24.387-11.321,73.217-6.158,120.438-1.166l.963,.102c-1.66-1.649-7.531-8.014-29.561-32.041-15.855-17.294-37.937-41.42-65.629-71.706-45.956-50.261-92.45-101.176-95.218-104.206l-3.533,1.731c-2.333,70.363-6.494,203.339-5.715,207.947Z"></path><rect x="284.872" y="209.794" width=".5" height="220.32" transform="translate(-86.391 106.312) rotate(-18.393)"></rect><rect x="303.567" y="201.683" width=".501" height="228.112" transform="translate(-110.9 174.297) rotate(-27.27)"></rect><path d="M284.927,413.64c-21.325,0-41.211-5.6-41.471-5.674l.138-.48c.338,.098,34.197,9.626,60.875,3.732,25.877-5.72,69.189-15.293,126.057-3.256l-.104,.488c-56.76-12.012-100.006-2.455-125.846,3.256-6.327,1.398-13.058,1.934-19.648,1.934Z"></path><path d="M284.926,398.671c-21.325,0-41.21-5.6-41.47-5.674l.138-.48c.338,.097,34.197,9.63,60.875,3.732,22.743-5.025,60.81-13.437,109.585-6.218l-.072,.494c-48.688-7.206-86.696,1.193-109.405,6.212-6.327,1.398-13.059,1.934-19.649,1.934Z"></path><path d="M284.735,383.729c-21.036,0-40.371-5.447-40.624-5.52l.138-.48c.333,.095,33.546,9.448,60.219,3.553,21.052-4.651,52.863-11.683,94.191-8.037l-.045,.498c-41.247-3.641-73.017,3.381-94.039,8.027-6.419,1.419-13.215,1.959-19.84,1.959Z"></path><path d="M284.389,368.795c-20.824,0-39.794-5.247-40.044-5.318l.136-.48c.33,.092,33.311,9.212,59.988,3.317,19.132-4.229,45.339-10.017,79.773-8.805l-.018,.5c-34.382-1.215-60.543,4.569-79.648,8.793-6.542,1.445-13.463,1.993-20.187,1.993Z"></path><path d="M284.566,353.815c-20.771,0-39.609-5.312-39.857-5.384l.138-.48c.326,.094,32.944,9.29,59.621,3.394,15.12-3.341,37.97-8.389,65.901-8.981l.01,.5c-27.882,.591-50.702,5.633-65.804,8.97-6.503,1.438-13.354,1.982-20.009,1.982Z"></path><path d="M284.427,338.867c-20.544,0-38.961-5.2-39.205-5.271l.138-.48c.322,.092,32.432,9.157,59.108,3.261,12.368-2.732,31.059-6.862,53.146-8.4l.035,.498c-22.051,1.536-40.72,5.661-53.073,8.391-6.573,1.453-13.474,2.002-20.148,2.002Z"></path><path d="M284.055,323.941c-20.192,0-38.006-4.969-38.244-5.036l.137-.48c.315,.089,31.842,8.882,58.52,2.984,10.122-2.237,23.984-5.302,40.404-7.213l.059,.496c-16.396,1.909-30.244,4.97-40.355,7.205-6.725,1.486-13.758,2.044-20.521,2.044Z"></path><path d="M283.946,308.988c-20.039,0-37.585-4.892-37.819-4.958l.137-.48c.312,.088,31.53,8.787,58.204,2.892,8.892-1.966,17.723-3.866,27.988-5.499l.078,.494c-10.251,1.631-19.074,3.528-27.959,5.493-6.777,1.498-13.848,2.059-20.629,2.059Z"></path><path d="M284.028,294.021c-19.864,0-37.072-4.886-37.302-4.952l.139-.48c.307,.089,30.925,8.78,57.603,2.885,1.516-.335,3.037-.684,4.59-1.04,3.585-.823,7.293-1.674,11.509-2.487l.096,.49c-4.208,.812-7.911,1.662-11.493,2.484-1.554,.356-3.076,.706-4.594,1.041-6.782,1.499-13.817,2.06-20.547,2.06Z"></path><path d="M283.962,279.063c-19.745,0-36.743-4.834-36.97-4.899l.139-.48c.304,.087,30.656,8.718,57.337,2.821,1.516-.335,3.08-.68,4.695-1.03l.105,.488c-1.613,.351-3.178,.695-4.693,1.03-6.818,1.507-13.877,2.07-20.613,2.07Z"></path><path d="M283.823,264.124c-19.494,0-36.104-4.743-36.308-4.802l.14-.48c.25,.072,25.267,7.217,49.907,3.911l.066,.496c-4.643,.622-9.303,.875-13.805,.875Z"></path><path d="M283.245,249.221c-18.991,0-34.946-4.483-35.109-4.53l.137-.48c.163,.046,16.056,4.51,34.972,4.51,.505,0,1.011-.003,1.521-.01l.006,.5c-.51,.006-1.02,.01-1.525,.01Z"></path><path d="M270.556,233.584c-12.659-1.254-21.843-3.912-21.934-3.939l.141-.479c.091,.026,9.233,2.671,21.842,3.92l-.049,.498Z"></path><polygon points="274.613 429.862 248.883 216.055 249.375 215.97 298.077 429.729 297.589 429.84 249.952 220.753 275.109 429.802 274.613 429.862"></polygon><polygon points="415.443 419.977 255.979 218.355 384.009 416.983 383.589 417.255 252.758 214.28 253.164 213.99 415.836 419.666 415.443 419.977"></polygon><path d="M287.79,248.556c0,1.367-1.108,2.474-2.474,2.474s-2.474-1.108-2.474-2.474,1.108-2.474,2.474-2.474,2.474,1.108,2.474,2.474Z" style="fill:#407BFF;"></path><path d="M303.696,265.523c0,1.367-1.108,2.474-2.474,2.474s-2.474-1.108-2.474-2.474,1.108-2.474,2.474-2.474,2.474,1.108,2.474,2.474Z" style="fill:#407BFF;"></path><path d="M317.832,281.076c0,1.367-1.108,2.474-2.474,2.474s-2.474-1.108-2.474-2.474,1.108-2.474,2.474-2.474,2.474,1.108,2.474,2.474Z" style="fill:#407BFF;"></path><path d="M335.765,299.722c0,1.367-1.108,2.474-2.474,2.474s-2.474-1.108-2.474-2.474,1.108-2.474,2.474-2.474,2.474,1.108,2.474,2.474Z" style="fill:#407BFF;"></path><path d="M354.893,323.148c0,1.367-1.108,2.474-2.474,2.474s-2.474-1.108-2.474-2.474,1.108-2.474,2.474-2.474,2.474,1.108,2.474,2.474Z" style="fill:#407BFF;"></path><path d="M376.488,345.623c0,1.367-1.108,2.474-2.474,2.474s-2.474-1.108-2.474-2.474,1.108-2.474,2.474-2.474,2.474,1.108,2.474,2.474Z" style="fill:#407BFF;"></path><path d="M246.195,363.233c0,1.367-1.108,2.474-2.474,2.474s-2.474-1.108-2.474-2.474,1.108-2.474,2.474-2.474,2.474,1.108,2.474,2.474Z" style="fill:#407BFF;"></path><path d="M244.815,337.029c-1.366,.047-2.511-1.022-2.558-2.388-.047-1.366,1.022-2.511,2.388-2.558,1.366-.047,2.511,1.022,2.558,2.388,.047,1.366-1.022,2.511-2.388,2.558Z" style="fill:#407BFF;"></path><path d="M246.195,313.542c-1.366,.047-2.511-1.022-2.558-2.388-.047-1.366,1.022-2.511,2.388-2.558,1.366-.047,2.511,1.022,2.558,2.388,.047,1.366-1.023,2.511-2.388,2.558Z" style="fill:#407BFF;"></path><path d="M246.433,287.537c-1.366,.047-2.511-1.022-2.558-2.388-.047-1.366,1.022-2.511,2.388-2.558,1.366-.047,2.511,1.022,2.558,2.388,.047,1.366-1.022,2.511-2.388,2.558Z" style="fill:#407BFF;"></path><path d="M247.382,261.555c-1.366,.047-2.511-1.022-2.558-2.388-.047-1.366,1.022-2.511,2.388-2.558,1.366-.047,2.511,1.022,2.558,2.388,.047,1.366-1.022,2.511-2.388,2.558Z" style="fill:#407BFF;"></path><path d="M248.489,234.516c-1.366,.047-2.511-1.022-2.558-2.388-.047-1.366,1.022-2.511,2.388-2.558,1.366-.047,2.511,1.022,2.558,2.388,.047,1.366-1.022,2.511-2.388,2.558Z" style="fill:#407BFF;"></path><path d="M245.999,392.757c0,1.367-1.108,2.474-2.474,2.474s-2.474-1.108-2.474-2.474,1.108-2.474,2.474-2.474,2.474,1.108,2.474,2.474Z" style="fill:#407BFF;"></path><circle cx="243.524" cy="422.012" r="2.474" style="fill:#407BFF;"></circle><path d="M393.708,365.408c0,1.367-1.108,2.474-2.474,2.474s-2.474-1.108-2.474-2.474,1.108-2.474,2.474-2.474,2.474,1.108,2.474,2.474Z" style="fill:#407BFF;"></path><path d="M416.491,390.278c0,1.367-1.108,2.474-2.474,2.474s-2.474-1.108-2.474-2.474,1.108-2.474,2.474-2.474,2.474,1.108,2.474,2.474Z" style="fill:#407BFF;"></path><path d="M437.733,413.406c0,1.367-1.108,2.474-2.474,2.474s-2.474-1.108-2.474-2.474,1.108-2.474,2.474-2.474,2.474,1.108,2.474,2.474Z" style="fill:#407BFF;"></path></g><g><g><g id="freepik--freepik--fishes-1--inject-2-3--inject-34"><path d="M309.823,312.823s-8.681,3.007-8.337,3.864c.344,.858,6.21,4.122,6.21,4.122l-.425,1.595s-5.911,3.642-5.549,4.791c.362,1.149,2.292,1.365,2.292,1.365-.249,4.594-.174,8.832,2.263,12.783l2.551,.341,2.325,.975s5.264-5.057,7.053-8.875c0,0,2.493,1.327,2.858,.335,.365-.992-2.146-8.166-2.146-8.166l-6.86-12.081-2.236-1.049Z" style="fill:#263238;"></path><path d="M321.627,315.387s6.277,8.226,4.579,8.151c-.819,.681-2.773,.466-3.642-.965l-2.174-3.959,1.237-3.228Z" style="fill:#263238;"></path><path d="M318.591,299.719s-17.65,12.259-11.37,42.698c.15,1.368-.217,2.742-1.031,3.852,.483,.919,1.619,1.273,2.539,.791,.044-.023,.087-.048,.129-.074,.067-1.483,.452-2.934,1.13-4.254,0,0,7.353-7.301,11.533-23.002,4.179-15.701-1.741-20.968-1.741-20.968l.518,2.554-1.706-1.597Z" style="fill:#407BFF;"></path><path d="M306.195,346.229c.814-1.11,1.182-2.484,1.031-3.852-6.28-30.439,11.37-42.699,11.37-42.699l1.137,1.064-12.366,46.431c-.496-.155-.915-.493-1.172-.944Z" style="fill:#fff; opacity:.3;"></path><path d="M313.324,307.12s2.262,6.473,8.327,2.218c0,0-2.52,3.843-5.583,2.791-3.063-1.052-2.744-5.008-2.744-5.008Z" style="opacity:.3;"></path><path d="M316.805,306.165c.645-.004,1.161-.35,1.105-.874-.057-.524-.577-.865-1.222-.861s-1.162,.35-1.109,.861c.052,.511,.554,.872,1.226,.874Z" style="fill:#263238;"></path></g><path d="M315.38,314.214h.982s1.948,6.87,.038,8.59c-.936,.843-2.626,5.723-3.848,5.911-1.222,.188,2.828-14.501,2.828-14.501Z" style="fill:#263238;"></path></g><path d="M306.922,344.331s-8.782,5.386-8.509,6.411c.273,1.025,6.306-1.889,7.61-1.54,1.304,.35,3.464,5.911,4.42,5.879,.956-.033-1.444-10.175-1.444-10.175l-.979-.816-1.098,.241Z" style="fill:#263238;"></path></g><g><g><g id="freepik--freepik--fishes-1--inject-2-4--inject-34"><path d="M296.02,372.365s-6.612-4.296-7.011-3.611c-.4,.685,.481,6.379,.481,6.379l-1.304,.553s-5.582-2.084-6.17-1.233c-.588,.851,.283,2.272,.283,2.272-3.243,2.253-6.075,4.537-7.466,8.27l1.114,1.908,.565,2.089s6.2,.9,9.729,.1c0,0,.415,2.388,1.279,2.112,.864-.276,4.401-5.758,4.401-5.758l4.568-11.014-.468-2.067Z" style="fill:#263238;"></path><path d="M300.504,381.712s-2.264,8.588-3.108,7.398c-.893-.196-1.777-1.633-1.266-2.976l1.536-3.559,2.838-.863Z" style="fill:#263238;"></path><path d="M309.518,371.399s-17.606-5.495-34.916,14.801c-.847,.823-1.972,1.298-3.153,1.332-.368,.812-.009,1.768,.802,2.137,.039,.018,.078,.034,.118,.048,1.04-.736,2.226-1.24,3.477-1.476,0,0,8.821,1.133,21.659-4.311,12.839-5.444,13.286-12.231,13.286-12.231l-1.457,1.697,.183-1.997Z" style="fill:#407BFF;"></path><path d="M271.479,387.514c1.18-.034,2.305-.509,3.153-1.332,17.31-20.297,34.916-14.802,34.916-14.802l-.122,1.331-37.969,16.094c-.156-.418-.148-.879,.022-1.292Z" style="fill:#fff; opacity:.3;"></path><path d="M301.729,371.731s-3.193,4.944,2.886,6.809c0,0-3.931,.318-4.833-2.311-.901-2.629,1.946-4.498,1.946-4.498Z" style="opacity:.3;"></path><path d="M304.21,373.585c.342,.435,.849,.602,1.174,.288,.325-.315,.282-.847-.061-1.282-.343-.435-.849-.603-1.167-.298-.318,.305-.299,.835,.054,1.291Z" style="fill:#263238;"></path></g><path d="M298.007,376.863l.516,.666s-3.626,4.939-5.798,4.552c-1.064-.19-5.261,1.238-6.032,.509-.771-.729,11.313-5.727,11.313-5.727Z" style="fill:#263238;"></path></g><path d="M273.148,387.006s-8.277-3.11-8.827-2.385c-.551,.725,4.604,3.276,5.054,4.344,.45,1.067-2.178,5.462-1.653,6.092,.526,.63,6.131-6.341,6.131-6.341l.037-1.093-.742-.617Z" style="fill:#263238;"></path></g><g><g><g id="freepik--freepik--fishes-1--inject-2-5--inject-34"><path d="M327.099,362.014s3.976,6.809,4.641,6.376c.665-.433,2.437-5.915,2.437-5.915l1.414,.092s4.05,4.37,4.958,3.874c.907-.496,.768-2.157,.768-2.157,3.909-.555,7.465-1.324,10.386-4.033l-.138-2.205,.434-2.12s-5.134-3.59-8.646-4.461c0,0,.702-2.32-.194-2.462-.896-.142-6.518,3.166-6.518,3.166l-9.03,7.787-.511,2.057Z" style="fill:#263238;"></path><path d="M327.292,351.648s5.881-6.655,6.101-5.212c.71,.576,.854,2.258-.206,3.227l-2.971,2.489-2.924-.504Z" style="fill:#263238;"></path><path d="M314.606,356.812s13.26,12.82,37.844,2.466c1.127-.354,2.345-.273,3.415,.227,.694-.559,.803-1.576,.243-2.269-.027-.033-.055-.065-.084-.096-1.26,.19-2.545,.108-3.77-.243,0,0-7.371-4.976-21.287-5.881-13.916-.905-17.365,4.957-17.365,4.957l2.064-.861-1.06,1.702Z" style="fill:#407BFF;"></path><path d="M355.829,359.507c-1.07-.5-2.288-.581-3.415-.227-24.584,10.354-37.844-2.465-37.844-2.465l.707-1.135,41.152,2.683c-.048,.443-.263,.852-.6,1.144Z" style="fill:#fff; opacity:.3;"></path><path d="M321.713,360.015s5.073-2.982,.481-7.38c0,0,3.655,1.482,3.279,4.236-.376,2.754-3.76,3.144-3.76,3.144Z" style="opacity:.3;"></path><path d="M320.33,357.243c-.111-.542-.488-.92-.92-.785-.432,.135-.632,.63-.522,1.172,.111,.542,.488,.92,.909,.791,.421-.129,.642-.612,.532-1.178Z" style="fill:#263238;"></path></g><path d="M327.344,357.103l-.162-.827s5.459-2.783,7.225-1.462c.866,.648,5.256,1.258,5.617,2.256,.361,.998-12.68,.033-12.68,.033Z" style="fill:#263238;"></path></g><path d="M354.11,359.211s5.996,6.497,6.814,6.097c.818-.401-2.641-4.995-2.563-6.152,.077-1.156,4.4-3.901,4.214-4.7-.187-.799-8.327,2.91-8.327,2.91l-.524,.96,.386,.885Z" style="fill:#263238;"></path></g><g><g><g><g id="freepik--freepik--fishes-1--inject-2-6--inject-34"><path d="M266.067,313.268s-3.382,7.352-2.627,7.656c.755,.304,6.407-1.435,6.407-1.435l.755,1.243s-1.289,5.978-.337,6.449c.951,.471,2.265-.624,2.265-.624,2.769,2.96,5.509,5.496,9.507,6.356l1.773-1.414,2.037-.884s-.006-6.43-1.342-9.896c0,0,2.364-.776,1.955-1.612s-6.501-3.615-6.501-3.615l-11.864-3.005-2.03,.782Z" style="fill:#263238;"></path><path d="M274.895,307.327s9.058,1.025,7.975,2.059c-.066,.936-1.395,2.047-2.835,1.727l-3.842-1.032-1.298-2.755Z" style="fill:#263238;"></path><path d="M263.082,299.703s-2.968,18.697,20.214,33.265c.961,.738,1.611,1.81,1.82,3.004,.879,.254,1.797-.253,2.051-1.132,.012-.042,.023-.085,.031-.127-.902-.947-1.589-2.076-2.016-3.312,0,0-.158-9.127-7.592-21.358-7.434-12.231-14.393-11.678-14.393-11.678l1.94,1.228-2.055,.111Z" style="fill:#263238;"></path><path d="M285.094,335.944c-.209-1.194-.859-2.266-1.82-3.004-23.182-14.568-20.214-33.265-20.214-33.265l1.37-.074,21.979,36.174c-.401,.221-.871,.281-1.315,.169Z" style="fill:#fff; opacity:.3;"></path><path d="M264.576,307.564s5.494,2.509,6.487-3.942c0,0,.907,3.945-1.63,5.251-2.537,1.306-4.857-1.309-4.857-1.309Z" style="opacity:.3;"></path><path d="M266.091,304.769c.391-.412,.486-.952,.118-1.236-.368-.284-.902-.161-1.293,.252-.391,.413-.486,.952-.129,1.23,.357,.278,.892,.18,1.304-.246Z" style="fill:#263238;"></path></g><path d="M270.34,310.583l.6-.623s5.555,2.95,5.484,5.213c-.035,1.109,2.037,5.159,1.412,6.051-.626,.891-7.495-10.64-7.495-10.64Z" style="fill:#263238;"></path></g><path d="M284.33,334.325s-1.931,8.867-1.112,9.319c.818,.452,2.644-5.162,3.662-5.778,1.017-.616,5.871,1.402,6.433,.774,.562-.628-7.35-5.286-7.35-5.286l-1.115,.125-.517,.845Z" style="fill:#263238;"></path></g><path d="M263.082,299.703s-2.968,18.697,20.214,33.265c.961,.738,1.611,1.81,1.82,3.004,.879,.254,1.797-.253,2.051-1.132,.012-.042,.023-.085,.031-.127-.902-.947-1.589-2.076-2.016-3.312,0,0-.158-9.127-7.592-21.358-7.434-12.231-14.393-11.678-14.393-11.678l1.94,1.228-2.055,.111Z" style="fill:#fff; opacity:.3;"></path></g><g><g><g><g id="freepik--freepik--fishes-1--inject-2-7--inject-34"><path d="M359.546,378.244s-3.904-5.768-4.465-5.347c-.561,.421-1.8,5.357-1.8,5.357l-1.251,.002s-3.826-3.614-4.597-3.124c-.771,.49-.55,1.946-.55,1.946-3.413,.719-6.502,1.605-8.917,4.165l.251,1.935-.258,1.894s4.736,2.863,7.883,3.424c0,0-.483,2.086,.315,2.158,.798,.073,5.559-3.174,5.559-3.174l7.502-7.394,.329-1.843Z" style="fill:#263238;"></path><path d="M359.984,387.392s-4.793,6.211-5.071,4.952c-.659-.466-.885-1.94-.008-2.857l2.473-2.369,2.606,.273Z" style="fill:#263238;"></path><path d="M370.862,382.095s-12.44-10.521-33.5,.049c-.972,.379-2.051,.379-3.023,0-.579,.534-.615,1.436-.081,2.014,.026,.028,.052,.054,.08,.08,1.099-.242,2.237-.244,3.337-.007,0,0,6.789,3.953,19.107,3.934,12.318-.019,15.014-5.388,15.014-5.388l-1.769,.88,.835-1.562Z" style="fill:#263238;"></path><path d="M334.37,382.14c.972,.378,2.051,.378,3.023,0,21.06-10.57,33.5-.049,33.5-.049l-.556,1.042-36.428,.051c.016-.394,.181-.767,.462-1.044Z" style="fill:#fff; opacity:.3;"></path><path d="M364.41,379.69s-4.297,2.926,.009,6.533c0,0-3.308-1.092-3.139-3.541,.17-2.449,3.13-2.992,3.13-2.992Z" style="opacity:.3;"></path><path d="M365.792,382.051c.129,.471,.484,.782,.857,.638,.373-.144,.52-.593,.391-1.064-.129-.471-.484-.782-.848-.643-.364,.139-.53,.577-.4,1.069Z" style="fill:#263238;"></path></g><path d="M359.618,382.587l.192,.719s-4.648,2.774-6.282,1.713c-.801-.52-4.706-.8-5.083-1.658-.377-.858,11.174-.774,11.174-.774Z" style="fill:#263238;"></path></g><path d="M335.903,382.301s-5.667-5.375-6.364-4.974,2.621,4.248,2.62,5.271c0,1.024-3.649,3.697-3.438,4.39,.211,.693,7.168-3.054,7.168-3.054l.405-.877-.392-.757Z" style="fill:#263238;"></path></g><path d="M370.862,382.095s-12.44-10.521-33.5,.049c-.972,.379-2.051,.379-3.023,0-.579,.534-.615,1.436-.081,2.014,.026,.028,.052,.054,.08,.08,1.099-.242,2.237-.244,3.337-.007,0,0,6.789,3.953,19.107,3.934,12.318-.019,15.014-5.388,15.014-5.388l-1.769,.88,.835-1.562Z" style="fill:#fff; opacity:.3;"></path></g><g><g><g><g id="freepik--freepik--fishes-1--inject-2-8--inject-34"><path d="M288.827,276.189s-3.905-5.768-4.465-5.347c-.561,.421-1.8,5.357-1.8,5.357l-1.251,.002s-3.826-3.614-4.597-3.124c-.771,.49-.55,1.946-.55,1.946-3.413,.719-6.502,1.605-8.917,4.164l.251,1.935-.258,1.894s4.736,2.863,7.883,3.425c0,0-.483,2.086,.315,2.158,.798,.073,5.559-3.174,5.559-3.174l7.502-7.394,.329-1.843Z" style="fill:#263238;"></path><path d="M289.265,285.337s-4.793,6.211-5.071,4.952c-.659-.466-.885-1.94-.008-2.857l2.473-2.368,2.606,.273Z" style="fill:#263238;"></path><path d="M300.144,280.04s-12.44-10.521-33.5,.049c-.972,.378-2.051,.379-3.023,0-.579,.534-.615,1.436-.081,2.014,.026,.028,.052,.054,.08,.08,1.099-.242,2.237-.244,3.337-.007,0,0,6.789,3.953,19.107,3.934,12.318-.019,15.014-5.388,15.014-5.388l-1.769,.88,.835-1.563Z" style="fill:#263238;"></path><path d="M263.652,280.085c.972,.378,2.051,.378,3.023,0,21.06-10.57,33.5-.049,33.5-.049l-.556,1.042-36.428,.051c.016-.394,.181-.767,.462-1.044Z" style="fill:#fff; opacity:.3;"></path><path d="M293.691,277.635s-4.297,2.926,.009,6.533c0,0-3.308-1.091-3.139-3.541,.17-2.449,3.13-2.992,3.13-2.992Z" style="opacity:.3;"></path><path d="M295.073,279.996c.129,.471,.484,.782,.857,.638,.373-.144,.52-.592,.391-1.064-.13-.472-.484-.782-.848-.643-.364,.139-.53,.577-.4,1.07Z" style="fill:#263238;"></path></g><path d="M288.899,280.532l.192,.719s-4.648,2.774-6.282,1.713c-.801-.52-4.706-.8-5.083-1.658-.377-.858,11.174-.774,11.174-.774Z" style="fill:#263238;"></path></g><path d="M265.184,280.245s-5.667-5.375-6.364-4.974c-.697,.401,2.621,4.248,2.62,5.271,0,1.024-3.649,3.697-3.438,4.39,.211,.693,7.168-3.054,7.168-3.054l.405-.877-.392-.757Z" style="fill:#263238;"></path></g><path d="M300.144,280.04s-12.44-10.521-33.5,.049c-.972,.378-2.051,.379-3.023,0-.579,.534-.615,1.436-.081,2.014,.026,.028,.052,.054,.08,.08,1.099-.242,2.237-.244,3.337-.007,0,0,6.789,3.953,19.107,3.934,12.318-.019,15.014-5.388,15.014-5.388l-1.769,.88,.835-1.563Z" style="fill:#fff; opacity:.3;"></path></g><g><g><g><g id="freepik--freepik--fishes-1--inject-2-9--inject-34"><path d="M317.225,401.484s-6.377-2.8-6.628-2.146c-.25,.655,1.331,5.492,1.331,5.492l-1.058,.668s-5.164-1.019-5.555-.194c-.391,.826,.571,1.94,.571,1.94-2.505,2.427-4.647,4.823-5.327,8.276l1.243,1.504,.791,1.74s5.533-.101,8.495-1.303c0,0,.703,2.022,1.417,1.658,.714-.364,3.013-5.648,3.013-5.648l2.408-10.254-.703-1.735Z" style="fill:#263238;"></path><path d="M322.47,408.991s-.746,7.81-1.652,6.893c-.806-.043-1.783-1.17-1.529-2.413l.83-3.322,2.351-1.158Z" style="fill:#263238;"></path><path d="M328.853,398.713s-16.133-2.274-28.321,17.892c-.621,.838-1.534,1.413-2.558,1.611-.205,.76,.245,1.543,1.005,1.748,.036,.01,.073,.018,.11,.025,.801-.79,1.763-1.399,2.82-1.784,0,0,7.851-.272,18.265-6.853s9.834-12.56,9.834-12.56l-1.028,1.688-.126-1.767Z" style="fill:#263238;"></path><path d="M297.998,418.196c1.024-.198,1.937-.773,2.558-1.611,12.189-20.166,28.321-17.892,28.321-17.892l.084,1.178-30.798,19.455c-.196-.342-.255-.745-.165-1.129Z" style="fill:#fff; opacity:.3;"></path><path d="M322.111,400.115s-2.077,4.766,3.489,5.523c0,0-3.381,.839-4.543-1.324-1.162-2.163,1.054-4.199,1.054-4.199Z" style="opacity:.3;"></path><path d="M324.539,401.377c.361,.33,.826,.404,1.065,.083,.239-.321,.125-.779-.236-1.109-.361-.33-.826-.404-1.06-.093-.234,.311-.141,.77,.231,1.118Z" style="fill:#263238;"></path></g><path d="M319.6,405.121l.545,.507s-2.455,4.824-4.403,4.797c-.955-.013-4.409,1.831-5.185,1.305-.777-.525,9.043-6.609,9.043-6.609Z" style="fill:#263238;"></path></g><path d="M299.38,417.515s-7.659-1.528-8.036-.818c-.376,.711,4.481,2.198,5.026,3.064,.545,.866-1.118,5.073-.57,5.547,.548,.474,4.438-6.404,4.438-6.404l-.124-.958-.735-.432Z" style="fill:#263238;"></path></g><path d="M328.853,398.713s-16.133-2.274-28.321,17.892c-.621,.838-1.534,1.413-2.558,1.611-.205,.76,.245,1.543,1.005,1.748,.036,.01,.073,.018,.11,.025,.801-.79,1.763-1.399,2.82-1.784,0,0,7.851-.272,18.265-6.853s9.834-12.56,9.834-12.56l-1.028,1.688-.126-1.767Z" style="fill:#fff; opacity:.3;"></path></g></g></g></g></svg>
