<?xml version="1.0" encoding="UTF-8"?>
<svg xmlns="http://www.w3.org/2000/svg" xmlns:xlink="http://www.w3.org/1999/xlink" width="170px" height="200px" viewBox="0 0 170 170" version="1.1">
<defs>
<filter id="alpha" filterUnits="objectBoundingBox" x="0%" y="0%" width="100%" height="100%">
  <feColorMatrix type="matrix" in="SourceGraphic" values="0 0 0 0 1 0 0 0 0 1 0 0 0 0 1 0 0 0 1 0"/>
</filter>
<mask id="mask0">
  <g filter="url(#alpha)">
<rect x="0" y="0" width="170" height="170" style="fill:rgb(0%,0%,0%);fill-opacity:0.180392;stroke:none;"/>
  </g>
</mask>
<clipPath id="clip1">
  <rect x="0" y="0" width="170" height="170"/>
</clipPath>
<g id="surface5" clip-path="url(#clip1)">
<path style=" stroke:none;fill-rule:nonzero;fill:rgb(40.784314%,88.235294%,99.215686%);fill-opacity:1;" d="M 31.449219 131.402344 C 25.910156 130.496094 20.699219 128.183594 16.304688 124.691406 C 11.128906 120.621094 5.515625 115.140625 5.6875 108.335938 C 5.871094 101.125 8.566406 94.179688 11.484375 87.667969 C 15.433594 78.902344 20.914062 69.644531 19.457031 59.871094 C 18.003906 50.09375 19.96875 38.421875 25.121094 30.109375 C 33.199219 17.0625 47.496094 13.910156 61.738281 13.613281 C 71.136719 13.417969 80.828125 13.980469 89.394531 17.851562 C 98.402344 21.921875 105.664062 29.4375 114.820312 32.9375 C 120.925781 35.234375 127.605469 35.683594 133.574219 38.273438 C 141.09375 41.539062 146.878906 48.007812 150.644531 55.289062 C 154.40625 62.574219 156.308594 70.660156 157.761719 78.683594 C 160.144531 92.253906 154.488281 109.195312 146.332031 120.3125 C 140.914062 127.695312 131.808594 136.25 122.460938 134.460938 C 74.859375 125.386719 84.003906 139.890625 31.453125 131.398438 Z M 31.449219 131.402344 "/>
</g>
<linearGradient id="linear0" gradientUnits="userSpaceOnUse" x1="781.41" y1="2480.07" x2="721.52" y2="4043.32" gradientTransform="matrix(0.34,0,0,-0.34,-165.8792,1134.6038)">
<stop offset="0" style="stop-color:rgb(13.72549%,12.156863%,12.54902%);stop-opacity:1;"/>
<stop offset="0.08" style="stop-color:rgb(13.72549%,12.156863%,12.54902%);stop-opacity:0.690196;"/>
<stop offset="0.21" style="stop-color:rgb(13.72549%,12.156863%,12.54902%);stop-opacity:0.321569;"/>
<stop offset="1" style="stop-color:rgb(13.72549%,12.156863%,12.54902%);stop-opacity:0;"/>
</linearGradient>
<mask id="mask1">
  <g filter="url(#alpha)">
<rect x="0" y="0" width="170" height="170" style="fill:rgb(0%,0%,0%);fill-opacity:0.411765;stroke:none;"/>
  </g>
</mask>
<clipPath id="clip2">
  <rect x="0" y="0" width="170" height="170"/>
</clipPath>
<g id="surface8" clip-path="url(#clip2)">
<path style=" stroke:none;fill-rule:nonzero;fill:rgb(40.784314%,88.235294%,99.215686%);fill-opacity:1;" d="M 54.285156 81.167969 L 63.722656 81.167969 L 63.722656 89.386719 L 54.285156 89.386719 Z M 54.285156 81.167969 "/>
</g>
<mask id="mask2">
  <g filter="url(#alpha)">
<rect x="0" y="0" width="170" height="170" style="fill:rgb(0%,0%,0%);fill-opacity:0.501961;stroke:none;"/>
  </g>
</mask>
<clipPath id="clip3">
  <rect x="0" y="0" width="170" height="170"/>
</clipPath>
<g id="surface11" clip-path="url(#clip3)">
<path style=" stroke:none;fill-rule:nonzero;fill:rgb(40.784314%,88.235294%,99.215686%);fill-opacity:1;" d="M 72.996094 68.027344 L 82.4375 68.027344 L 82.4375 89.386719 L 72.996094 89.386719 Z M 72.996094 68.027344 "/>
</g>
<linearGradient id="linear1" gradientUnits="userSpaceOnUse" x1="684.97" y1="3180.94" x2="934.27" y2="3004.24" gradientTransform="matrix(0.34,0,0,-0.34,-160.14,1136.841)">
<stop offset="0" style="stop-color:rgb(13.72549%,12.156863%,12.54902%);stop-opacity:1;"/>
<stop offset="0.08" style="stop-color:rgb(13.72549%,12.156863%,12.54902%);stop-opacity:0.690196;"/>
<stop offset="0.21" style="stop-color:rgb(13.72549%,12.156863%,12.54902%);stop-opacity:0.321569;"/>
<stop offset="1" style="stop-color:rgb(13.72549%,12.156863%,12.54902%);stop-opacity:0;"/>
</linearGradient>
<linearGradient id="linear2" gradientUnits="userSpaceOnUse" x1="-2322.92" y1="2026.52" x2="-2095.69" y2="2036.58" gradientTransform="matrix(-0.300647,0.158781,-0.158781,-0.300647,-255.595,1088.646)">
<stop offset="0" style="stop-color:rgb(13.72549%,12.156863%,12.54902%);stop-opacity:1;"/>
<stop offset="0.08" style="stop-color:rgb(13.72549%,12.156863%,12.54902%);stop-opacity:0.690196;"/>
<stop offset="0.21" style="stop-color:rgb(13.72549%,12.156863%,12.54902%);stop-opacity:0.321569;"/>
<stop offset="1" style="stop-color:rgb(13.72549%,12.156863%,12.54902%);stop-opacity:0;"/>
</linearGradient>
<linearGradient id="linear3" gradientUnits="userSpaceOnUse" x1="800.84" y1="3157.69" x2="763.6" y2="3085.62" gradientTransform="matrix(0.34,0,0,-0.34,-165.8792,1134.6038)">
<stop offset="0" style="stop-color:rgb(13.72549%,12.156863%,12.54902%);stop-opacity:1;"/>
<stop offset="0.08" style="stop-color:rgb(13.72549%,12.156863%,12.54902%);stop-opacity:0.690196;"/>
<stop offset="0.21" style="stop-color:rgb(13.72549%,12.156863%,12.54902%);stop-opacity:0.321569;"/>
<stop offset="1" style="stop-color:rgb(13.72549%,12.156863%,12.54902%);stop-opacity:0;"/>
</linearGradient>
<linearGradient id="linear4" gradientUnits="userSpaceOnUse" x1="814.27" y1="3141.09" x2="715.64" y2="3033.55" gradientTransform="matrix(0.34,0,0,-0.34,-165.8792,1134.6038)">
<stop offset="0" style="stop-color:rgb(13.72549%,12.156863%,12.54902%);stop-opacity:1;"/>
<stop offset="0.08" style="stop-color:rgb(13.72549%,12.156863%,12.54902%);stop-opacity:0.690196;"/>
<stop offset="0.21" style="stop-color:rgb(13.72549%,12.156863%,12.54902%);stop-opacity:0.321569;"/>
<stop offset="1" style="stop-color:rgb(13.72549%,12.156863%,12.54902%);stop-opacity:0;"/>
</linearGradient>
<linearGradient id="linear5" gradientUnits="userSpaceOnUse" x1="-1927.86" y1="3181.87" x2="-1706.08" y2="2923.71" gradientTransform="matrix(-0.34,-0.000000000000000042,0.000000000000000042,-0.34,-538.5974,1134.6038)">
<stop offset="0" style="stop-color:rgb(13.72549%,12.156863%,12.54902%);stop-opacity:1;"/>
<stop offset="0.08" style="stop-color:rgb(13.72549%,12.156863%,12.54902%);stop-opacity:0.690196;"/>
<stop offset="0.21" style="stop-color:rgb(13.72549%,12.156863%,12.54902%);stop-opacity:0.321569;"/>
<stop offset="1" style="stop-color:rgb(13.72549%,12.156863%,12.54902%);stop-opacity:0;"/>
</linearGradient>
</defs>
<g id="surface1">
<use xlink:href="#surface5" mask="url(#mask0)"/>
<path style=" stroke:none;fill-rule:nonzero;fill:url(#linear0);" d="M 49.847656 126.960938 L 112.90625 126.960938 C 112.804688 127.53125 112.613281 128.046875 112.5 128.617188 C 118.992188 128.753906 125.488281 128.351562 131.917969 127.417969 C 133.3125 127.28125 134.6875 126.9375 135.988281 126.402344 C 136.625 126.097656 137.320312 125.386719 137.003906 124.785156 C 136.753906 124.46875 136.386719 124.261719 135.988281 124.222656 C 132.214844 123.472656 128.417969 122.84375 124.597656 122.351562 C 123.289062 122.296875 122.019531 121.914062 120.902344 121.234375 C 119.40625 120.136719 118.941406 118.09375 118.933594 116.230469 C 119.097656 114.378906 119.097656 112.515625 118.933594 110.667969 C 118.070312 105.949219 114.863281 101.675781 117.019531 97.371094 C 118.953125 93.445312 122.503906 90.34375 123.660156 86.121094 C 124.464844 83.191406 124.007812 80.089844 123.539062 77.101562 L 122.011719 67.203125 C 121.828125 65.078125 121.242188 63.007812 120.28125 61.101562 C 119.964844 60.46875 119.511719 59.914062 118.960938 59.472656 C 118.332031 59.054688 118.066406 59.320312 117.453125 59.105469 C 116.121094 58.636719 115.03125 57.425781 113.597656 58.605469 C 113.839844 55.1875 113.84375 51.761719 113.609375 48.34375 C 113.628906 46.648438 113.28125 44.972656 112.589844 43.421875 C 112.007812 42.4375 111.292969 41.542969 110.457031 40.765625 C 109.097656 39.410156 107.722656 38.109375 106.324219 36.871094 C 105.324219 35.933594 104.242188 35.089844 103.089844 34.347656 C 99.441406 32.046875 95.796875 32.121094 91.730469 32.699219 C 87.269531 33.347656 82.46875 32.890625 77.992188 32.699219 C 73.519531 32.503906 68.839844 32.117188 64.253906 32.15625 C 61.988281 32.167969 59.726562 32.300781 57.480469 32.554688 C 56.851562 32.625 51.144531 33.246094 51.101562 33.753906 C 50.289062 43.089844 54.273438 52.0625 57.316406 60.941406 C 61.191406 72.230469 63.625 84.179688 62.757812 96.101562 C 61.894531 108.019531 58.261719 118.476562 49.851562 126.949219 Z M 49.847656 126.960938 "/>
<path style=" stroke:none;fill-rule:nonzero;fill:rgb(100%,100%,100%);fill-opacity:1;" d="M 107.476562 124.761719 L 47.457031 124.761719 L 47.457031 34.199219 L 94.84375 34.199219 L 107.476562 47.28125 Z M 107.476562 124.761719 "/>
<path style=" stroke:none;fill-rule:nonzero;fill:rgb(100%,100%,100%);fill-opacity:1;" d="M 94.84375 34.199219 L 107.476562 47.28125 L 94.925781 47.28125 Z M 94.84375 34.199219 "/>
<path style=" stroke:none;fill-rule:nonzero;fill:rgb(40.784314%,88.235294%,99.215686%);fill-opacity:1;" d="M 94.84375 34.199219 L 107.476562 47.28125 L 94.925781 47.28125 Z M 94.84375 34.199219 "/>
<use xlink:href="#surface8" mask="url(#mask1)"/>
<path style=" stroke:none;fill-rule:nonzero;fill:rgb(40.784314%,88.235294%,99.215686%);fill-opacity:1;" d="M 63.640625 74.773438 L 73.078125 74.773438 L 73.078125 89.390625 L 63.640625 89.390625 Z M 63.640625 74.773438 "/>
<use xlink:href="#surface11" mask="url(#mask2)"/>
<path style=" stroke:none;fill-rule:nonzero;fill:rgb(40.784314%,88.235294%,99.215686%);fill-opacity:1;" d="M 82.363281 61.457031 L 91.804688 61.457031 L 91.804688 89.386719 L 82.363281 89.386719 Z M 82.363281 61.457031 "/>
<path style=" stroke:none;fill-rule:nonzero;fill:rgb(40.784314%,88.235294%,99.215686%);fill-opacity:1;" d="M 91.722656 54.839844 L 101.160156 54.839844 L 101.160156 89.390625 L 91.722656 89.390625 Z M 91.722656 54.839844 "/>
<path style=" stroke:none;fill-rule:nonzero;fill:url(#linear1);" d="M 91.722656 54.839844 L 101.160156 54.839844 L 101.160156 89.390625 L 91.722656 89.390625 Z M 91.722656 54.839844 "/>
<path style=" stroke:none;fill-rule:nonzero;fill:rgb(40.784314%,88.235294%,99.215686%);fill-opacity:1;" d="M 56.285156 96.203125 L 99.5625 96.203125 L 99.5625 98.917969 L 56.285156 98.917969 Z M 56.285156 96.203125 "/>
<path style=" stroke:none;fill-rule:nonzero;fill:rgb(40.784314%,88.235294%,99.215686%);fill-opacity:1;" d="M 56.285156 103.046875 L 99.5625 103.046875 L 99.5625 105.765625 L 56.285156 105.765625 Z M 56.285156 103.046875 "/>
<path style=" stroke:none;fill-rule:nonzero;fill:rgb(40.784314%,88.235294%,99.215686%);fill-opacity:1;" d="M 56.285156 109.902344 L 99.5625 109.902344 L 99.5625 112.617188 L 56.285156 112.617188 Z M 56.285156 109.902344 "/>
<path style=" stroke:none;fill-rule:nonzero;fill:rgb(40.784314%,88.235294%,99.215686%);fill-opacity:1;" d="M 56.285156 116.746094 L 99.5625 116.746094 L 99.5625 119.460938 L 56.285156 119.460938 Z M 56.285156 116.746094 "/>
<path style=" stroke:none;fill-rule:nonzero;fill:rgb(75.686275%,28.235294%,20.392157%);fill-opacity:1;" d="M 132.140625 119.402344 C 131.886719 120.121094 131.472656 120.929688 131.84375 121.597656 C 131.875 121.664062 131.929688 121.71875 132 121.75 C 132.101562 121.792969 132.210938 121.792969 132.3125 121.75 C 133.933594 121.121094 134.859375 119.441406 135.539062 117.832031 C 135.75 117.449219 135.820312 117.003906 135.742188 116.574219 C 135.558594 116.164062 135.242188 115.828125 134.847656 115.617188 C 134.269531 115.1875 133.730469 114.710938 133.230469 114.191406 C 133.371094 114.355469 132.945312 115.402344 132.871094 115.585938 C 132.660156 115.957031 132.488281 116.351562 132.351562 116.757812 C 132.355469 117.140625 132.378906 117.523438 132.421875 117.90625 C 132.40625 118.414062 132.3125 118.917969 132.136719 119.402344 Z M 132.140625 119.402344 "/>
<path style=" stroke:none;fill-rule:nonzero;fill:rgb(75.686275%,28.235294%,20.392157%);fill-opacity:1;" d="M 114.847656 124.871094 C 114.410156 125.351562 113.832031 125.777344 113.75 126.410156 C 113.714844 126.519531 113.714844 126.644531 113.75 126.753906 C 113.894531 127.039062 114.3125 127.019531 114.613281 126.929688 C 115.8125 126.507812 116.933594 125.882812 117.917969 125.078125 C 118.054688 124.988281 118.171875 124.871094 118.265625 124.730469 C 118.335938 124.523438 118.335938 124.292969 118.265625 124.082031 L 118 122.496094 C 118 122.445312 117.976562 122.398438 117.9375 122.363281 C 117.898438 122.34375 117.847656 122.34375 117.804688 122.363281 C 117.394531 122.320312 116.976562 122.320312 116.566406 122.363281 C 116.003906 122.363281 115.972656 122.421875 115.863281 122.945312 C 115.691406 123.660156 115.339844 124.328125 114.847656 124.875 Z M 114.847656 124.871094 "/>
<path style=" stroke:none;fill-rule:nonzero;fill:rgb(40.784314%,88.235294%,99.215686%);fill-opacity:1;" d="M 118.480469 126.070312 C 118.484375 126.148438 118.464844 126.226562 118.429688 126.296875 C 118.355469 126.378906 118.261719 126.433594 118.152344 126.449219 C 117.617188 126.640625 117.101562 126.890625 116.617188 127.191406 C 115.585938 127.703125 114.519531 128.144531 113.425781 128.503906 C 112.976562 128.734375 112.449219 128.773438 111.96875 128.613281 C 111.910156 128.589844 111.863281 128.554688 111.824219 128.503906 C 111.800781 128.417969 111.800781 128.328125 111.824219 128.238281 C 111.988281 127.472656 112.359375 126.769531 112.902344 126.203125 C 113.09375 125.972656 113.324219 125.78125 113.582031 125.632812 C 113.847656 125.484375 114.164062 125.464844 114.449219 125.570312 C 114.742188 125.703125 114.945312 126.03125 115.261719 126.121094 C 115.59375 126.191406 115.945312 126.113281 116.214844 125.910156 C 116.574219 125.71875 116.914062 125.496094 117.230469 125.25 C 117.464844 125.054688 117.753906 124.679688 118.042969 124.609375 C 118.683594 124.46875 118.492188 125.675781 118.472656 126.074219 Z M 118.480469 126.070312 "/>
<path style=" stroke:none;fill-rule:nonzero;fill:rgb(40.784314%,88.235294%,99.215686%);fill-opacity:1;" d="M 136.523438 117.125 C 136.582031 117.199219 136.617188 117.285156 136.625 117.378906 C 136.605469 117.5 136.542969 117.609375 136.453125 117.695312 C 136.058594 118.21875 135.71875 118.777344 135.4375 119.375 C 134.785156 120.519531 134.054688 121.617188 133.25 122.660156 C 132.960938 123.15625 132.484375 123.523438 131.925781 123.675781 C 131.859375 123.691406 131.789062 123.691406 131.722656 123.675781 C 131.632812 123.621094 131.570312 123.539062 131.539062 123.441406 C 131.210938 122.609375 131.121094 121.707031 131.273438 120.824219 C 131.296875 120.472656 131.390625 120.125 131.550781 119.808594 C 131.710938 119.5 131.996094 119.277344 132.332031 119.199219 C 132.707031 119.140625 133.09375 119.3125 133.460938 119.199219 C 133.816406 119.039062 134.097656 118.746094 134.230469 118.378906 C 134.433594 117.972656 134.597656 117.554688 134.730469 117.125 C 134.785156 116.734375 134.910156 116.355469 135.097656 116.007812 C 135.675781 115.488281 136.289062 116.738281 136.523438 117.125 Z M 136.523438 117.125 "/>
<path style=" stroke:none;fill-rule:nonzero;fill:rgb(40.784314%,88.235294%,99.215686%);fill-opacity:1;" d="M 128.734375 91.363281 C 129.054688 93.675781 128.589844 96.03125 127.410156 98.050781 C 126.527344 99.539062 126.394531 101.316406 125.550781 102.742188 C 125.359375 103.019531 125.226562 103.339844 125.164062 103.675781 C 125.207031 104.273438 125.503906 104.820312 125.976562 105.191406 L 131.386719 110.835938 C 132.367188 111.691406 133.101562 112.796875 133.5 114.027344 C 133.875 115.332031 133.128906 116.691406 131.832031 117.078125 L 120.0625 110.152344 C 118.121094 107.847656 117.097656 104.90625 117.183594 101.894531 C 117.335938 99.863281 121.476562 89.6875 121.476562 89.6875 C 122.871094 88.554688 124.375 87.570312 125.96875 86.738281 C 126.855469 86.339844 126.894531 86.574219 127.40625 87.4375 C 127.78125 88.082031 128.085938 88.765625 128.308594 89.472656 C 128.503906 90.082031 128.640625 90.714844 128.726562 91.351562 Z M 128.734375 91.363281 "/>
<path style=" stroke:none;fill-rule:nonzero;fill:rgb(40.784314%,88.235294%,99.215686%);fill-opacity:1;" d="M 121.480469 89.703125 C 121.480469 89.703125 117.140625 99.871094 117.191406 101.90625 C 117.3125 107.542969 120.070312 110.167969 120.070312 110.167969 C 119.777344 114.121094 119.488281 118.078125 119.207031 122.046875 C 117.925781 122.746094 116.023438 123.316406 115.28125 122.046875 C 115.089844 121.683594 114.988281 121.277344 114.972656 120.867188 C 114.546875 116.644531 114.113281 112.425781 113.671875 108.214844 C 113.3125 105.714844 113.269531 103.179688 113.550781 100.667969 L 113.550781 100.453125 C 113.550781 100.453125 113.683594 99.824219 113.855469 99.140625 C 114.355469 97.167969 115.433594 93.515625 117.109375 91.414062 C 118.621094 91.089844 120.074219 90.546875 121.421875 89.792969 Z M 121.480469 89.703125 "/>
<path style=" stroke:none;fill-rule:nonzero;fill:url(#linear2);" d="M 121.480469 89.703125 C 121.480469 89.703125 117.140625 99.871094 117.191406 101.90625 C 117.3125 107.542969 120.070312 110.167969 120.070312 110.167969 C 119.777344 114.121094 119.488281 118.078125 119.207031 122.046875 C 117.925781 122.746094 116.023438 123.316406 115.28125 122.046875 C 115.089844 121.683594 114.988281 121.277344 114.972656 120.867188 C 114.546875 116.644531 114.113281 112.425781 113.671875 108.214844 C 113.3125 105.714844 113.269531 103.179688 113.550781 100.667969 L 113.550781 100.453125 C 113.550781 100.453125 113.683594 99.824219 113.855469 99.140625 C 114.355469 97.167969 115.433594 93.515625 117.109375 91.414062 C 118.621094 91.089844 120.074219 90.546875 121.421875 89.792969 Z M 121.480469 89.703125 "/>
<path style=" stroke:none;fill-rule:nonzero;fill:rgb(27.843137%,24.705882%,27.843137%);fill-opacity:1;" d="M 126.738281 65.882812 C 125.835938 66.753906 124.777344 67.441406 123.617188 67.914062 C 123.34375 66.898438 123.921875 66.492188 123.921875 66.492188 C 124.523438 66.542969 125.316406 65.066406 125.0625 64.609375 C 124.808594 64.152344 124.300781 64.242188 124.046875 64.488281 C 123.429688 64.007812 123.042969 63.289062 122.976562 62.515625 C 122.976562 62.066406 123.71875 60.785156 122.226562 60.238281 C 121.042969 59.929688 119.800781 59.929688 118.617188 60.238281 C 118.515625 60.238281 118.617188 59.382812 118.617188 59.332031 C 118.765625 58.882812 119.050781 58.492188 119.429688 58.214844 C 119.941406 58.019531 120.488281 57.9375 121.035156 57.980469 C 121.796875 57.980469 122.574219 57.910156 123.335938 57.910156 C 124.113281 57.859375 124.894531 57.972656 125.632812 58.234375 C 127.058594 59.003906 127.984375 60.457031 128.085938 62.070312 C 128.101562 62.488281 128.199219 62.898438 128.371094 63.28125 C 128.5625 63.65625 128.929688 63.929688 129.121094 64.296875 C 129.449219 64.96875 129.191406 65.792969 129.429688 66.492188 C 129.835938 66.578125 130.226562 66.742188 130.578125 66.972656 C 130.925781 67.21875 131.109375 67.640625 131.054688 68.0625 C 131.339844 68.269531 131.554688 68.550781 131.675781 68.875 C 131.78125 69.199219 131.601562 69.550781 131.273438 69.65625 C 131.257812 69.660156 131.242188 69.664062 131.226562 69.667969 C 131.546875 69.875 131.828125 70.128906 132.070312 70.421875 C 132.289062 70.714844 132.355469 71.089844 132.253906 71.4375 C 132.027344 71.847656 131.636719 72.148438 131.1875 72.269531 C 131.570312 72.394531 131.921875 72.605469 132.203125 72.890625 C 132.472656 73.203125 132.472656 73.664062 132.203125 73.976562 C 132.707031 73.8125 133.242188 74.089844 133.40625 74.589844 C 133.441406 74.703125 133.457031 74.816406 133.449219 74.933594 C 134.226562 74.699219 135.042969 75.136719 135.277344 75.910156 C 135.296875 75.980469 135.3125 76.050781 135.324219 76.121094 C 135.308594 76.660156 135.144531 77.183594 134.84375 77.628906 C 134.648438 78.007812 134.40625 78.410156 133.992188 78.511719 C 134.195312 78.820312 133.992188 79.234375 133.695312 79.53125 C 133.398438 79.824219 133.296875 80.3125 132.996094 80.648438 C 132.609375 80.988281 132.15625 81.242188 131.660156 81.390625 C 130.636719 81.734375 129.542969 81.824219 128.480469 81.644531 C 127.054688 81.480469 125.730469 80.832031 124.734375 79.804688 C 123.289062 78.195312 123.097656 75.867188 122.703125 73.753906 C 122.679688 73.492188 122.570312 73.246094 122.398438 73.050781 C 121.976562 72.65625 121.296875 72.972656 120.71875 72.960938 C 119.699219 72.960938 119.046875 71.84375 119.015625 70.847656 C 119.105469 69.847656 119.300781 68.867188 119.609375 67.914062 C 119.90625 66.945312 119.667969 65.886719 118.988281 65.136719 C 118.703125 64.890625 118.351562 64.738281 118.054688 64.527344 C 116.703125 63.511719 116.78125 61.324219 117.933594 60.125 C 119.191406 58.988281 120.921875 58.539062 122.570312 58.914062 C 123.882812 59.148438 126.851562 59.878906 127.460938 61.089844 C 128.070312 62.300781 127.511719 64.804688 126.742188 65.882812 Z M 126.738281 65.882812 "/>
<path style=" stroke:none;fill-rule:nonzero;fill:rgb(75.686275%,28.235294%,20.392157%);fill-opacity:1;" d="M 116.722656 72.167969 L 110.382812 78.695312 L 101.953125 74.253906 C 100.910156 73.613281 99.703125 73.292969 98.484375 73.328125 C 98.363281 73.328125 98.199219 73.398438 98.21875 73.523438 C 98.238281 73.644531 98.394531 73.652344 98.414062 73.757812 C 98.433594 73.859375 98.300781 73.929688 98.1875 73.960938 L 96.15625 74.417969 C 95.859375 74.480469 95.507812 74.625 95.484375 74.929688 C 95.507812 75.132812 95.617188 75.316406 95.792969 75.429688 C 97.210938 76.445312 98.972656 76.871094 100.703125 76.609375 C 100.875 76.589844 101.042969 76.589844 101.214844 76.609375 C 101.378906 76.644531 101.53125 76.714844 101.671875 76.800781 C 102.324219 77.167969 102.957031 77.554688 103.5625 77.980469 C 105.214844 79.152344 106.695312 80.546875 108.375 81.675781 C 108.714844 81.9375 109.121094 82.105469 109.542969 82.164062 C 109.921875 82.152344 110.292969 82.0625 110.632812 81.898438 C 113.054688 80.882812 115.535156 79.867188 117.375 78.054688 C 117.535156 77.902344 117.667969 77.722656 117.761719 77.523438 C 117.832031 77.324219 117.867188 77.117188 117.863281 76.90625 L 117.863281 74.25 C 117.875 73.84375 117.785156 73.445312 117.609375 73.078125 C 117.414062 72.710938 116.996094 72.519531 116.59375 72.609375 "/>
<path style=" stroke:none;fill-rule:nonzero;fill:rgb(47.058824%,26.27451%,23.137255%);fill-opacity:1;" d="M 112.714844 79.105469 C 112.507812 79.265625 112.28125 79.398438 112.042969 79.503906 C 111.511719 79.667969 110.949219 79.722656 110.394531 79.664062 C 109.554688 79.644531 108.714844 79.695312 107.882812 79.820312 C 107.675781 79.828125 107.46875 79.894531 107.289062 80.003906 C 107.109375 80.113281 107.023438 80.335938 107.078125 80.542969 C 107.132812 80.652344 107.21875 80.746094 107.320312 80.816406 C 107.949219 81.421875 108.730469 81.84375 109.578125 82.039062 C 110.621094 82.046875 111.644531 81.71875 112.488281 81.105469 L 114.339844 80.015625 C 114.617188 79.878906 114.863281 79.683594 115.050781 79.433594 C 115.304688 79.035156 115.367188 77.917969 114.734375 77.804688 C 114.101562 77.695312 113.113281 78.761719 112.710938 79.109375 Z M 112.714844 79.105469 "/>
<path style=" stroke:none;fill-rule:nonzero;fill:rgb(100%,100%,100%);fill-opacity:1;" d="M 117.675781 70.53125 C 117.800781 70.488281 117.925781 70.460938 118.054688 70.449219 C 118.734375 70.441406 119.414062 70.480469 120.089844 70.570312 C 120.992188 70.570312 121.898438 70.632812 122.792969 70.570312 C 124.523438 70.570312 127.351562 70.347656 128.898438 72.21875 C 130.445312 74.089844 129.679688 76.777344 129 78.789062 C 128.652344 79.804688 127.984375 80.667969 127.675781 81.648438 C 127.390625 82.957031 127.359375 84.304688 127.585938 85.625 C 127.597656 85.914062 127.660156 86.199219 127.757812 86.46875 C 127.992188 87.03125 128.53125 87.484375 128.695312 88.015625 C 128.8125 88.652344 128.582031 89.300781 128.085938 89.714844 C 127.589844 90.113281 127.023438 90.414062 126.414062 90.601562 C 125.695312 90.886719 124.96875 91.160156 124.230469 91.382812 C 121.832031 92.070312 119.316406 92.21875 116.855469 91.820312 C 116.507812 91.832031 116.214844 91.554688 116.207031 91.207031 C 116.207031 91.109375 116.222656 91.015625 116.261719 90.925781 C 116.5 89.03125 116.402344 87.113281 115.976562 85.25 C 115.601562 83.582031 114.625 82.300781 114.308594 80.613281 C 113.992188 79.40625 113.992188 78.140625 114.308594 76.933594 C 114.371094 76.777344 114.59375 76.667969 114.613281 76.503906 C 114.632812 76.339844 114.359375 75.921875 114.265625 75.730469 C 113.96875 75.097656 113.730469 74.4375 113.554688 73.757812 C 113.523438 73.652344 113.523438 73.539062 113.554688 73.433594 C 113.601562 73.351562 113.660156 73.285156 113.738281 73.230469 C 114.441406 72.65625 115.15625 72.089844 115.90625 71.582031 C 116.445312 71.15625 117.042969 70.800781 117.675781 70.53125 Z M 117.675781 70.53125 "/>
<path style=" stroke:none;fill-rule:nonzero;fill:rgb(75.686275%,28.235294%,20.392157%);fill-opacity:1;" d="M 123.636719 66.230469 C 123.28125 67.367188 121.789062 69.378906 120.066406 68.914062 C 120.480469 69.660156 120.429688 70.570312 119.933594 71.265625 C 119.933594 71.265625 120.496094 72.679688 124.246094 70.585938 C 124.246094 70.585938 123.230469 70.492188 123.515625 68.40625 C 123.589844 67.679688 123.839844 66.980469 124.246094 66.375 C 124.101562 66.519531 123.871094 66.519531 123.730469 66.382812 C 123.6875 66.339844 123.65625 66.289062 123.636719 66.230469 Z M 123.636719 66.230469 "/>
<path style=" stroke:none;fill-rule:nonzero;fill:rgb(47.058824%,26.27451%,23.137255%);fill-opacity:1;" d="M 123.464844 66.796875 C 123.464844 66.796875 122.640625 70.304688 121.246094 70.164062 C 119.851562 70.019531 119.933594 67.914062 119.933594 67.914062 Z M 123.464844 66.796875 "/>
<path style=" stroke:none;fill-rule:nonzero;fill:rgb(27.843137%,24.705882%,27.843137%);fill-opacity:1;" d="M 119.773438 58.195312 C 119.773438 58.195312 117.492188 58.328125 116.808594 61.632812 C 116.414062 62.96875 117.175781 64.371094 118.507812 64.769531 C 118.804688 64.859375 119.117188 64.890625 119.421875 64.867188 L 121.453125 59.144531 L 119.765625 58.199219 Z M 119.773438 58.195312 "/>
<path style=" stroke:none;fill-rule:nonzero;fill:rgb(75.686275%,28.235294%,20.392157%);fill-opacity:1;" d="M 121.289062 69.078125 C 119.253906 69.25 117.972656 67.328125 117.738281 64.808594 L 117.738281 63.964844 C 117.738281 63.144531 117.832031 62.328125 118.015625 61.53125 C 118.917969 57.667969 124.421875 59.214844 124.421875 59.214844 C 128.695312 61.15625 124.882812 68.785156 121.292969 69.082031 Z M 121.289062 69.078125 "/>
<path style=" stroke:none;fill-rule:nonzero;fill:rgb(27.843137%,24.705882%,27.843137%);fill-opacity:1;" d="M 119.8125 59.128906 C 120.351562 60.988281 121.0625 63.644531 122.863281 64.671875 C 123.109375 64.835938 123.398438 64.921875 123.695312 64.925781 C 123.980469 64.875 123.949219 64.652344 124.164062 64.457031 C 124.308594 64.3125 124.527344 64.269531 124.714844 64.355469 C 124.867188 64.472656 124.957031 64.65625 124.949219 64.855469 C 124.941406 65.316406 124.703125 65.75 124.3125 65.992188 C 124.128906 66.074219 123.957031 66.175781 123.789062 66.289062 C 123.605469 66.464844 123.5 66.707031 123.484375 66.960938 C 123.421875 67.660156 123.769531 68.328125 124.378906 68.679688 C 124.417969 68.691406 124.460938 68.691406 124.5 68.679688 C 124.554688 68.667969 124.601562 68.644531 124.632812 68.597656 L 125.445312 67.855469 C 125.824219 67.523438 126.164062 67.152344 126.464844 66.75 C 126.832031 66.195312 127.039062 65.546875 127.042969 64.878906 C 127.042969 64.574219 126.921875 64.269531 126.921875 63.972656 C 126.980469 63.59375 127.082031 63.222656 127.226562 62.867188 C 127.414062 62.40625 127.507812 61.917969 127.503906 61.421875 C 127.339844 60.472656 126.703125 59.671875 125.8125 59.296875 C 124.390625 58.707031 122.855469 58.441406 121.320312 58.523438 C 121.015625 58.503906 120.710938 58.542969 120.425781 58.648438 C 120.167969 58.769531 120.058594 59.042969 119.816406 59.136719 Z M 119.8125 59.128906 "/>
<path style=" stroke:none;fill-rule:nonzero;fill:rgb(75.686275%,28.235294%,20.392157%);fill-opacity:1;" d="M 123.464844 82.613281 L 125.042969 86.082031 C 127.09375 83.441406 128.679688 80.472656 129.71875 77.292969 C 130.847656 73.222656 128.847656 72.207031 128.847656 72.207031 C 127.320312 71.644531 126.28125 73.824219 124.777344 78.226562 C 123.953125 80.6875 123.464844 82.609375 123.464844 82.609375 Z M 123.464844 82.613281 "/>
<path style=" stroke:none;fill-rule:nonzero;fill:rgb(100%,100%,100%);fill-opacity:1;" d="M 130.328125 73.632812 C 130.570312 74.371094 130.734375 75.128906 130.820312 75.902344 L 130.960938 76.917969 C 131.023438 77.132812 131.023438 77.355469 130.960938 77.566406 C 130.789062 77.933594 130.097656 77.78125 129.75 77.84375 L 127.910156 78.128906 C 126.679688 78.324219 125.460938 78.507812 124.230469 78.679688 C 124.144531 78.050781 124.144531 77.414062 124.230469 76.789062 C 124.339844 76.199219 124.597656 75.648438 124.738281 75.058594 C 124.882812 74.46875 124.902344 74.042969 125.023438 73.625 C 125.285156 72.628906 125.878906 71.753906 126.703125 71.140625 C 128.007812 70.195312 129.898438 72.484375 130.292969 73.511719 C 130.304688 73.550781 130.320312 73.59375 130.335938 73.632812 Z M 130.328125 73.632812 "/>
<path style=" stroke:none;fill-rule:nonzero;fill:url(#linear3);" d="M 94.695312 70.96875 C 94.695312 70.96875 98.128906 66.402344 102.585938 69.117188 C 107.039062 71.835938 103.886719 77.335938 103.886719 77.335938 L 107.292969 73.492188 C 107.292969 73.492188 107.222656 68.578125 104.679688 66.964844 C 102.136719 65.34375 97.558594 65.476562 97.558594 65.476562 L 94.699219 69.425781 L 94.691406 70.972656 Z M 94.695312 70.96875 "/>
<path style=" stroke:none;fill-rule:nonzero;fill:url(#linear4);" d="M 92.179688 72.636719 C 91.230469 75.652344 92.648438 78.90625 95.496094 80.277344 C 97.882812 81.472656 100.664062 81.605469 103.15625 80.644531 L 106.683594 84.195312 L 107.445312 85.476562 L 107.324219 80.746094 L 104.679688 76.820312 C 104.679688 76.820312 95.527344 83.117188 93.488281 71.339844 C 93.460938 71.359375 92.523438 71.054688 92.175781 72.640625 Z M 92.179688 72.636719 "/>
<path style=" stroke:none;fill-rule:nonzero;fill:rgb(40.784314%,88.235294%,99.215686%);fill-opacity:1;" d="M 112.371094 83.296875 C 112.796875 83.730469 112.796875 84.429688 112.371094 84.863281 C 111.933594 85.289062 111.238281 85.289062 110.800781 84.863281 L 103.875 78.222656 C 103.453125 77.792969 103.453125 77.097656 103.875 76.667969 C 104.300781 76.234375 105 76.226562 105.429688 76.652344 C 105.433594 76.65625 105.441406 76.664062 105.445312 76.667969 Z M 112.371094 83.296875 "/>
<path style=" stroke:none;fill-rule:nonzero;fill:rgb(40.784314%,88.235294%,99.215686%);fill-opacity:1;" d="M 99.816406 64.996094 C 95.597656 64.992188 92.175781 68.40625 92.167969 72.628906 C 92.160156 76.847656 95.578125 80.269531 99.796875 80.277344 C 104.015625 80.285156 107.441406 76.867188 107.445312 72.648438 C 107.445312 72.648438 107.445312 72.640625 107.445312 72.636719 C 107.445312 68.421875 104.03125 65.003906 99.816406 64.996094 Z M 99.816406 78.34375 C 96.664062 78.34375 94.113281 75.789062 94.113281 72.636719 C 94.113281 69.484375 96.664062 66.933594 99.816406 66.933594 C 102.96875 66.933594 105.523438 69.484375 105.523438 72.636719 C 105.515625 75.785156 102.964844 78.339844 99.816406 78.34375 Z M 99.816406 78.34375 "/>
<path style=" stroke:none;fill-rule:nonzero;fill:url(#linear5);" d="M 99.816406 64.996094 C 95.597656 64.992188 92.175781 68.40625 92.167969 72.628906 C 92.160156 76.847656 95.578125 80.269531 99.796875 80.277344 C 104.015625 80.285156 107.441406 76.867188 107.445312 72.648438 C 107.445312 72.648438 107.445312 72.640625 107.445312 72.636719 C 107.445312 68.421875 104.03125 65.003906 99.816406 64.996094 Z M 99.816406 78.34375 C 96.664062 78.34375 94.113281 75.789062 94.113281 72.636719 C 94.113281 69.484375 96.664062 66.933594 99.816406 66.933594 C 102.96875 66.933594 105.523438 69.484375 105.523438 72.636719 C 105.515625 75.785156 102.964844 78.339844 99.816406 78.34375 Z M 99.816406 78.34375 "/>
<path style=" stroke:none;fill-rule:nonzero;fill:rgb(40.784314%,88.235294%,99.215686%);fill-opacity:1;" d="M 100.386719 64.445312 C 96.167969 64.445312 92.75 67.867188 92.75 72.085938 C 92.75 76.304688 96.167969 79.726562 100.386719 79.726562 C 104.609375 79.726562 108.027344 76.304688 108.027344 72.085938 C 108.027344 67.867188 104.609375 64.445312 100.386719 64.445312 Z M 100.386719 77.792969 C 97.234375 77.796875 94.667969 75.242188 94.664062 72.085938 C 94.65625 68.929688 97.210938 66.363281 100.367188 66.359375 C 103.523438 66.355469 106.089844 68.910156 106.09375 72.066406 C 106.09375 72.074219 106.09375 72.078125 106.09375 72.085938 C 106.09375 75.238281 103.539062 77.792969 100.386719 77.792969 Z M 100.386719 77.792969 "/>
<path style=" stroke:none;fill-rule:nonzero;fill:rgb(75.686275%,28.235294%,20.392157%);fill-opacity:1;" d="M 125.042969 86.082031 C 125.042969 86.082031 125.101562 83.261719 123.730469 82.703125 C 122.355469 82.148438 112.742188 80.671875 112.742188 80.671875 L 111.851562 81.6875 C 111.851562 81.6875 121.277344 87.117188 125.042969 86.082031 Z M 125.042969 86.082031 "/>
<path style=" stroke:none;fill-rule:nonzero;fill:rgb(75.686275%,28.235294%,20.392157%);fill-opacity:1;" d="M 111.71875 80.417969 C 111.488281 80.371094 111.265625 80.3125 111.046875 80.234375 L 109.226562 79.582031 L 108.972656 79.582031 C 108.953125 79.628906 108.953125 79.679688 108.972656 79.726562 C 108.972656 80.003906 109.226562 80.207031 109.402344 80.417969 C 109.402344 80.417969 109.472656 80.527344 109.453125 80.589844 C 109.433594 80.652344 109.332031 80.691406 109.238281 80.691406 C 108.328125 80.746094 107.414062 80.746094 106.5 80.691406 C 106.386719 80.660156 106.261719 80.660156 106.144531 80.691406 C 106.027344 80.738281 105.960938 80.855469 105.980469 80.976562 C 106.015625 81.050781 106.074219 81.105469 106.144531 81.140625 C 106.367188 81.285156 106.625 81.375 106.886719 81.417969 C 106.636719 81.519531 106.371094 81.570312 106.105469 81.570312 C 106.132812 81.75 106.242188 81.902344 106.410156 81.976562 C 106.578125 82.039062 106.75 82.074219 106.929688 82.089844 C 106.738281 82.183594 106.53125 82.238281 106.320312 82.253906 C 106.269531 82.394531 106.402344 82.527344 106.527344 82.621094 C 107.179688 83.074219 107.957031 83.316406 108.753906 83.308594 C 109.574219 83.480469 110.421875 83.480469 111.246094 83.308594 C 111.84375 82.949219 112.464844 82.628906 113.105469 82.355469 C 113.21875 82.339844 113.332031 82.304688 113.429688 82.242188 C 113.523438 82.167969 113.585938 82.0625 113.613281 81.945312 C 113.878906 81.074219 113.296875 80.683594 112.527344 80.53125 L 111.722656 80.421875 Z M 111.71875 80.417969 "/>
</g>
</svg>
